<?xml version="1.0" encoding="utf-8"?>
<!-- Generator: Adobe Illustrator 16.0.0, SVG Export Plug-In . SVG Version: 6.00 Build 0)  -->
<!DOCTYPE svg PUBLIC "-//W3C//DTD SVG 1.1//EN" "http://www.w3.org/Graphics/SVG/1.1/DTD/svg11.dtd" [
	<!ENTITY ns_extend "http://ns.adobe.com/Extensibility/1.0/">
	<!ENTITY ns_ai "http://ns.adobe.com/AdobeIllustrator/10.0/">
	<!ENTITY ns_graphs "http://ns.adobe.com/Graphs/1.0/">
	<!ENTITY ns_vars "http://ns.adobe.com/Variables/1.0/">
	<!ENTITY ns_imrep "http://ns.adobe.com/ImageReplacement/1.0/">
	<!ENTITY ns_sfw "http://ns.adobe.com/SaveForWeb/1.0/">
	<!ENTITY ns_custom "http://ns.adobe.com/GenericCustomNamespace/1.0/">
	<!ENTITY ns_adobe_xpath "http://ns.adobe.com/XPath/1.0/">
]>
<svg version="1.1" id="Layer_1" xmlns:x="&ns_extend;" xmlns:i="&ns_ai;" xmlns:graph="&ns_graphs;"
	 xmlns="http://www.w3.org/2000/svg" xmlns:xlink="http://www.w3.org/1999/xlink" x="0px" y="0px" width="120px" height="120px"
	 viewBox="-25 -25 120 120" enable-background="new -25 -25 120 120" xml:space="preserve">
<metadata><?xpacket begin="﻿" id="W5M0MpCehiHzreSzNTczkc9d"?>
<x:xmpmeta xmlns:x="adobe:ns:meta/" x:xmptk="Adobe XMP Core 5.3-c011 66.145661, 2012/02/06-14:56:27        ">
   <rdf:RDF xmlns:rdf="http://www.w3.org/1999/02/22-rdf-syntax-ns#">
      <rdf:Description rdf:about=""
            xmlns:dc="http://purl.org/dc/elements/1.1/">
         <dc:format>image/svg+xml</dc:format>
         <dc:title>
            <rdf:Alt>
               <rdf:li xml:lang="x-default">Print</rdf:li>
            </rdf:Alt>
         </dc:title>
      </rdf:Description>
      <rdf:Description rdf:about=""
            xmlns:xmp="http://ns.adobe.com/xap/1.0/"
            xmlns:xmpGImg="http://ns.adobe.com/xap/1.0/g/img/">
         <xmp:MetadataDate>2019-01-22T12:30:22+05:30</xmp:MetadataDate>
         <xmp:ModifyDate>2019-01-22T12:30:22+05:30</xmp:ModifyDate>
         <xmp:CreateDate>2019-01-22T12:30:22+05:30</xmp:CreateDate>
         <xmp:CreatorTool>Adobe Illustrator CS6 (Windows)</xmp:CreatorTool>
         <xmp:Thumbnails>
            <rdf:Alt>
               <rdf:li rdf:parseType="Resource">
                  <xmpGImg:width>256</xmpGImg:width>
                  <xmpGImg:height>256</xmpGImg:height>
                  <xmpGImg:format>JPEG</xmpGImg:format>
                  <xmpGImg:image>/9j/4AAQSkZJRgABAgEASABIAAD/7QAsUGhvdG9zaG9wIDMuMAA4QklNA+0AAAAAABAASAAAAAEA&#xA;AQBIAAAAAQAB/+4ADkFkb2JlAGTAAAAAAf/bAIQABgQEBAUEBgUFBgkGBQYJCwgGBggLDAoKCwoK&#xA;DBAMDAwMDAwQDA4PEA8ODBMTFBQTExwbGxscHx8fHx8fHx8fHwEHBwcNDA0YEBAYGhURFRofHx8f&#xA;Hx8fHx8fHx8fHx8fHx8fHx8fHx8fHx8fHx8fHx8fHx8fHx8fHx8fHx8fHx8f/8AAEQgBAAEAAwER&#xA;AAIRAQMRAf/EAaIAAAAHAQEBAQEAAAAAAAAAAAQFAwIGAQAHCAkKCwEAAgIDAQEBAQEAAAAAAAAA&#xA;AQACAwQFBgcICQoLEAACAQMDAgQCBgcDBAIGAnMBAgMRBAAFIRIxQVEGE2EicYEUMpGhBxWxQiPB&#xA;UtHhMxZi8CRygvElQzRTkqKyY3PCNUQnk6OzNhdUZHTD0uIIJoMJChgZhJRFRqS0VtNVKBry4/PE&#xA;1OT0ZXWFlaW1xdXl9WZ2hpamtsbW5vY3R1dnd4eXp7fH1+f3OEhYaHiImKi4yNjo+Ck5SVlpeYmZ&#xA;qbnJ2en5KjpKWmp6ipqqusra6voRAAICAQIDBQUEBQYECAMDbQEAAhEDBCESMUEFURNhIgZxgZEy&#xA;obHwFMHR4SNCFVJicvEzJDRDghaSUyWiY7LCB3PSNeJEgxdUkwgJChgZJjZFGidkdFU38qOzwygp&#xA;0+PzhJSktMTU5PRldYWVpbXF1eX1RlZmdoaWprbG1ub2R1dnd4eXp7fH1+f3OEhYaHiImKi4yNjo&#xA;+DlJWWl5iZmpucnZ6fkqOkpaanqKmqq6ytrq+v/aAAwDAQACEQMRAD8A9U4q7FXYq7FXYq7FXYq7&#xA;FXYq7FXYq7FXYqo3t9ZWNrJd3s8drawjlLPM6xxqPFmYgDATSQCTQYJdfn5+VdvcGA6yZSpo0kVv&#xA;cOg/2QSjf7GuVHPDvckaPKejzfQJZNc/M3zHL5G81vZyXapqenKUZrOfnT6zFcQSBSGEjbHjUCpy&#xA;qO8jwlyp+nHHjj5eb03yv+ZFy2rx+WPOFkNF8ysP9GIPKzvR/NbSHuf5Ca9uuwujk3qWxcTJgFcU&#xA;DcftDOpXKRu4UuVUkItKsQK0FabnLXGYr5R/NLyT5rCppeoot6w30+4/c3APcBG+3TvwJGVwyxly&#xA;b8unnDmGWZY0OxV2KuxV2KuxV2KuxV2KuxV2KuxV2KuxV2KuxV2KuxV2KuxV2KuxV2KuxV2Kpb5j&#xA;8xaT5d0a51jVZvRsrZauerMTsqIO7MdgMjKQAss8cDM0HzTdXnnz87fNLW1pWz0C0YMI2J+r20Z2&#xA;DyUp6szDoPuotcwyZZD5O2Ahp47/AFLfzQ/JTT/JcOmXiasZNMu5Vtr2aZFM0TncyxxKy+olK1UV&#xA;I98cmHh6p0+rOSxW6deXfyO84aLf6d5p8pa5YakIStxbsTJCs0TCjLVRIKOpKn4hko4SNwWrJrIS&#xA;BjMEPafNXlLTfN/l8WOqQtbzsolt5QQZrS4pUMjqackOxoaHMmcBIbuvxZTCVhKPy584X7Wup+Xv&#xA;NUgTzD5ZFL64NeNxaAViuwTueSD4vv70yOOfQ8w2Z8Q2lH6Zfinl36D0IfkKmp32npNrOoXMo0R+&#xA;IFyJbm6KxKjj4vsqX41oco4R4d9XM45ePQOw5/J9BaFZT2GiafY3EpnntbaGCaZjyZ3jjCsxJ6li&#xA;K5lxFB1kzZJRuFi7FXYq7FXYq7FXYq7FXYq7FXYq7FXYq7FXYq7FXYq7FXYq7FXYq7FXYq7FXy9+&#xA;ZnmTVvzQ/MG18p+X356XazGG3Nf3byLUTXT0/YRa8f8AJ6btTMHJIzlQdxp8Yw4+KXP8bPoXyZ5O&#xA;0fyloMGj6ZGAkY5TzkASTSkfFI5Hc/gNszIQERQdXlymcrLz/wA5/lJeeafzDn1vzNqKx+TbG3ja&#xA;2t1lKMAqD1UYtRYl5qXdxvSg91pni4pWeTlYtSIY6iPWWOaLrF7pHmmS3/Ka2u9f8svIf0hp0qlL&#xA;CGXv9VvZmHEn/KFP9bakImj6Nw2zgJR/e1GX2/EPc7SWea1ilngNtM6gyW7MrlG7ryQlT8xmWHWk&#xA;bvNfzc8g6jrOpafqulXLWCyRS6f5juo/tHTCpmeqipenBlCgEksO2UZcZJsfFy9NnEQQd+o96SeS&#xA;tY8uecfPFlG11DYaH5SC2/lrQbhhHcTzooUXLxtQn0wo4gbg+G9YwIlLyHJtywljgespcy9xzJdc&#xA;7FXYq7FXYq7FXYq7FXYq7FXYq7FXYq7FXYq7FXYq7FXYq7FXYq7FXYq7FXnX57edH8s+Rp0tZDHq&#xA;Wqt9TtGX7SqwrNIP9VNgexIynPPhi5Wjxcc9+QY9/wA41+RRpnl6XzPdx0vtX+C05dUtEbr/AM9X&#xA;FfkFyGnhQtt1+a5cI5B6/qF/aafY3F/eSCK1tY3mnlPRUjUsx+gDMgmnBiCTQeIx6jr3526bqMNo&#xA;zaJpulXMbW0MoeS2vgxLenclOBDR8Faik05dOhzGs5B3Ox4Y6ci9yfsRyfmV518p6xZeUNU8oW01&#xA;zJHWwOjzejbvEgJZokkUgBeJLcmWnfJeJKJohh+XhMGYl82b/l755bznpMmrRaZNp9iHMdvJO6sZ&#xA;iuzlAv7KnavjXwyzHPiFuNnw+GauyyrLGlIvM3kfyr5mgMWtadFctSiXFOE6eHCVaOPlWmRlAS5t&#xA;mPNKHIsMOpeavyymiXVbmbX/ACI7rGNQlq99p3LZfVIH72LtX7qbK1VmHPeLk1HNy9M/sL1G0u7W&#xA;8tYrq1lSe2nQSQzRkMjowqGUjYgjLwXDIINFVxQ7FXYq7FXYq7FXYq7FXYq7FXYq7FXYq7FXYq7F&#xA;XYq7FUj1vzx5P0MsurazaWki9YXlX1dv+KgS/wCGRlMDmWyGGcuQLBtX/wCck/y4siVtGu9TYbA2&#xA;8PBK+5nMRp8hlR1EQ5MdBkPPZh2p/wDOVlweS6X5eROvGW5uC9fCqIif8Tys6ruDfHs7vLGL/wD5&#xA;yW/Mi5J+r/UrIdhDAWIH/PZpcrOok3R0GMd5YrLrPm/8xvNOlWOr38l7dXEyWsDFURIlkYB2WONU&#xA;QUHxMab03yFmZFt/BDFEkB7f+e1lqctr5Q8iaIjW2m6pcC2ZlBKKsHppCjU/ZRWLkf5Ne2ZOcHaI&#xA;ddoyLlM8w9Su/LVhe+WG8uXrST2UloLOWRmpKyBAnPl/NtWvjl5jYpwhkIlxDmu8seWtJ8taJbaN&#xA;pUZjs7YELyNXZmPJndqCrMTvjGIiKC5MhmbLEvzx1q30nyHeFXii1LUKafZSuQrKLghZirHdR6XK&#xA;pGQzGot+khxTHcN0s1P81fy/8jeXbbSdKuU1iewtkit7SwYSCkahecsq8kSp3Ykk79DkTljEUN2U&#xA;dNkySs7X3p3+U3nG983eUF1e+4C7a5njljiFFQK/JEHU/DGy7nfJ4p8Qtr1OIQnQRflHz9pPmPU9&#xA;a0qFgmoaLdy20sVf7yKNyizJ/k1HE+/zGGGQEkdzHLhMAD0IYh5u/Oi08s+ar7yz5p0cz6bIqtBd&#xA;W9HEltMtKSQS0DUPJWIbenTK55uE0Q34tIZxEond45qH5jap5X1Sa38geYp/8OSn17S0lj5C3L1L&#xA;Q8LlGHwnutQfnXMY5DE+k7OwjgEx+8j6ky0//nJX8ybanrmyvh39eAqf+SLRYRqJMJaDGe8Mo0z/&#xA;AJysuBxXVPLyP05S21wUp40R0f8A4nlg1XeGmXZ3cWYaR/zkp+XN7Rbw3emN3M8PqJ9BgMp/4XLB&#xA;qIloloMg5UWdaJ548n64VXSdZtLuRukKSr6u/wDxUSH/AAy2MweRcaeGceYKeZJrdirsVdirsVdi&#xA;rsVdirsVdirsVYp5s/NHyP5V5R6tqcYvFH+8MH76evgUSvD/AGdBlcssY827Hp5z5B4/5m/5ymv5&#xA;S8XlvSUt06LdXzeo5Hj6UZVVPzdsx5anuDn4+zh/EXl2v/mf5+14sNS1u5eF68reJvQhIPYxxcFP&#xA;0jKJZJHmXMhp4R5Bi+QbnYq7FXYq9W/5xs0hb78xxdOoK6ZZzXCk/wA78YB9NJScv04uTha+VY67&#xA;y+rsz3SsG/OH8wJfJXlM3toqvqd3ILaxDiqq5Us0jDuEVfvplWXJwhydLh8SVHkmn5c3Hmy58n6f&#xA;ceaxx1qZWedeKxsELEx80QBVbhSoptksd1vzYZxETPDyeZ61+X/nnz7+Z5fzZa/VPKGkvJ9TjSRe&#xA;E0HKihCjc+c3EM5NCo222yg45SlvycuGaGPH6fqL0nUPy18nXXli88twafHp2nXyqJzZKkMpMbB0&#xA;bnxbkwZR9quXnGKpxI55iQldkPLZdYtfyX1DzBoqJLLpd/ax6h5c9SrlroKIJY5GAAryAc9PhHuM&#xA;ovw7HyczgOoAPUbFhf5Qfl/5312a+82aVetp15aVbTryYH07q6Z6yRv/ADRleQc06kdaHKsWOR3D&#xA;karNCNRItDfnh5jm1vUNKOp6ZLpHmOxhlttVs5AeNAwaKSF+jxvyfia/wJc0rq+adJj4QaNxPJ5l&#xA;lDmOxV2KuxV2Kso0D8z/AD9oJUabrdykKU428revCAOwjl5qPoGTjkkORaZ6eEuYeo+Wf+cpr+Ip&#xA;F5k0lLhOjXVi3puB4+lIWVj8nXL46nvDh5Ozh/CXsHlP80fI/mrjHpOpxm8Yf7wz/uZ6+AR6c/8A&#xA;YVGZEcsZcnAyaecOYZXljS7FXYq7FXYq7FWKeevzN8qeS7YPqtzzvHFYNOgo9w/vxqAq/wCUxA+n&#xA;K55BHm34dPLJyfOfnj8/vOnmP1Laxk/QmmNUehasfWZf+LJ9m+hOI8a5iTzyPk7XDooQ3O5eZkkk&#xA;kmpO5Jyhy2sVdirsVdirsVdir3H/AJxVA/xFrh25fVI6eNPVzK0vMuu7R+ke9mcEPmjXf+chZ5ZJ&#xA;J7XRfLVsrQpR1jkWeLhQVHEmWR3PLwSnbLNzk8g0Exjg85PU9U0TR9Wjhj1SyhvY7eVZ4UnRZFWV&#xA;QQrgMDuKnLzEHm4UZmPIquo6jYabZS32oXEdrZwLymuJmCIorTdjt1NMSaRGJJoMa8hfmTovnZtU&#xA;OlRyLDpkyxerIKeqrglJFHUBuB2O+QhkEuTdmwHHV9WE/m75l/M6712Pyb5R026to7gRs2tQiRC9&#xA;aMQk4CrEiHZ25V7bdDXllK+EORpseMR45n4PT7LRYmsNK/TKQahqumxR/wCnyRqzC4EYWWWIsKoX&#xA;IrtlwHK3DM9zWwLDdA/OG18w/mPL5X0W0F5pVvDI82roxpzjAqVWlDHyPANXcmo261xy3Kg5E9KY&#xA;4+I8+549/wA5LeYbHUvO1vp9oyyHSbf0bmRd6TSMXZK/5K8a+9RmPqJXJztBAiFnq8izHc52KuxV&#xA;2KuxV2KuxVsEggg0I3BGKvTPI/5/edPLnp219J+m9MWg9C6Y+sq/8Vz7t9D8h4Uy+GeQ83EzaKE9&#xA;xsX0Z5G/Mzyp5ztuelXPC8ReU+nT0S4T341IZf8AKUkZlwyCXJ1ObTyx82V5Y0uxV2KvKPzm/OiH&#xA;ylE2i6KyTeY5VBkcgMlojCoZx0MjA1VfpPYGjNm4dhzc3S6Xj3P0/e+Wr+/vdQvJr2+ne5u7hi80&#xA;8rFnZj3JOYJNu5jEAUEPgS7FXYq7FXYq7FXYq7FXqH/OOmvRaX+Y0VtMwWPVbeSzBPT1KrLH9JMX&#xA;EfPL9PKpOHroXj9z6r1PULbTdNu9Suai2s4ZLicqOTenEpdqAdTQZnE0LdLGNmg8u/Kr8xPPnnbz&#xA;PfX8lglr5NRHS3JQVEoI4ASkhnfjXnQcR7ZRiySkfJzdTghjiBfrZ7508maR5w0N9G1VpktmkSUP&#xA;buEkV4zsQWDr37g5dOAkKLi4sphKwqeVPKHl/wAqaUumaJbC3t68pGJLSSPSheRzuzfq7bYxgIig&#xA;uTLKZsrNf88+UPL9P0xq1tZux4iJnDSV/wCMa8np4mmMpgcysMM5cgnTLHLGVYLJFItCDQqykfcQ&#xA;Rkmt4P5082eSPypsb7QPI0CDzJf/AO9dyHM31alePqM5b41DHhGNh1b/ACsWcow2jzdlixzzESn9&#xA;IfPEsss0rzTO0ksjF5JHJZmZjUkk7kk5hu1AWYq7FXYq7FXYq7FXYq7FXYqiLC/vdPvIb2xne2u7&#xA;dg8M8TFXVh3BGEGkSiCKL6l/Jn86IfNsS6LrTJD5jiUmNwAqXaKKlkHQSKBVl+kdwM7Dm4tjzdNq&#xA;tLwbj6fuer5e4THvzB81x+VPJ+pa4QGlto+NtG3Rp5CEiBHhyYE+1chklwi23Bj45iL4jvr67v72&#xA;e9vJWnu7mRpZ5nNWd3NWY/MnNaTb0IAAoKGBLsVdirsVdirsVdirsVdiqrbXNxa3MV1bSNFcQOss&#xA;MqGjI6HkrA+IIrhBUi9n15+VX5s6P510uO0u5I4PMMUfG8sXoBLTYyQg/aVhuyj7PTpQnPxZRIeb&#xA;otTpjjNj6WeWNhY6fax2lhbRWlpECIreBFjjUE1PFEAUbnLQKcYyJNl5J+ZHnj83f8R3XljyloMs&#xA;cY9MRawsTS81dFYssjgQRgElSWrT2OUZJzugHOwYcXDxSPwep6BHq0eiWEesOkmqrbxi+kj+w0wU&#xA;cyP9ll8brdwp1Zrk8g8zflT+UXl7WrzzH5s1iUpdXEl2mmSSKOZkcuUEca+tIOR7fTmPLFAGyXPx&#xA;6nLICMQxH8wf+cjdU1OF9M8pRNpOnU9M3rUF0y0pSMLVYR8iW8CMryagnYN+HQgby3Lxh3Z2LuSz&#xA;sSWYmpJPUk5jOe1irsVdirsVdirsVdirsVdirsVdiqvY313YXsF7ZytBd20iywTIaMjoaqw+RGEG&#xA;kEAii+3Py+81x+a/J+m64AFluY+NzGvRZ4yUlAHhyUke1M2WOXELeez4+CZiwb/nJPncflnFPbMH&#xA;g+vW8jsu4MbJIFNa9OTLlWo+lydBtk+D5VzBdy7FXYq7FXYq7FXYq7FXYq7FXYqvhmlhlSaF2jlj&#xA;YNHIhKsrA1BBG4IxUh6JoP5//mXpESQtfx6lClOK38fqtQeMimOVv9kxy6OeQcWeixy6V7k7k/5y&#xA;j8/NGFXT9LR6EM/pXB3PQgGfanvXJfmZeTV/J8O8sc1r89vzO1VWjOrGyib9iyRICPlIB6v/AA2Q&#xA;OeR6t0NHjj0YLc3NzdTPPcyvPO5q8sjF3Y+JZqk5XbkgUpYFdirsVdirsVdirsVdirsVdirsVdir&#xA;sVdir6o/5xwl+p/lfcXd44itEvbmYSNsFhSOPmxPgGVsztP9LptdvkodyH/LnV9F/ML8pD5R1G6j&#xA;TU4oDp7RMw9T9yA1tOiE8mChVJ91OOMicKKc8Tiy8Y5c3zfr2hanoOr3WkanCYL20cxyoeh7hlPd&#xA;WG6nuMwpRINF20JiQsckvwMnYq7FXYq7FXYq7FXYq7FXYq7FXYq7FXYq7FXYq7FXYq7FXYq7FXYq&#xA;7FXYq7FXYq7FXYqmGg6Fqevava6RpkJnvbtxHEg6DuWY9lUbsewwxiSaDGcxEWeT6T/Mu/0v8ufy&#xA;gi8q2Uym+u7c2EC9HcS1N3OVrsG5P/smGZuQiEKdTp4nLl4jy/FPl+GaWGVJoXaOWNg0ciEqysDU&#xA;EEbgjMF3BDItc88X/mLTooPMEa32oWoCWesfZuhH/vqcgUmTw5fEDvy6gzlO+bVDCIn07DuY1kG1&#xA;2KuxV2KuxV2KuxV2KuxV2KuxV2KuxV2KuxV2KuxV2KuxV2KuxV2KuxV2KuxV2KuxVFadpt1fzelb&#xA;hQFHKWaRhHFGtacpJGIVR88IFolIBnWkef8ASvI2nzWvlCJbzX7leF55luI6Kinf07OFxUID+1IK&#xA;seq9KWiYjy597jSwnIbn9Pd+tgup6rqWq3st9qVzJd3kxrJPMxdz9J7DsMqJJ5uTGIiKCFwJdirs&#xA;VdirsVdirsVdirsVdirsVdirsVdirsVdirsVdirsVdirsVdirsVdirsVdirsVV7Oxvb6b0LOCS4m&#xA;oW9OJS54jqSB2Hc4QLQSBzVZba2tdp5VmmHWGBgyD/WlFVP+wr8xjSLtRmu5pUEZPGFTVYV2QHpW&#xA;nc+53xtICjgS7FU+8l+S9Y84aw2k6SYhdLDJcVnYonGOlRUK25LADJwgZGg15coxiyl2saPqejan&#xA;caZqdu1rfWrcJ4HpUGlRuKggg1BGxGRIINFlGQkLHJBYGTsVdirsVR+maLe6mfTsfTluK0FqZESV&#xA;ulOCuV9Qn+VKn2wgWxlMDms1LR9W0ub0NSsp7Gb/AH3cRPE23s4BxII5rGQPI2g8DJ2KuxV2KuxV&#xA;2KuxV2KuxV2KuxV2KuxV2KuxV2KorTtK1TUp/q+nWc97P/vq3jeV9/8AJQMcIBPJEpAcyyOX8tdc&#xA;0+NZfMU9p5fiYcgt/MPrDL4rawiWc/8AAD55PwyOezSM8T9Pq9yAkk8nWG1vFca1OP8Adlz/AKJa&#xA;18PSiZpnHgfVT/VwbDzZ+s+SEvvMeq3dsbP1FtrAkH6jaosEJI6F1QD1GH8z8m98BkUjGBv1SzIs&#xA;3Yq7FXYq9a/5xl/8mNL/ANs+f/k5FmRpvqcLX/3fxQv/ADkUsz/mjcqIWBa3tlioD+8rGN1233PH&#xA;6MGo+pOh/u0l83flD5z8q6JaazqNujWdwqmf0SWa2d/spOCBxPaoqK7V6ZGeKURZbMWphM0GE5U5&#xA;DsVdirsVZn5Y/NvzloMC2X1hNU0kUB0zUV+swcR2Xl8Sf7E09ssjlkHHyaaEt+R8mcWfnv8AIbX4&#xA;gPMnlP8AQ92R8UtgCIa/zD6uYW+gxn6ctE8Z5inHOHPH6ZWqP+X/APzj5q3xaT5xk092+yt06pGP&#xA;ouI4W+98fDxnkV8bPHnG1Jv+ccba830Dzjp+ohj8CkAdTsKxST1+7H8vfIr+eI+qJCWXv/ONH5kW&#xA;9fRNjeU6ejOy1/5GpFkTp5Mxr8Z70luvyJ/NW2qW0J5FFaNFPbyVA9lkLfhkTgn3Ng1mI9Utm/Kr&#xA;8yISQ/ly/NBX4IWk/wCIcsHhS7mY1OP+cEG/5f8AnyNC8nlvVEQdWayuAB9JTB4cu4svGh/OHzUf&#xA;8GecP+rFqH/SLP8A80YOA9y+LDvDv8GecP8Aqxah/wBIs/8AzRjwHuXxYd4Vk/L7z66hk8taqysK&#xA;hhZXBBH/AAGHw5dxR48P5w+aMh/Kn8yJjRPLl+CRX44WT/ifHD4Uu5B1OP8AnBMrX8ivzVuKcdCd&#xA;FNCWlmt46A+IaQH8MIwT7mB1mIdUev5Aec4wTqN7pWl0FW+uXgWlBXf01kw+BLrTH87DoCfgqD8o&#xA;/J9of9y/5haTCV+2ln/pbbVqKK6EdPDD4Q6yCPzMzygVRdG/5x60yrXWvarrci9Y7SD0EJB3/vUT&#xA;8HxrGOpK8ec8gAv/AOVi/lDpAP6A8iLdyj7E+rTep06MY2Nwv0AjHxIDkEeBll9U/klGt/nj581C&#xA;3NnYzw6FYfs2ulRi3AHTaQFpB/sWGA5pHybIaSA3O582BTTTTytNNI0srnk8jkszE9yTucpckBZi&#xA;rsVdiqvY2N5f3kNlZQvcXdw4jggjBZnZjQAAYQLQSALLJ/Pf5X+Z/JMdhJrCxNHfoSjwMXVJFoWi&#xA;ckL8QBB2qD2Jpk54zHm04dRHJddGL3FndWywtcRPELiMTQFwRzjJKh1r1BKnfIU3AgvVP+cZf/Jj&#xA;S/8AbPn/AOTkWX6b6nD1/wDd/F9R3FhY3MkMtzbRTy27c4HkRXaNv5kLA8T8szadMJEKGvWcN7om&#xA;oWk0IuYp7eWN4DvzDIRx38cZCwmBogvi+P8ALTz/ACabPqQ0C9SytlLzSSRNGeI3LKj8XYDvxBzW&#xA;+HKrp6D8xC6sMZyDa7FXYq7FXYq7FXYqjbXW9aswBaX9zbhacfSmkSlNhTiRhEixMAeYTSD8xPP0&#xA;HH0vMmpqq/ZT65OV3/yS5GS8SXewOCB/hHyRkX5s/mVFXj5jvTXrzlL/APEq4fFl3sTpsf8ANCp/&#xA;yuD8zf8AqYrv/gl/pj4su9fyuPuVj+df5pGP0z5gn40pUJCG/wCCCVw+NLvR+Ux9yj/yuD8zf+pi&#xA;u/8Agl/pg8WXen8rj7lKX81/zJlbk3mO+BpT4ZmQfctBj4su9P5bH/NCCm8/+e5wRN5j1N1Jrxa8&#xA;uCK/LnTB4ku9kMMP5o+SWXOs6vdVF1fXE9a19WV3ry6/aJ698iSWQgByCDwMnYq7FXYq7FXYq7FX&#xA;Yqmfl/y1r3mK/wDqGiWUl9dhDI0cdPhRdizMxCqN6bnJRiTyYTyRiLJp7V/zjr5L1zSPOOpz65o1&#xA;xZSwWZS2uLmJkUM0gDemWHFqqD8Snp88ydPAg7h1+uyiUBwnq+gLywsb6EQ3tvFdQhg4jmRZF5L0&#xA;ajAiozKIt1gJHJ8t/wDOTIA/MWIAUA06AAD/AF5MwtT9TudB/d/Fv/nGX/yY0v8A2z5/+TkWOm+p&#xA;df8A3fxfVWZzpXYq4iux6YqxeH8r/wAvYYLyCPQLMJf8vrJMYZiH3IVmqyCu4CEU7ZDwo9zcdRk2&#xA;3OzH/Kv5BeQfL2pvqIil1KYMTbR3xSWOEduKBFDMPFq+2+QjgiDbbk1s5CuTyf8A5ya8t6fpnmrT&#xA;tRsoUt/0nbt9YjjUKGlhehkIHdldQflmPqY0bc3QZCYkHowTyn+WXnbzXbyXOiaa09rESpuHdIYy&#xA;w6qrSMoY/LplcccpcnJyaiENiWO3tld2N5PZXkTQXVs7RTwuKMjoaMpHscgRTaCCLChgS7FXYq7F&#xA;XYq7FXYq7FXYq7FXYq7FXYq7FUVpel6jqt/Dp+nW73V7cNxhgiHJmPXp7DcnthAJ5IlIRFlN/NPk&#xA;DzZ5WvLSz1qxMFxfLytUR0l5moUqDGWHIEjb3GSljMebXjzRmLB5PqHQvyP/AC8tNJ0+G+0WG5vr&#xA;eFBczyM7GSbiPUZqNxYFq7UpmbHDGuTp56vISaOzJtU8jeT9T0ttLu9HtGsivFI0iSPh7xsgUoR4&#xA;rlhgCKppjmmDYO7FvKH5D+Q/Ld5Pd+g+qzSgpF+kRHMkSHqFQIq8j0LEV+W+VwwRDdl1k5iuXuZX&#xA;5e8l+VfLkt1Loemw2El4Qbhogfi41IAqTxUVOy0GWRgByaZ5ZT+o2nWSa3Yq+Vf+cmv/ACY0X/bP&#xA;g/5OS5g6n6ndaD+7+Lv+cZf/ACY0v/bPn/5ORY6b6l1/938X1Vmc6V2KuxV2KuxV85/85WXqvqvl&#xA;6yB+KCC4mK7bCZ0UH6fROYeqO4dr2cNiXr/5WLb2v5ZeXmVRHEunxSvxG1WXm7UHckknMjF9IcHU&#xA;b5D73yNreoyea/Ot1eswtzrF8ShbpGs0nFOVP5FIrmATxS97vIR4IV3B6J51/wCcbdf0LSZtT0rU&#xA;E1iK2QyXNv6JgmCKKs0a85Q9OtKg+FctnpyBY3cXFr4yNEU8dzHc5tkZQCwIDCq1FKjpUfdirWKu&#xA;xV2KuxV2KuxV2KuxV2KuxV9T+avyM8sL+XFzYeXNNjm12KGOW1v2NZ5pEZWf4yafvVDAL9nfM6WE&#xA;cO3N02PWS8S5HZJ/+cevyx8xaDq2oa5r9gbJzD9Vso5uJkPNg0jhRXjsgFfc5HBjINls1uojICMS&#xA;9vuLGyuZIZLi3jmkt29S3eRFZo3/AJkJB4n3GZNOuBIVsKHYq7FXYq7FXYq+Vf8AnJr/AMmNF/2z&#xA;4P8Ak5LmDqfqd1oP7v4u/wCcZf8AyY0v/bPn/wCTkWOm+pdf/d/F9VZnOldirsVdirsVeGfn7+Vn&#xA;m/zR5k07VtBtVvYxarZTx+pHG0bJK8gc+oyVU+r26UzFz4jI2HY6LUQhEiT13ynoraJ5X0rR5GEj&#xA;2FpDbyOPss8aBWIr2JrTMiIoAODknxSJ73nw/wCcbfIa68uqRzXiQLMJ104PH6IIbl6dSnPh2pWt&#xA;O+Vfl43blfn58NbPVyK7Hpl7hPiXy/5bi1r8yrfQY0paz6k0Tona3SUmSnyiU5rYxuVPQzycOPi8&#xA;nvv/ADkR5Ju9X8oafNountcXOkzgC3to6utq8ZVgiIK0VlTYDpmVqIWNnWaHKIzNnm8j/Kj8m7nz&#xA;pcaidRnm0u00/gjfuT6kksnL4V58QOHD4vmMx8WHi5udqdV4dVvbGfzC8myeUvOF55fWVrtIDG1v&#xA;Nx4tIkqK6/CCdxy4/MZDJDhNN2DLxwEkz8//AJSeZPJGnadf6nJDNFfExv6BZvRmA5em5IANVrQj&#xA;wP0yyYjEbsMOpjkJA6IX8s/y8u/PWvyaXBdLYxQQtcXFyyGTigZUAVAU5MS/8wwY8fEaTqM4xxvm&#xA;m/5lfkn5g8k2w1H6wmp6OWEbXkaGN42b7PqxEvxDHYEMRXw2yWTCY79GGDVxybciwbSdJ1LWNSt9&#xA;N023a6vrpuEECUqxpXvQAACpJ6ZUASaDkSkIizyROveWNb0HW5NE1S2MOpRlAYQVevqAFOLKSDyD&#xA;DphlEg0UQyCQscmeeb/yA8zeWvKba/NeQXTW6q9/ZxBuUSsQKq52k4k/FsPHLZ4DEW42LWxnLhp5&#xA;eiM7BEBZ2ICqBUknoAMocx6En5A/mrJaxXCaOD6oDek1xbpIoYV+NXkWh9uuXeBPucX87ivm+uNL&#xA;t5bbTLS2lblLDDHHI3WrIgBP3jM8cnRyNlE4UOxV2KuxV2KuxV2KuxV8q/8AOTX/AJMaL/tnwf8A&#xA;JyXMHU/U7rQf3fxd/wA4y/8Akxpf+2fP/wAnIsdN9S6/+7+L6qzOdK7FXYq7FXYq7FXYq7FXYqxb&#xA;QPyy8m6Dr95r+m2Xp6lel2eRnZ1j9Q8pBEpNE5Hw+Q2yEcYBsN09ROUREnZlOTaXYqx7zH+X3k7z&#xA;JfWt/rOmx3V7ZlTBPydGARuQVuDLzWv7LVGQljB5tuPPOAoFK/zl0ODWPy11yKQDnaW7X0L91e1H&#xA;q7fNVZfpwZo3Es9LPhyB88/84/eYl0f8yLOKVuMGqxvYOT/NJR4vpMkar9OYeCVSdprYcWM+W76o&#xA;8zeX7LzDoF/ol7UW9/E0TutCyk7q612qrAMMzpRsU6bHMxkCOjAPy0/IjTvJWuHWpNUfU7xY3itx&#xA;6IgSP1KBmpzlJbjt17nKseDhNuTqNYckaqmSeZ/yt8o+ZPMFjr2pQyfpCxKcWifgsoifmiyrQ1AP&#xA;hQ+/TJyxAmy1Y9RKETEciyDXtHtda0W+0i7LC2v4JLeVl2YCRSvJa9xWoychYpqhIxII6PMvJP8A&#xA;zjp5e8ua5BrF3qEuqzWjiS0heNYo1kBqruAzliuxG43yiGnANuZl10pxoCnreZDguxV2KuxV2Kux&#xA;V2KuxV2KuxV8q/8AOTX/AJMaL/tnwf8AJyXMHU/U7rQf3fxd/wA4y/8Akxpf+2fP/wAnIsdN9S6/&#xA;+7+L6qzOdK7FXYq7FXYq7FXYq7FXYq7FXYq7FXYqx/8AMMV8geZgOv6Jvv8AqGfIZPpPubcH1x94&#xA;fEmm3dxZ6ja3dtX6xbzRyw8evNGDLT6RmtB3ehkLFPvvNq8y7FXYq7FXYq7FXYq7FXYq7FXYq7FX&#xA;Yq7FXYq+Vf8AnJr/AMmNF/2z4P8Ak5LmDqfqd1oP7v4u/wCcZf8AyY0v/bPn/wCTkWOm+pdf/d/F&#xA;9VZnOldirsVdirsVdirsVdirsVdirsVdirsVWTQxTwyQzIJIZVKSRsKqysKEEeBGKg08s0n/AJxy&#xA;8lad5mj1lZ7ia2gl9e20yQqYlcHkgZqc3VT0B69yd60DTxBtzZa6ZjT1bL3CdirsVdirsVdirsVd&#xA;irsVdirsVdirsVdirsVfKv8Azk1/5MaL/tnwf8nJcwdT9TutB/d/F5fpuqanpd2t5pt3NY3aAhbi&#xA;3kaKQBhQgMhBocoBI5OZKIIo7vqn8j/P+oa35Du9Q8y3S10md4ZdSnZUDRLGsgaVjQVXnQnvt3zO&#xA;w5Lju6XV4RGdR6su8v8A5jeSPMN81jo+rwXd4oLegvJHYL1KBwvKn+TXLI5InkWieCcRZDI8m1Ox&#xA;V2KuxV2KuxV2KuxV2KuxV2KuxV2KuxV2KuxV2KuxV2KuxV2KuxV2KuxV2KuxVjfmD8x/JHl6+Wx1&#xA;nV4LS8KhvQPJ3AboWCBuNf8AKyEskRzLbDBOQsBif53/AJgahofkS01Hy1doTqtwkMWpQlZFWJo3&#xA;kLRt8S1bhQH7t8rzZKjYb9JhEp1Lo+VNR1PUdTu3vdRupby7kp6lxcO0kjUFBVmJOw2GYJJPN3UY&#xA;gCgzH8mvJWk+cPOa6XqrSCyjt5bl0ibizlCqheW9BV67ZZhgJSouPqsphCw92/Nj8vZI/wAqW0Hy&#xA;dZGOGznjuHsIOTSTxrXmN+TSPyKvuanj8sysuP0VF12mz/veKZeCflj5W81XvnvSBYWdxHJZXkM1&#xA;1OUeNYY45AZDIxA4/CCKHr0zFxxJkHZajJEQNno9b/M7/nIbVPL/AJmudD0CwtpvqDCO6urwSOGk&#xA;pVlRI3ioFrSpO57Zfk1BBoOFp9CJR4pHmz78p/zJi896BLevbi01Czk9G8t1YslSvJXQnfi2+x6U&#xA;Pzy3Fk4g4upweHKujJrPzF5fvbx7Ky1O0ubyKvqW0M8ckq068kViw+7LBIFpMJAWQmGFi7FXYq7F&#xA;XYq7FXYq7FXYq7FXYq7FXYq7FXYq7FXYq7FXYq7FUvvPMfl6yvEsr3VLS2vZaCO2mnijlavTijMG&#xA;P3YDIBmMciLALGfzY/MmLyJoEV6luLvULyT0bO3ZiqVC8mdyN+K7bDrUfPK8uThDbpsHiSrowL8s&#xA;P+chdV8w+Z7bQtesLaL6+xjtbmyEihZApIWRJHlqGpSoO3hlWPOSaLk6jRCMeKJ5PIvzO8r+abPz&#xA;5q639ncSSXl5NNazBWkWaOWQmMowBr8JAoOnTKMkTxFztPkiYCj0e+flX+XbTflTFoHnKxLxXM8l&#xA;zHYzFlkgR6FOhDRvXk2xqOW/cZlYsfoqTrdRn/e8UC8K/OfyXo/lDzl+i9I9QWcltFcKkrcyrOWU&#xA;gNQEj4K75i5oCMqDsdLlM4WU/wD+cZf/ACY0v/bPn/5ORZPTfU16/wDu/i+qsznSuxV45+Zf/OPc&#xA;XmjX5dc0nUVsLm7ob23mQvGzgBfURlIK1A3FDvvmPkwcRsOfg1vBHhItUvvy0vfJH5N+YNN8vTzX&#xA;muXaLNdXUS8HdQ6CVI0BJCiDntUk1PjTE4+GBA5oGoGTKDLk+atAGsjXLEaL6v6X9dPqXo19T1eX&#xA;w8ae+YUbvZ286o3yfSP5x/nbqnk/UrfQ9HtoJdSMKT3lxOGaNA5PFEQFCSeNak9Pwzc2YxNB1Ol0&#xA;gyDiPJMPyV/OC987teadq1tFBqlnGJ1ltwwikiLcTVWLcWUkd969sOHLxbFjq9KMdEck7v8A87Py&#xA;zsdXfSrjWUFzG/pyyJHK8KONiplVSmx6kGgyRzRBq2saTIRdM2ilimiSaF1kikUPHIhDKysKhlI2&#xA;IIy1xiF2KuxV2KuxV2KuxV2KuxV2KuxVp2CozGtFBJoCTt4AVJxVB6TqbajBJcfVJ7SIStHALlDF&#xA;JIi0Hqek1HRWatA4BoK03wA2ylGkXLLFDE80zrHFGpeSRyFVVUVLMTsABhYgMJ0/86/y01DWE0m2&#xA;1hDcyP6cTvHKkTvWgVZWUJuem++VDNEmrciWkyAXSR/nV+cF75Iay07SbaKfU7yNp2luAxjiiDcR&#xA;RVK8mYhv2tqd65HNl4dg26TSjJZPJAfk7+duq+cNRudD1e2gi1MQvPZXEIZYn4EVSRCXII5VqD0/&#xA;EYcxkaLLVaQYxxDk+btfGsnXL4a16v6X9d/rvrV9T1eXxcq++YUrvd20KoVyfSll+Wl952/JvQNN&#xA;8wTy2eu2iNNa3Uql3RS7iJJUJUlTBwB3qKDwoc0Y+KAB5uoOoGPKTHks/LT/AJx7i8r6/Frmrait&#xA;/c2lTZW8KFI1cgr6jsxJagOwoN98ceDhNlOfW8ceECnseZDgOxV8q/8AOTX/AJMaL/tnwf8AJyXM&#xA;HU/U7rQf3fxa/wCcZiB+Y8lT10+cD/g48dN9S6/+7+L6rzOdK7FXYq7FUJBo+kW9297BY28V5L/e&#xA;XKRIsrV/mcDkcFBkZEirYD+af5K6b55uodSjvW07VoYxCZuHqxyRgllDpVDVSxowPzrtSrLhEt3J&#xA;0+rOMVVhv8uPyYs/Jen6lwv2u9Y1KFrdr0J6SxIQaCNAzH7VCTy7Dpjjw8PvXPqjkI22D5t1L8rv&#xA;zAsNWfTJNCvJp1cokkEEksMn+UkirxK961270zDOKQNU7aOogRdh6/8AmS/nLyZ+SnlzSEuJILgs&#xA;ttqlxCx5xqVeRYBIp2H7JI68adDmRk4owAcHBwZM0j8nnX5KeZvM1p+YWk2lndTy219OIb20LM8b&#xA;xEHmzISRWNfiDdqeFcpwyPEHK1eOJxknozj84fzx84aT5vutB8uzJp9vpxVJZzFHLJLIyB2/vldV&#xA;UcqCi+9cty5iDQcfS6SEocUt7Zj+T/5u3XmPytrV55hVRc+XYxPeXUShRJAySOG4DbmPRatNumWY&#xA;stg30cfVaYQkBH+JhX/Q1WqfpTl+goP0Vz/u/Vf6xw8ef2OXtxyr80b5OR/Jwrnu9T84/m35f8t+&#xA;ULDzGI3vBq6JJpdopEbyB0EnxseXAKrDlsaHbL55QBbh4tNKczHu5sd/Lf8A5yB0/wA2a7Hod/pp&#xA;0y8ua/UpFl9aORlBYo1VjKtQbda+2Qx5+I0259EYR4gbd+ZH/OQNh5T12TQ7DTf0nd2wX65K03ox&#xA;xswDcFokhZqHfpTHJn4TS4NEZx4iaZF5O/Nzy/5j8oX/AJjMb2Y0hHfVLRiJHjCIX+BgF5hlHw7D&#xA;fbJwygi2rLppQmI9/J5YP+cqtU/SgY6FANK57xiVzccPHn9jl7cco/NG+TmfycK57s1/N/8AN668&#xA;u+VdFvfLyg3PmKMz2d1MlRHAEjctwO3M+stK7dcty5aArq4+l0wnIiX8LD/yd/PDzjq/m+10HzDM&#xA;moW+o80inEUcUkUiIzr/AHKorKeNDUe9crw5iTRb9VpIRhxR2pg351eZ/Mt3+YWr2l5dTxW9hOYb&#xA;O0DMkaRADgyoDSsinkW718KZVmkeIuTpMcRjBHV6L+W7ecfOn5J+YtIkmknuAzW+lXM7EtIqqkjQ&#xA;c2O4/ZBJ25U6DLsdygQ4ufgx5gfm8g038rvzAv8AVk0yPQryGdnCPJPBJFDH/lPIy8Qvetd+1cxx&#xA;ikTVOdLUQAuw+kvzH/Jiz86WGm89Qe01fTYFt1vSnqrKgAqJELKftVIPLueuZmTDxOpwao4ydti1&#xA;+Vn5K6b5GuptSkvW1HVpozCJuHpRxxkhmCJVzVioqxPypvVxYRHddRqzkFVQZ9Po+kXF2l7PY28t&#xA;5F/d3LxI0q0/lcjkMtoOMJECrReFi7FXYq7FXyh/zkqsg/MpizVVrK3MYrWi1cU+8HMDUfU7rQf3&#xA;fxQPkO5HkL85orXUD6Vva3c2n3DtsPTl5RpISf2alXr4YIHhmyzDxMVjut9e5sHRuxV2KuxV2Kux&#xA;V2KuxVD6hp1hqVnLZahbx3dnMOMtvModGHXdWqOuAi0xkQbCUeXvIPk3y7cSXOi6TBZ3MgIadQWk&#xA;oeqh3LMqnwG2RjjiOQbJ5pz5ljP5g/kf5X85amNVlmm0/UmVUnng4lZQoopdGH2gBSoPTIZMIkbb&#xA;cGrljFcwm/lX8r/K/lvyxe+XrRJJrbU43j1KeVv3swkQxtUqFCgKxCgDb575KOIAUwyaiU5CR6PI&#xA;3/5xV1D9LEJrsQ0jnUO0TG5CV+zwHwcqbV5fR2zH/K783O/lEVy3eg/mX+T0HmXyhpei6ROtncaE&#xA;oTTvWqY2jEYjKSFQSCeCnlQ/LfLsmLiAA6OLp9VwTJPViH5V/wDOP2uaD5pttd8wXVvwsCXtbW1Z&#xA;5C8hUqC7MqBVXlXatTleLAQbLfqNbGUeGPVr80/+cftd17zTc67oF1b8L8h7m1uWeNkkChSUZVcM&#xA;rca70occuAk2F0+tjGPDLozD8tPyeg8teUNU0XV51vLjXVKaj6NRGsZjMYSMsASRzY8qD5bZZjxc&#xA;IIPVo1Gq45gjo8+T/nFXUf0uA+uQ/ofnUyLG31kpXpwPwBu1eXvTtlP5Xfns5X8oiuW71zzV+V/l&#xA;fzJ5YsvL12kkNtpkaR6bPE372ERoI1oWDBgVUBgRv898yJYgRTg49RKEjIdUo/L78j/K/k3UzqsU&#xA;02oakqskE8/ELEGFGKIo+0QaVJ6ZHHhETbPPq5ZBXIMm8w+QfJvmK4juda0mC8uYwAs7ArJQdFLo&#xA;VZlHgdsnLHE8w1QzThyKb6fp1hp1nFZWFvHa2kI4xW8KhEUeyrQZICmuUiTZRGFDsVdirsVdirsV&#xA;dirsVfIfny6Hnz85pLXTz6tvc3cOn27ruDHFxjeSo/ZqHevhmvmeKbvMI8PDZ7rZ/wD85H/lpPcH&#xA;/GelQl2jQR6zEgqeCCiXFP8AJX4X9qHxy3UY/wCIONodRXoPwTH8i/zkt9Utbbyrr8wj1WBRHp93&#xA;IaC4RRRY2J/3ao2H83z6ywZr2LDWaWjxR5PbMyXXuxV2KuxV2KuxV2KuxV2KuxV2KuxV2KuxV2Ku&#xA;xV2KuxV2KuxV2KuxV2KuxV2KuxV2KuxV4v8Ann+cltpFlceWNAuA+tTgxX9zGai1jYUZQw/3a3Tb&#xA;7PsaZjZs1bDm7DR6XiPFLkln/OOP5Zy2y/401WIpJKhTRoXFCI3FHuKf5a/CntU9xg0+P+Is9dqL&#xA;9A+L3p0SRGR1DIwKsrCoIOxBBzKdY+c/zZ/5x/urOWXXfJkLS2pJkuNJj3kiNalrcDdl/wAjqO1e&#xA;gw8uDrF2um1oPpn81H8t/wDnIq/0pYtI84JJeWkdI01JQTcxgbUmU/3gHj9r/Wxx6itinPoRLeD6&#xA;E0TXtG12wS/0i8ivbOTpLE1QD4MOqt7HfMuMgeTq5wMTRFI/CxdirsVdirsVdirsVdirsVdirsVd&#xA;irsVdirsVdirsVdirsVdirsVdirsVdiqA1vXtG0Kwe/1e8isrOPrLK1AT4KOrN7DfBKQHNlCBkaA&#xA;t89/mR/zkXqGqCTSfJyyWdrJ+7fU2BFzJXakKj+7B8ftf6uYmTUXsHaYNCBvNV/Kb8gLu9mi13zl&#xA;C0NqCJLfSZNpJTWoa4B3VP8AI6nvQdXFgveSNTrQPTD5vo1ESNFRFCooCqqigAGwAAzMdU3irsVY&#xA;B+YH5LeUfOHqXTRnTtYbf9IWwALn/i6P7Mnz2b3yrJhEve5WHVyx7cw8H1f8uPzX/Li9fU9Lac2y&#xA;ddS0xmdCg3/fxD4gvjzXj7nMU45w3Dso58WUUftZV5R/5yh1CAJb+atOF2g2N9ZUjl+bQsRGx/1W&#xA;X5ZOGpPVoy9ng/SXsXln80/IfmQKum6vD9Zbb6pOfQnr4BJOJb/Y1GZEcsTyLg5NPOHMMryxodir&#xA;sVdirsVdirsVdirsVdirsVdirsVdirsVdirsVdirsVdirFfM35peQ/LYddT1aH6ymxs4D689fAxx&#xA;8iv+yoMrlliOZbsennPkHjvm7/nKHUJxJb+VdPFoh2W/vKSS/NYVqin/AFmb5Zjz1Pc5+Ls8fxFi&#xA;2jflt+a35kXyanq0k6Wr7jUtTLKoRt6QRHcqe3BQnuMgMc57lulnxYhQ+x7v5A/Jbyh5P9O6SP8A&#xA;SOsJ/wBLG5Aqp8YY91j+e7e+ZWPCI+91ubVzybcgz7LXGdirsVdirsVdirDPNf5QeQfM5eW/01YL&#xA;16k31p+4mqerNxHBz/rqcrlijJyMeqnDkXkXmT/nFvWYC0vl3VYryPqLa7UwyfIOvNGPzC5jy0x6&#xA;FzsfaI/iDFx/yvfyAKD9JWlnF/0eWaj/AJLQrX6Mr/eQbv3OXu+4p9ov/OUnmq2Cpq+l2moIuxeI&#xA;vbSH3J/ep9yDJjUnq1T7PieRpnekf85O+RboKuoWt7p0h+0SizRD/ZI3P/hMtGpj1caXZ8xyosx0&#xA;v83Py11On1bzDaITsFuGNsa+FJxHlgyxPVolpsg6Fk1nqOn3qCSyuormMioeF1kFPGqk5MG2kxI5&#xA;ojCh2KuxV2KuxV2KuxV2KuxV2Koe81LT7FPUvbqG1TrzmkWMUHuxGAmkiJPJjOp/m5+Wum1+s+Yb&#xA;NiuxFu5uSD8oBIcgcsR1bo6bIeQLDtX/AOcnfIlqGXT7W91GQfZYIsMR/wBlI3Mf8BlZ1MW+PZ8z&#xA;zoMF1v8A5yk803AZNH0u109DsJJme5kHuP7pPvU5UdSejkw7PiOZtIGb89/Py0pqV1ZzdgPqdmwP&#xA;/ImFqfTkP3k239zi7vvLJ/Lf/OLesz8ZfMWqRWUfU21opml+RduCKfkGyyOmPUtOTtAD6Q9e8qfl&#xA;B5B8sFJbDTVnvUoRfXf7+ao6MvIcEP8AqKMyI4oxcHJqpz5lmeWOO7FXYq7FXYq7FXYq7FXYq7FX&#xA;YqkWteRfJut8jqui2d1I3WZolEv/ACNUB/xyJhE8w2QzTjyJYRq3/ONn5b3pLWq3emsakC3n5rX5&#xA;TrMafTlR08S5MdfkHOiw/Uv+cU5RVtM8wq3hHc25X/h0dv8AiOVnS9xb49o94Yzef841/mTZv6lp&#xA;LZXZU/AYJ2jf/kqkdD9OQOnkG4a/GedqP+Cf+chtH/uBq0ag1pa33qKep+zFM1fpGDgyDvT4uCXd&#xA;8mx5l/5yM0ynJdbAUr8Utm0y1G4+KSJwffHiyDvR4enP835u/wCV0fnhZgfWpJTRqEz6fElT/KeM&#xA;SeHzx8aa/lcJ5fevH/OR/wCZ9u5WcWZan2JbYqR7/CyHH8xJfyOM967/AKGa/Mb/AH1p/wDyIk/6&#xA;q4fzMl/IY/N3/QzX5jf760//AJESf9VcfzMl/IY/Nb/0Md+aFy/G3W0DAVKxWxbbxNWc4/mJL+Rx&#xA;jva/5XN+eV5/vI8w5t8PoafG+/8AKOUUmDxplfyuEc/vWnzD/wA5HamPhXW+LVo8do0C9d6MkUY/&#xA;HHiyHvXg04/m/Nx8if8AOQusGlwNUkUnf61fhFFT/LJMNvkMeDIe9fGwR7vkr2f/ADjT+Y943qXk&#xA;9jalt3M07yP0H++0kB+/CNPIoOvxjlbJtN/5xTNQ2p+Ydv2ora3/AFSO/wDxpkxpe8tUu0e4Mv0n&#xA;/nG38trIhrqO71Jh1FzOVWvygEP68sGniGiWvyHlszfRfIvk7ROJ0rRrO1kXpMkKGXbxkYFz9+Wi&#xA;AHIONPNOXMlPMk1uxV2KuxV2KuxV2Kv/2Q==</xmpGImg:image>
               </rdf:li>
            </rdf:Alt>
         </xmp:Thumbnails>
      </rdf:Description>
      <rdf:Description rdf:about=""
            xmlns:xmpMM="http://ns.adobe.com/xap/1.0/mm/"
            xmlns:stRef="http://ns.adobe.com/xap/1.0/sType/ResourceRef#"
            xmlns:stEvt="http://ns.adobe.com/xap/1.0/sType/ResourceEvent#">
         <xmpMM:InstanceID>xmp.iid:A619663E131EE911BF14AFF269EE0F07</xmpMM:InstanceID>
         <xmpMM:DocumentID>xmp.did:A619663E131EE911BF14AFF269EE0F07</xmpMM:DocumentID>
         <xmpMM:OriginalDocumentID>uuid:5D20892493BFDB11914A8590D31508C8</xmpMM:OriginalDocumentID>
         <xmpMM:RenditionClass>proof:pdf</xmpMM:RenditionClass>
         <xmpMM:DerivedFrom rdf:parseType="Resource">
            <stRef:instanceID>xmp.iid:6EF2A5AF0F1EE911A5C7A4B5E8B3C9BD</stRef:instanceID>
            <stRef:documentID>xmp.did:6EF2A5AF0F1EE911A5C7A4B5E8B3C9BD</stRef:documentID>
            <stRef:originalDocumentID>uuid:5D20892493BFDB11914A8590D31508C8</stRef:originalDocumentID>
            <stRef:renditionClass>proof:pdf</stRef:renditionClass>
         </xmpMM:DerivedFrom>
         <xmpMM:History>
            <rdf:Seq>
               <rdf:li rdf:parseType="Resource">
                  <stEvt:action>saved</stEvt:action>
                  <stEvt:instanceID>xmp.iid:6CF2A5AF0F1EE911A5C7A4B5E8B3C9BD</stEvt:instanceID>
                  <stEvt:when>2019-01-22T12:03:53+05:30</stEvt:when>
                  <stEvt:softwareAgent>Adobe Illustrator CS6 (Windows)</stEvt:softwareAgent>
                  <stEvt:changed>/</stEvt:changed>
               </rdf:li>
               <rdf:li rdf:parseType="Resource">
                  <stEvt:action>saved</stEvt:action>
                  <stEvt:instanceID>xmp.iid:A619663E131EE911BF14AFF269EE0F07</stEvt:instanceID>
                  <stEvt:when>2019-01-22T12:30:22+05:30</stEvt:when>
                  <stEvt:softwareAgent>Adobe Illustrator CS6 (Windows)</stEvt:softwareAgent>
                  <stEvt:changed>/</stEvt:changed>
               </rdf:li>
            </rdf:Seq>
         </xmpMM:History>
      </rdf:Description>
      <rdf:Description rdf:about=""
            xmlns:illustrator="http://ns.adobe.com/illustrator/1.0/">
         <illustrator:StartupProfile>Print</illustrator:StartupProfile>
      </rdf:Description>
      <rdf:Description rdf:about=""
            xmlns:xmpTPg="http://ns.adobe.com/xap/1.0/t/pg/"
            xmlns:stDim="http://ns.adobe.com/xap/1.0/sType/Dimensions#"
            xmlns:xmpG="http://ns.adobe.com/xap/1.0/g/">
         <xmpTPg:HasVisibleOverprint>False</xmpTPg:HasVisibleOverprint>
         <xmpTPg:HasVisibleTransparency>False</xmpTPg:HasVisibleTransparency>
         <xmpTPg:NPages>1</xmpTPg:NPages>
         <xmpTPg:MaxPageSize rdf:parseType="Resource">
            <stDim:w>120.000000</stDim:w>
            <stDim:h>120.000000</stDim:h>
            <stDim:unit>Pixels</stDim:unit>
         </xmpTPg:MaxPageSize>
         <xmpTPg:PlateNames>
            <rdf:Seq>
               <rdf:li>Cyan</rdf:li>
               <rdf:li>Magenta</rdf:li>
               <rdf:li>Yellow</rdf:li>
               <rdf:li>Black</rdf:li>
            </rdf:Seq>
         </xmpTPg:PlateNames>
         <xmpTPg:SwatchGroups>
            <rdf:Seq>
               <rdf:li rdf:parseType="Resource">
                  <xmpG:groupName>Default Swatch Group</xmpG:groupName>
                  <xmpG:groupType>0</xmpG:groupType>
               </rdf:li>
            </rdf:Seq>
         </xmpTPg:SwatchGroups>
      </rdf:Description>
      <rdf:Description rdf:about=""
            xmlns:pdf="http://ns.adobe.com/pdf/1.3/">
         <pdf:Producer>Adobe PDF library 10.01</pdf:Producer>
      </rdf:Description>
   </rdf:RDF>
</x:xmpmeta>
                                                                                                    
                                                                                                    
                                                                                                    
                                                                                                    
                                                                                                    
                                                                                                    
                                                                                                    
                                                                                                    
                                                                                                    
                                                                                                    
                                                                                                    
                                                                                                    
                                                                                                    
                                                                                                    
                                                                                                    
                                                                                                    
                                                                                                    
                                                                                                    
                                                                                                    
                                                                                                    
                           
<?xpacket end="w"?>
	</metadata>
<g>
	<path fill="#ECECEC" d="M-18.286,17.976c0.313,0.252,0.627,0.508,0.939,0.762c-0.022,0.032-0.044,0.064-0.066,0.097
		c-0.338-0.198-0.673-0.396-1.01-0.594C-18.377,18.15-18.333,18.063-18.286,17.976z"/>
	<path fill="#FAFAFA" d="M46.953-8.464c0.422,1.277,0.979,2.514,1.127,3.867c0.045,0.39,0.082,0.777,0.136,1.315
		c-2.056-1.384-3.677-2.981-4.952-5.1c-0.178,2-0.689,3.73-1.962,5.278c-0.968-1.875-1.591-3.759-1.61-5.873
		c-1.293,1.292-2.782,2.096-4.496,2.535c-0.467,0.12-0.529-0.001-0.465-0.415c0.23-1.487,0.723-2.866,1.666-4.075
		c0.156-0.201,0.307-0.404,0.534-0.705c-2.229,0.235-4.237-0.232-6.306-0.991c1.446-1.35,3.139-2.016,5.128-2.377
		c-2.153-1.069-3.88-2.453-5.418-4.285c1.772-0.115,3.339,0.219,4.896,0.654c0.048,0.016,0.135,0.05,0.139,0.041
		c0.04-0.079-0.03-0.081-0.082-0.095c-0.455-0.893-1.105-1.678-1.504-2.606c-0.336-0.778-0.651-1.562-0.841-2.416
		c3.448,1.282,6.93,4.363,8.3,9.194c1.662-1.996,2.584-4.13,2.283-6.771c0.734,0.319,1.398,0.6,2.059,0.9
		c0.323,0.146,0.164,0.423,0.113,0.634c-0.502,2.076-1.555,3.828-3.247,5.201c-0.131,0.107-0.318,0.167-0.37,0.413
		c4.311,0.898,7.414,3.362,9.647,7.125c-1.528-0.235-2.874-0.669-4.179-1.238C47.358-8.335,47.208-8.542,46.953-8.464
		c-0.003-0.035-0.01-0.067-0.014-0.1c-0.027,0.016-0.057,0.033-0.085,0.047C46.887-8.499,46.92-8.482,46.953-8.464z"/>
	<path fill="#3C3C3C" d="M67.768,10.32c0.107,0.553-0.246,0.946-0.607,1.297c-2.273,2.22-4.561,4.423-6.848,6.63
		c-0.881,0.851-1.547,0.855-2.406,0.019c-1.093-1.061-2.154-2.16-3.284-3.181c-0.665-0.598-0.757-1.251-0.464-1.995
		c0.185-0.459,0.107-0.826-0.141-1.226c-0.512-0.824-0.448-1.547,0.253-2.25c1.338-1.344,2.704-2.665,4.077-3.979
		c0.625-0.6,1.42-0.693,2.219-0.255c0.465,0.255,0.877,0.298,1.391,0.125c0.762-0.254,1.457-0.146,2.064,0.494
		c1.006,1.055,2.076,2.043,3.115,3.067C67.486,9.41,67.84,9.754,67.768,10.32z M65.656,11.681c0.559,0.115,0.777-0.348,1.084-0.636
		c0.523-0.493,0.48-0.89-0.021-1.384c-0.924-0.908-1.867-1.796-2.758-2.737c-0.422-0.444-0.863-1.118-1.674-0.798
		c-0.773,0.308-1.453,0.216-2.148-0.206c-0.379-0.226-0.814-0.218-1.169,0.125c-1.359,1.31-2.716,2.625-4.085,3.927
		c-0.533,0.508-0.582,1.093-0.211,1.653c0.387,0.581,0.384,1.128,0.141,1.731c-0.195,0.493-0.1,0.901,0.316,1.292
		c1.094,1.023,2.163,2.074,3.219,3.136c0.344,0.347,0.795,0.511,1.133,0.257c0.404-0.307,1.033-0.518,0.93-1.271
		c-0.109-0.777-0.135-1.591,0.576-2.174c0.512-0.422,0.922-0.94,1.414-1.374c0.717-0.638,1.242-1.553,2.396-1.607
		C65.098,11.604,65.367,11.743,65.656,11.681z"/>
	<path fill="#3B3B3B" d="M16.605,8.357c-0.02,0.345-0.494,0.556-0.858,0.404c-0.244-0.103-0.477-0.229-0.711-0.351
		c-0.339-0.179-0.54,0.021-0.733,0.248c-0.225,0.27,0.019,0.415,0.15,0.611c0.195,0.29,0.898,0.473,0.344,0.961
		c-0.497,0.438-0.686-0.177-0.933-0.396c-0.643-0.566-1.23-1.191-1.856-1.78c-0.265-0.251-0.279-0.458-0.003-0.707
		c0.314-0.279,0.604-0.583,0.902-0.875c0.763-0.738,1.8-0.628,2.088,0.381c0.214,0.756,0.723,0.922,1.261,1.199
		C16.403,8.129,16.608,8.162,16.605,8.357z M13.828,6.772c-0.204,0-0.987,0.735-0.929,0.874c0.117,0.283,0.366,0.638,0.623,0.571
		c0.381-0.096,0.748-0.403,0.787-0.851C14.338,7.058,14.066,6.892,13.828,6.772z"/>
	<path fill="#3B3B3B" d="M13.775,10.827c-0.031,0.479-0.349,0.783-0.677,1.086c-0.245,0.221-0.477,0.459-0.715,0.688
		c-0.184,0.178-0.393,0.216-0.595,0.041c-0.236-0.205-0.106-0.381,0.067-0.551c0.27-0.263,0.528-0.531,0.805-0.785
		c0.25-0.229,0.216-0.464,0.023-0.69c-0.208-0.249-0.468-0.236-0.709-0.052c-0.208,0.163-0.397,0.352-0.587,0.533
		c-0.159,0.156-0.311,0.244-0.511,0.051c-0.197-0.187-0.224-0.364-0.022-0.559c0.156-0.156,0.314-0.31,0.466-0.468
		c0.208-0.212,0.314-0.461,0.059-0.683c-0.237-0.206-0.479-0.032-0.654,0.127c-0.259,0.236-0.478,0.512-0.715,0.773
		c-0.177,0.192-0.356,0.226-0.574,0.035c-0.231-0.204-0.166-0.362,0.028-0.54c0.353-0.332,0.679-0.695,1.051-1.006
		c0.725-0.605,1.585-0.393,1.909,0.485c0.095,0.255,0.25,0.322,0.455,0.408C13.412,9.948,13.795,10.43,13.775,10.827z"/>
	<path fill="#3B3B3B" d="M2.281,18.206c0.118-0.239,0.022-0.53-0.118-0.843c-0.106-0.237,0.072-0.464,0.247-0.638
		c0.514-0.516,1.037-1.022,1.561-1.528c0.08-0.075,0.209-0.199,0.266-0.179c0.634,0.238,1.41-0.128,1.963,0.451
		c0.35,0.367,0.723,0.713,1.086,1.067c0.347,0.336,0.377,0.673,0.021,1.02c-0.839,0.814-1.673,1.635-2.512,2.452
		c-0.356,0.348-0.723,0.408-1.103,0.031c-0.389-0.388-0.789-0.767-1.167-1.165C2.374,18.72,2.224,18.541,2.281,18.206z
		 M2.636,18.131c-0.108,0.229-0.084,0.335,0,0.417c0.437,0.433,0.85,0.901,1.333,1.279c0.357,0.279,0.621,0.067,0.702-0.336
		c0.183-0.929,1.116-1.858,2.035-2.022c0.276-0.048,0.538-0.13,0.5-0.483c-0.031-0.294-1.369-1.549-1.661-1.485
		c-0.492,0.108-1.003-0.346-1.416-0.027c-0.558,0.427-1.025,0.965-1.524,1.463c-0.137,0.137-0.13,0.327-0.075,0.495
		C2.619,17.7,2.725,17.966,2.636,18.131z"/>
	<path fill="#3B3B3B" d="M17.118,7.893c-0.165,0.01-0.259-0.083-0.353-0.176c-0.646-0.633-1.297-1.262-1.934-1.898
		c-0.415-0.409-0.435-0.821,0.015-1.236c0.373-0.343,0.725-0.708,1.09-1.061c0.144-0.139,0.312-0.299,0.506-0.093
		c0.182,0.188,0.252,0.409,0.015,0.629c-0.257,0.24-0.502,0.494-0.758,0.737c-0.203,0.196-0.365,0.353-0.083,0.645
		c0.293,0.304,0.5,0.177,0.725-0.036c0.209-0.193,0.406-0.399,0.602-0.607c0.187-0.198,0.362-0.214,0.573-0.025
		c0.224,0.205,0.136,0.38-0.02,0.563c-0.013,0.018-0.033,0.031-0.046,0.047c-0.839,0.864-0.839,0.865-0.095,1.731
		c0.116,0.137,0.25,0.262,0.146,0.459C17.419,7.729,17.288,7.847,17.118,7.893z"/>
	<path fill="#3B3B3B" d="M8.778,15.986c-0.098-0.083-0.221-0.172-0.329-0.275c-0.492-0.473-0.978-0.951-1.466-1.423
		c-0.188-0.178-0.355-0.376-0.662-0.394c-0.242-0.014-0.43-0.193-0.434-0.424c-0.003-0.261,0.239-0.407,0.437-0.538
		c0.222-0.147,0.368,0.025,0.512,0.165c0.723,0.704,1.446,1.41,2.171,2.113c0.144,0.143,0.304,0.284,0.162,0.502
		C9.087,15.834,8.991,15.963,8.778,15.986z"/>
	<path fill="#0A0A0A" d="M17.077,2.135c0.398,0.033,0.621,0.228,0.605,0.625c-0.01,0.286-0.144,0.536-0.475,0.502
		c-0.382-0.038-0.751-0.154-0.728-0.658C16.494,2.217,16.782,2.178,17.077,2.135z M16.847,2.93
		c-0.007-0.017-0.018-0.035-0.026-0.051c-0.014,0.015-0.035,0.029-0.036,0.044c0,0.015,0.016,0.034,0.026,0.049
		C16.823,2.959,16.835,2.943,16.847,2.93z"/>
	<path fill="#ECECEC" d="M29.14-20.13c0.631-0.137,1.083-0.121,1.538-0.034C30.225-20.148,29.788-19.893,29.14-20.13z"/>
	<path fill="#FBFBFB" d="M38.066-6.656c0.074-0.06,0.152-0.117,0.232-0.175c0.023,0.029,0.047,0.056,0.073,0.082
		c-0.06,0.067-0.124,0.132-0.19,0.199C38.145-6.585,38.104-6.622,38.066-6.656z"/>
	<path fill="#FBFBFB" d="M38.299-6.831c0.05-0.008,0.139-0.036,0.154-0.018c0.045,0.07-0.021,0.089-0.081,0.1
		C38.346-6.774,38.322-6.803,38.299-6.831z"/>
	<path fill="#6C2A1A" d="M50.522,74.094c-1.272,0.018-2.36-0.994-2.347-2.185c0.014-1.166,1.111-2.189,2.369-2.204
		c1.26-0.012,2.371,0.989,2.393,2.168C52.967,73.046,51.847,74.081,50.522,74.094z"/>
	<path fill="#6C2A1A" d="M19.513,74.094c-1.266,0.027-2.395-0.955-2.447-2.126c-0.051-1.175,1.073-2.253,2.362-2.263
		c1.251-0.009,2.357,0.992,2.405,2.173C21.877,73.051,20.814,74.067,19.513,74.094z"/>
	<path fill="#6C2A1A" d="M-7.18,66.789c-0.002-1.195,1.058-2.167,2.36-2.162c1.272,0.007,2.368,1.063,2.354,2.284
		c-0.012,1.168-1.016,2.105-2.262,2.114C-6.079,69.028-7.175,68.03-7.18,66.789z"/>
	<path fill="#6C2A1A" d="M3.48,68.552c0.005,1.2-0.958,2.138-2.213,2.147c-1.357,0.017-2.493-0.976-2.506-2.191
		c-0.013-1.172,1.073-2.194,2.344-2.206C2.382,66.288,3.472,67.321,3.48,68.552z"/>
	<path fill="#6C2A1A" d="M77.188,66.771c0.014,1.21-1.053,2.225-2.367,2.255c-1.287,0.028-2.32-0.899-2.348-2.098
		c-0.027-1.251,1.072-2.304,2.396-2.304C76.131,64.626,77.17,65.594,77.188,66.771z"/>
	<path fill="#6C2A1A" d="M13.254,68.881c1.346-0.008,2.404,0.965,2.404,2.207c0,1.193-1.012,2.139-2.298,2.149
		c-1.332,0.01-2.429-0.966-2.446-2.177C10.895,69.857,11.934,68.888,13.254,68.881z"/>
	<path fill="#6C2A1A" d="M56.707,73.24c-1.33,0.004-2.359-0.938-2.354-2.156c0.002-1.255,1.034-2.199,2.407-2.196
		c1.311,0.004,2.357,0.981,2.34,2.184C59.084,72.239,57.987,73.233,56.707,73.24z"/>
	<path fill="#6C2A1A" d="M31.886,70.579c1.291-0.004,2.36,0.976,2.369,2.169c0.011,1.209-1.037,2.188-2.336,2.193
		c-1.299,0.007-2.395-0.963-2.412-2.133C29.486,71.593,30.561,70.585,31.886,70.579z"/>
	<path fill="#6C2A1A" d="M62.787,72.087c-1.344,0.005-2.295-0.867-2.299-2.107c-0.008-1.251,1.039-2.252,2.352-2.255
		c1.283-0.004,2.365,0.992,2.369,2.178C65.211,71.114,64.141,72.08,62.787,72.087z"/>
	<path fill="#6C2A1A" d="M68.883,66.302c1.219-0.019,2.33,0.978,2.365,2.122c0.035,1.229-1.076,2.271-2.422,2.272
		c-1.295,0.003-2.266-0.871-2.293-2.062C66.504,67.357,67.547,66.32,68.883,66.302z"/>
	<path fill="#6C2A1A" d="M-8.346,64.964c-0.008,1.177-1.006,2.107-2.259,2.109c-1.296,0.002-2.431-1.028-2.438-2.206
		c-0.005-1.229,1.015-2.172,2.349-2.168C-9.388,62.702-8.34,63.713-8.346,64.964z"/>
	<path fill="#6C2A1A" d="M25.693,70.308c1.353,0.023,2.367,1.004,2.33,2.26c-0.033,1.2-1.091,2.112-2.431,2.1
		c-1.236-0.017-2.316-1.038-2.296-2.173C23.315,71.213,24.335,70.286,25.693,70.308z"/>
	<path fill="#6C2A1A" d="M38.111,74.943c-1.313,0.012-2.353-0.949-2.35-2.168c0.002-1.229,1.025-2.188,2.332-2.196
		c1.326-0.006,2.416,0.994,2.406,2.209C40.494,73.96,39.412,74.935,38.111,74.943z"/>
	<path fill="#6C2A1A" d="M46.713,72.471c-0.037,1.275-1.112,2.231-2.479,2.196c-1.256-0.037-2.27-1.031-2.252-2.21
		c0.021-1.245,1.087-2.182,2.445-2.149C45.718,70.341,46.746,71.315,46.713,72.471z"/>
	<path fill="#6C2A1A" d="M7.261,72.084c-1.357,0.012-2.445-0.939-2.461-2.149c-0.016-1.181,1.061-2.203,2.328-2.212
		c1.32-0.005,2.374,0.971,2.395,2.22C9.546,71.182,8.6,72.075,7.261,72.084z"/>
	<path fill="#6C2A1A" d="M-16.37,64.847c-1.322-0.005-2.401-0.996-2.417-2.217c-0.013-1.158,1.053-2.173,2.292-2.176
		c1.312-0.004,2.411,1.05,2.399,2.307C-14.105,63.938-15.105,64.852-16.37,64.847z"/>
	<path fill="#6C2A1A" d="M86.338,64.847c-1.26-0.003-2.234-0.928-2.23-2.117c0.006-1.248,1.135-2.311,2.432-2.282
		c1.201,0.023,2.246,1.018,2.248,2.156C88.799,63.842,87.695,64.85,86.338,64.847z"/>
	<path fill="#6C2A1A" d="M80.621,67.075c-1.305-0.011-2.281-0.948-2.264-2.172c0.018-1.215,1.063-2.199,2.338-2.203
		c1.33-0.003,2.371,0.956,2.355,2.165C83.035,66.067,81.914,67.085,80.621,67.075z"/>
	<path fill="#6C2A1A" d="M53.933,68.114c0-0.087,0-0.174,0-0.259c0.581,0.09,0.694-0.621,1.202-0.66l0.01,0.01
		c-0.206,0.499-0.561,0.853-1.074,1.047c-0.046,0-0.096,0-0.141-0.004C53.931,68.205,53.931,68.158,53.933,68.114z"/>
	<path fill="#6C2A1A" d="M38.911,5.058c0.03,0.307-0.147,0.488-0.372,0.658c-0.676,0.512-1.465,0.747-2.289,0.829
		c-0.6,0.061-0.807-0.366-0.869-0.864c-0.062-0.476,0.151-0.746,0.658-0.783c0.565-0.041,1.082-0.239,1.557-0.538
		c0.258-0.164,0.492-0.422,0.835-0.195C38.75,4.379,38.852,4.713,38.911,5.058z"/>
	<path fill="#6C2A1A" d="M31.862,6.763c-0.002,0.291-0.172,0.511-0.408,0.693c-0.626,0.478-1.335,0.768-2.119,0.895
		c-0.604,0.1-0.782-0.312-0.902-0.741c-0.125-0.444,0.036-0.775,0.539-0.866c0.557-0.101,1.068-0.294,1.517-0.638
		C30.722,5.93,30.9,5.59,31.276,5.771C31.675,5.964,31.792,6.345,31.862,6.763z"/>
	<path fill="#6C2A1A" d="M30.043,1.659c0.012-0.31,0.156-0.525,0.451-0.663c0.631-0.296,1.208-0.65,1.57-1.276
		c0.163-0.283,0.432-0.262,0.69-0.08c0.453,0.317,0.595,0.996,0.265,1.439c-0.453,0.608-1.027,1.092-1.739,1.399
		C30.599,2.774,30.049,2.405,30.043,1.659z"/>
	<path fill="#6C2A1A" d="M39.186-1.069c0.025,0.178-0.037,0.355-0.164,0.521c-0.488,0.627-1.068,1.148-1.81,1.5
		c-0.432,0.205-0.725,0.113-0.933-0.286c-0.207-0.402-0.389-0.852,0.107-1.149c0.649-0.388,1.279-0.764,1.681-1.43
		c0.178-0.288,0.469-0.19,0.698-0.027C39.055-1.736,39.176-1.438,39.186-1.069z"/>
	<path fill="#6C2A1A" d="M23.315,4.581c0.019-0.74,1.601-2.266,2.29-2.261c0.36,0.001,0.561,0.249,0.666,0.555
		c0.115,0.337,0.228,0.743-0.152,0.947c-0.691,0.367-1.218,0.871-1.651,1.493c-0.138,0.195-0.322,0.293-0.574,0.154
		C23.501,5.256,23.342,4.922,23.315,4.581z"/>
	<path fill="#6C2A1A" d="M25.961-2.84c0.259-0.97,0.765-1.842,1.673-2.429c0.335-0.214,0.658,0.028,0.854,0.3
		c0.234,0.328,0.411,0.756,0.033,1.059c-0.605,0.48-1.064,1.029-1.313,1.754c-0.093,0.269-0.342,0.332-0.604,0.255
		C26.164-2.035,25.993-2.365,25.961-2.84z"/>
	<path fill="#6C2A1A" d="M42.377,1.478c-0.039-0.273,0.105-0.454,0.308-0.612c0.53-0.411,0.981-0.88,1.233-1.51
		c0.183-0.458,0.498-0.453,0.836-0.163c0.395,0.338,0.51,0.758,0.295,1.233c-0.295,0.646-0.734,1.191-1.258,1.673
		c-0.25,0.231-0.521,0.455-0.887,0.293C42.51,2.22,42.425,1.852,42.377,1.478z"/>
	<path fill="#6C2A1A" d="M26.877-9.682c0.286-0.96,0.736-1.841,1.631-2.438c0.302-0.202,0.559-0.041,0.751,0.193
		c0.279,0.342,0.49,0.785,0.14,1.12c-0.571,0.543-1.023,1.136-1.316,1.854c-0.089,0.218-0.281,0.371-0.528,0.27
		C27.127-8.855,26.93-9.212,26.877-9.682z"/>
	<path fill="#6C2A1A" d="M21.853-7.488c0.103-0.809,0.458-1.659,1.099-2.396c0.209-0.243,0.461-0.296,0.699-0.088
		c0.35,0.303,0.551,0.687,0.398,1.16c-0.045,0.139-0.151,0.264-0.245,0.382c-0.338,0.418-0.549,0.888-0.659,1.411
		c-0.064,0.301-0.058,0.708-0.552,0.67c-0.49-0.036-0.666-0.38-0.737-0.795C21.844-7.208,21.853-7.275,21.853-7.488z"/>
	<path fill="#6C2A1A" d="M22.963-1.46c0,0.216-0.031,0.429-0.187,0.605c-0.386,0.438-0.574,0.961-0.687,1.524
		c-0.057,0.28-0.095,0.64-0.549,0.589c-0.444-0.047-0.74-0.342-0.724-0.723c0.041-1.058,0.354-2.042,1.114-2.846
		c0.162-0.169,0.356-0.197,0.542-0.09C22.833-2.193,22.958-1.853,22.963-1.46z"/>
	<path fill="#020202" d="M46.953-8.464c-0.033-0.018-0.066-0.035-0.099-0.051c0.028-0.014,0.058-0.031,0.085-0.047
		C46.943-8.53,46.95-8.497,46.953-8.464L46.953-8.464z"/>
	<path fill="#020202" d="M35.287-18.689c0.053,0.013,0.123,0.017,0.082,0.095c-0.004,0.007-0.091-0.027-0.139-0.041
		C35.249-18.654,35.27-18.671,35.287-18.689z"/>
	<path fill="#020202" d="M65.656,11.681c-0.289,0.061-0.557-0.078-0.857-0.064c-1.154,0.055-1.678,0.97-2.395,1.607
		c-0.494,0.434-0.902,0.953-1.414,1.374c-0.711,0.582-0.685,1.395-0.576,2.174c0.105,0.754-0.523,0.965-0.93,1.271
		c-0.339,0.253-0.789,0.089-1.133-0.258c-1.056-1.061-2.124-2.111-3.219-3.135c-0.415-0.392-0.512-0.799-0.314-1.293
		c0.24-0.604,0.244-1.148-0.141-1.73c-0.372-0.562-0.323-1.146,0.211-1.653c1.365-1.302,2.722-2.618,4.081-3.927
		c0.358-0.344,0.792-0.353,1.171-0.125c0.695,0.424,1.373,0.514,2.148,0.206c0.813-0.321,1.25,0.355,1.672,0.798
		c0.893,0.941,1.836,1.829,2.76,2.738c0.502,0.493,0.543,0.89,0.02,1.383C66.434,11.335,66.215,11.796,65.656,11.681z M59.951,8.803
		c-1.497-0.007-2.467,0.95-2.555,2.342c-0.084,1.333,1.326,2.528,2.449,2.519c1.385-0.016,2.514-1.075,2.549-2.409
		C62.43,9.88,61.18,8.628,59.951,8.803z"/>
	<path fill="#070707" d="M13.828,6.772c0.238,0.12,0.51,0.286,0.48,0.594c-0.04,0.448-0.409,0.754-0.787,0.851
		c-0.257,0.067-0.505-0.288-0.623-0.571C12.841,7.505,13.625,6.771,13.828,6.772z"/>
	<path fill="#020202" d="M16.847,2.93c-0.012,0.013-0.024,0.029-0.036,0.042c-0.01-0.017-0.026-0.036-0.026-0.049
		c0.001-0.015,0.022-0.031,0.036-0.044C16.828,2.896,16.839,2.913,16.847,2.93z"/>
	<path fill="#6C2A1A" d="M53.933,68.114c-0.002,0.042-0.002,0.091-0.003,0.134c-0.187-0.036-0.367,0.218-0.59-0.03
		C53.522,68.049,53.743,68.149,53.933,68.114z"/>
	<path fill="#3E3E3E" d="M59.951,8.803c1.232-0.174,2.479,1.077,2.443,2.45c-0.035,1.333-1.168,2.393-2.549,2.408
		c-1.122,0.011-2.533-1.185-2.449-2.519C57.483,9.752,58.454,8.796,59.951,8.803z"/>
	<path fill="#3C3C3C" d="M4.511,18.25c-0.558,0.009-0.908-0.327-0.92-0.887C3.58,16.9,4.036,16.433,4.509,16.42
		c0.461-0.011,0.955,0.45,0.966,0.902C5.487,17.891,5.12,18.242,4.511,18.25z"/>
	<path fill="#6C2A1A" d="M94.998,12.551c0-0.248,0-0.494,0-0.834c-0.096,0.134-0.143,0.179-0.168,0.232
		c-0.037,0.073-0.066,0.153-0.078,0.234c-0.148,1.303-0.682,2.465-1.354,3.575c-0.074,0.119-0.164,0.224-0.309,0.311
		c-3.717,2.21-7.479,4.337-11.279,6.395c-1.307,0.708-2.574,1.49-3.971,2.023c-1.699,0.647-3.398,1.302-5.109,1.928
		c-3.064,1.121-6.035,2.472-9.277,3.11c-5.049,0.991-10.148,1.547-15.271,1.964c-7.537,0.612-15.087,0.702-22.642,0.465
		c-4.896-0.155-9.771-0.576-14.615-1.312c-1.63-0.247-3.306-0.403-4.831-1.005c-2.599-1.019-5.124-2.21-7.807-3.382
		c0.28-0.024,0.41-0.045,0.539-0.038c0.108,0.005,0.216,0.041,0.322,0.072c4.303,1.251,8.685,2.151,13.118,2.853
		c6.476,1.023,12.99,1.562,19.545,1.665c6.779,0.107,13.543-0.104,20.282-0.892c4.833-0.567,9.636-1.322,14.366-2.457
		c5.598-1.341,11.063-3.057,16.156-5.739c2.928-1.541,5.68-3.329,7.76-5.916c2.77-3.452,2.982-6.987,0.141-10.65
		C88.576,2.649,86,0.89,83.234-0.617C77.5-3.742,71.297-5.607,64.936-7.038c-4.355-0.979-8.765-1.637-13.201-2.167
		c-0.394-0.046-0.646-0.206-0.879-0.498c-0.861-1.096-1.877-2.038-3.02-2.857c-1.23-0.882-2.6-1.484-4.04-1.978
		c0.04-0.088,0.058-0.15,0.097-0.201c0.138-0.173,0.278-0.341,0.426-0.506c1.285-1.462,1.985-3.183,2.344-5.051
		c0.039-0.214,0.141-0.479-0.191-0.616c-1.334-0.56-2.664-1.129-4.123-1.749c0.646,2.29,0.537,4.373-0.84,6.349
		c-0.877-2.14-2.115-3.965-3.832-5.473c-1.668-1.459-4.341-2.946-5.844-3.214c0.131,1.066,0.406,2.104,0.809,3.173
		c-0.342-0.084-0.576-0.147-0.814-0.201c-2.014-0.453-3.917-0.223-5.612,0.988c-1.916,1.366-3.434,3.108-4.75,5.019
		c-1.371,1.995-2.5,4.116-3.339,6.377c-0.098,0.262-0.172,0.494-0.561,0.54c-4.011,0.475-8,1.087-11.946,1.955
		C-0.95-5.71-7.353-3.815-13.267-0.595c-2.829,1.539-5.448,3.356-7.394,5.938c-2.114,2.806-2.56,5.84-0.732,8.979
		c0.818,1.403,1.934,2.543,3.103,3.654c0.314,0.252,0.627,0.508,0.939,0.762c-0.022,0.032-0.044,0.064-0.067,0.098
		c-0.337-0.199-0.673-0.396-1.009-0.595c-1.5-0.691-2.916-1.536-4.34-2.353c-0.13,0.19,0.02,0.391-0.187,0.545
		c-0.227-0.361-0.461-0.699-0.667-1.056c-0.646-1.121-1.01-2.342-1.372-3.575c0,0.148,0,0.296,0,0.443
		c0,4.644-0.001,9.287-0.001,13.932c0,7.09,0.001,14.178,0.001,21.268c0.002,8.248,0,16.495,0.002,24.743
		c0,0.987,0.181,1.946,0.483,2.888c0.972,3.015,3.041,5.244,5.484,7.177c2.897,2.293,6.18,3.957,9.597,5.38
		c5.145,2.143,10.508,3.603,15.976,4.706c6.243,1.261,12.557,2.023,18.919,2.386c6.976,0.398,13.941,0.371,20.916-0.134
		c4.973-0.365,9.906-0.943,14.811-1.839c8.037-1.459,15.855-3.561,23.07-7.419c3.492-1.868,6.678-4.116,8.895-7.453
		c1.17-1.758,1.83-3.675,1.832-5.772c0.012-8.855,0.006-17.711,0.006-26.567C95,34.54,95,23.545,94.998,12.551z M35.23-18.635
		c0.019-0.019,0.038-0.036,0.057-0.054c-0.455-0.893-1.105-1.678-1.504-2.606c-0.336-0.778-0.651-1.562-0.841-2.416
		c3.448,1.282,6.93,4.363,8.3,9.194c1.662-1.996,2.584-4.13,2.283-6.771c0.734,0.319,1.398,0.6,2.059,0.9
		c0.323,0.146,0.164,0.423,0.113,0.634c-0.502,2.076-1.555,3.828-3.247,5.201c-0.131,0.107-0.318,0.167-0.37,0.413
		c4.311,0.898,7.414,3.362,9.647,7.125c-1.528-0.235-2.874-0.669-4.179-1.238c-0.19-0.084-0.341-0.29-0.596-0.214L46.95-8.466
		c0.425,1.277,0.979,2.515,1.128,3.867c0.045,0.389,0.08,0.777,0.136,1.315c-2.054-1.384-3.678-2.98-4.952-5.1
		c-0.176,2-0.689,3.731-1.963,5.278c-0.967-1.875-1.59-3.759-1.609-5.873c-1.294,1.292-2.782,2.096-4.496,2.536
		c-0.467,0.12-0.528-0.002-0.465-0.416c0.23-1.486,0.723-2.866,1.665-4.075c0.157-0.201,0.308-0.405,0.536-0.705
		c-2.23,0.235-4.238-0.233-6.307-0.991c1.446-1.35,3.139-2.015,5.129-2.377c-2.153-1.07-3.881-2.453-5.418-4.286
		C32.107-19.404,33.674-19.07,35.23-18.635z M30.677-20.165c-0.455,0.016-0.89,0.27-1.538,0.034
		C29.771-20.265,30.223-20.251,30.677-20.165z M19.302-6.786c1.266-4.096,3.216-7.827,6.229-10.976
		c0.777-0.811,1.6-1.58,2.638-2.088c0.365-0.178,0.605-0.118,0.834,0.18c0.419,0.536,0.847,1.066,1.298,1.634
		c-0.662,0.379-1.226,0.89-1.685,1.513c-0.23,0.312-0.292,0.647-0.161,0.988c0.108,0.286,0.312,0.555,0.631,0.634
		c0.329,0.079,0.454-0.221,0.594-0.434c0.418-0.645,1.098-0.998,1.682-1.46c0.218-0.171,0.322,0.048,0.417,0.134
		c0.52,0.481,1.107,0.879,1.729,1.34c-1.625,0.703-3.113,1.536-4.249,2.907c0.942,0.517,1.932,0.892,2.958,1.165
		c0.341,0.091,0.569,0.146,0.521,0.567c-0.033,0.262,0.144,0.496,0.35,0.677c0.361,0.319,0.705,0.356,0.86-0.162
		c0.19-0.646,0.577-0.8,1.228-0.581c-0.234,0.72-0.676,1.361-0.873,2.097c-0.146,0.547-0.333,1.083-0.393,1.649
		c-0.027,0.249-0.01,0.532-0.408,0.55c-0.084,0.004-0.189,0.176-0.234,0.288c-0.233,0.616-0.653,1.084-1.183,1.467
		c-0.472,0.343-0.456,0.762-0.199,1.209c0.259,0.446,0.608,0.556,1.05,0.227c0.632-0.473,1.117-1.069,1.414-1.788
		c0.129-0.315,0.294-0.477,0.646-0.533c1.089-0.177,2.065-0.661,3.069-1.071c0.074-0.061,0.152-0.117,0.232-0.175
		c0.05-0.006,0.139-0.036,0.154-0.018c0.045,0.07-0.021,0.09-0.081,0.1c-0.06,0.067-0.124,0.132-0.19,0.199
		c-0.246,0.2-0.463,0.419-0.407,0.768c0.046,0.333,0.144,0.67,0.474,0.821c0.476,0.216,0.794-0.13,1.164-0.445
		c0.396,1.152,0.881,2.218,1.471,3.242c0.267,0.46,0.432,0.362,0.684,0.048c0.11-0.137,0.237-0.265,0.338-0.404
		c0.154-0.214,0.274-0.3,0.479-0.029c0.285,0.372,0.607,0.267,0.921,0.01c0.762-0.624,1.356-1.358,1.581-2.407
		c0.934,0.918,1.902,1.716,2.968,2.396c0.208,0.131,0.155,0.342,0.162,0.535c0.035,1.205-0.429,2.237-1.135,3.197
		c-1.692,2.283-3.874,4.042-6.31,5.5c-2.796,1.673-5.787,2.892-9.058,3.379c-2.494,0.372-4.959,0.337-7.312-0.641
		c-3.302-1.374-5.102-3.926-5.697-7.301C17.974-0.906,18.402-3.875,19.302-6.786z M92.531,72.579
		c-0.27,2.843-1.826,5.014-3.896,6.857c-2.869,2.553-6.244,4.334-9.781,5.83c-4.596,1.945-9.387,3.316-14.266,4.381
		c-5.564,1.216-11.203,1.971-16.885,2.456c-7.011,0.598-14.027,0.684-21.043,0.305c-6.721-0.365-13.388-1.14-19.981-2.508
		c-5.557-1.148-10.996-2.658-16.184-4.922c-3.286-1.433-6.43-3.12-9.088-5.551c-1.77-1.614-3.24-3.42-3.767-5.804
		c-0.1-0.447-0.177-0.902-0.179-1.354c-0.015-3.117,0.002-6.234-0.021-9.35c-0.003-0.467,0.134-0.561,0.595-0.558
		c1.24,0.012,2.184-0.851,2.243-1.972c0.063-1.216-0.854-2.313-2.105-2.344c-0.664-0.017-0.732-0.251-0.729-0.794
		c0.014-9.662,0.01-19.325,0.012-28.99c0-0.501-0.007-0.997,0.002-1.497c0.015-0.761,0.315-0.94,0.981-0.606
		c1.379,0.694,1.813,1.572,1.502,3.047c-0.04,0.191-0.088,0.382-0.104,0.577c-0.088,0.996,0.025,1.17,0.972,1.582
		c0.589,0.258,1.083,0.167,1.464-0.361c0.128-0.179,0.257-0.356,0.372-0.54c0.608-0.985,0.984-1.047,1.871-0.274
		c0.313,0.276,0.578,0.606,0.89,0.888c0.758,0.693,0.992,1.511,0.691,2.486c-0.11,0.356-0.188,0.754,0.167,1.03
		c0.361,0.279,0.721,0.027,1.069-0.095c0.146-0.049,0.29-0.112,0.429-0.18c0.925-0.456,1.61-0.272,2.158,0.581
		c0.708,1.099,0.75,1.107,1.942,0.521c0.679-0.335,1.161-0.311,1.723,0.35c0.752,0.877,1.461,0.936,2.464,0.107
		c0.034-0.028,0.068-0.055,0.104-0.082c1.66-1.235,2.657-0.859,3.036,1.177c0.324,1.732,0.25,3.471-0.097,5.196
		c-0.135,0.668-0.257,1.324-0.065,2.006c0.206,0.729,0.682,1.158,1.34,1.158c0.579,0,1.019-0.394,1.24-1.099
		c0.27-0.875,0.255-1.764,0.188-2.66c-0.036-0.521-0.05-1.043-0.048-1.566c0.003-1.165,0.939-1.971,1.887-2.294
		c1.274-0.432,2.304,0.44,2.14,1.746c-0.054,0.398-0.235,0.745-0.386,1.108c-0.141,0.345-0.292,0.687-0.377,1.041
		c-0.199,0.809,0.137,1.748,0.716,2.115c0.587,0.369,1.931,0.343,2.512-0.046c0.317-0.214,0.404-0.516,0.354-0.856
		c-0.053-0.387-0.155-0.771-0.201-1.155c-0.101-0.886,0.312-1.261,1.219-1.146c1.971,0.255,3.125,1.567,3.233,3.694
		c0.023,0.438,0.023,0.869-0.07,1.305c-0.052,0.23-0.075,0.483-0.034,0.717c0.087,0.479,0.269,0.94,0.795,1.114
		c0.502,0.171,0.834-0.15,1.166-0.458c0.497-0.457,0.689-1.052,0.834-1.675c0.163-0.676,0.321-1.355,0.583-2.005
		c0.207-0.513,0.579-0.817,1.152-0.857c0.527-0.037,0.934,0.147,1.075,0.677c0.121,0.463,0.249,0.934,0.283,1.405
		c0.046,0.674,0.357,1.099,1,1.31c0.272,0.094,0.546,0.186,0.83,0.249c1.075,0.236,1.227,0.173,1.369-0.885
		c0.113-0.85,0.911-1.105,1.999-1.055c0.667,0.029,0.993,0.498,0.993,1.297c0,1.087,0.924,1.903,2.054,1.833
		c0.332-0.02,0.486-0.179,0.493-0.487c0.009-0.282-0.003-0.565,0.012-0.854c0.036-0.668,0.409-1.12,1.061-1.25
		c0.631-0.131,1.005,0.27,1.185,0.744c0.612,1.619,1.435,3.193,1.248,5.016c-0.094,0.93-0.098,1.874-0.019,2.812
		c0.081,0.974,0.744,1.885,1.536,2.12c1.143,0.342,2.256-0.521,2.489-1.927c0.182-1.104-0.056-2.164-0.36-3.219
		c-0.34-1.17-0.866-2.285-1.031-3.499c-0.038-0.281-0.078-0.565-0.07-0.849c0.024-1.041,0.747-1.627,1.813-1.486
		c1.464,0.192,2.537,1.145,2.896,2.562c0.234,0.927,0.592,1.235,1.391,1.191c1.19-0.066,1.664-0.403,1.801-1.338
		c0.098-0.649,0.397-1.142,0.995-1.461c0.565-0.298,0.981-0.194,1.252,0.385c0.181,0.392,0.335,0.817,0.389,1.242
		c0.048,0.429,0.281,0.546,0.649,0.579c1.071,0.094,1.305-0.083,1.379-1.151c0.055-0.735,0.248-1.381,0.979-1.725
		c1.049-0.492,2.092,0.077,2.405,1.313c0.085,0.335,0.095,0.693,0.169,1.035c0.176,0.793,0.598,1.098,1.424,1.063
		c1.033-0.045,1.771-0.519,2.223-1.425c0.706-1.413,1.383-1.724,2.97-1.376c1.219,0.268,1.478,0.063,1.533-1.186
		c0.034-0.791-0.132-1.563-0.214-2.34c-0.158-1.455,0.441-2.213,1.871-2.405c0.594-0.082,0.947,0.144,1.041,0.729
		c0.021,0.129,0.032,0.26,0.055,0.39c0.266,1.331,0.639,1.561,1.984,1.283c0.42-0.091,0.688-0.285,0.775-0.687
		c0.1-0.449,0.18-0.897,0.27-1.347c0.256-1.271,1.482-2.143,2.801-2.032c0.301,0.025,0.281,0.234,0.361,0.389
		c0.232,0.443,0.395,1.013,0.996,1.035c0.654,0.021,0.811-0.604,1.066-1.043c0.199-0.347,0.199-0.752,0.287-1.137
		c0.223-1.022,0.723-1.358,1.76-1.136c0.631,0.134,1.217-0.023,1.756-0.264c1.348-0.597,2.51-0.464,3.641,0.525
		c0.877,0.77,1.367,0.678,2.244-0.143c0.797-0.744,1.088-0.78,2.066-0.26c0.754,0.403,1.111,0.309,1.529-0.409
		c0.672-1.155,1.213-1.325,2.459-0.783c0.039,0.019,0.072,0.053,0.113,0.066c0.412,0.137,0.859,0.451,1.25,0.13
		c0.391-0.311,0.223-0.798,0.119-1.219c-0.193-0.774-0.047-1.436,0.521-2.048c0.48-0.52,0.941-1.046,1.541-1.438
		c0.52-0.338,0.926-0.227,1.244,0.271c0.152,0.239,0.273,0.489,0.42,0.732c0.381,0.644,0.887,0.796,1.586,0.488
		c0.574-0.252,1.066-0.584,1.334-1.188c0,9.116-0.006,18.232,0.006,27.348c0,0.4-0.094,0.499-0.516,0.51
		c-1.365,0.023-2.336,1.013-2.313,2.286c0.021,1.209,0.984,2.083,2.359,2.053c0.436-0.01,0.465,0.144,0.465,0.477
		c-0.01,2.399,0.045,4.804-0.033,7.197C92.502,70.89,92.611,71.733,92.531,72.579z"/>
</g>
</svg>
