<?xml version="1.0" encoding="utf-8"?>
<!-- Generator: Adobe Illustrator 16.0.0, SVG Export Plug-In . SVG Version: 6.00 Build 0)  -->
<!DOCTYPE svg PUBLIC "-//W3C//DTD SVG 1.1//EN" "http://www.w3.org/Graphics/SVG/1.1/DTD/svg11.dtd" [
	<!ENTITY ns_extend "http://ns.adobe.com/Extensibility/1.0/">
	<!ENTITY ns_ai "http://ns.adobe.com/AdobeIllustrator/10.0/">
	<!ENTITY ns_graphs "http://ns.adobe.com/Graphs/1.0/">
	<!ENTITY ns_vars "http://ns.adobe.com/Variables/1.0/">
	<!ENTITY ns_imrep "http://ns.adobe.com/ImageReplacement/1.0/">
	<!ENTITY ns_sfw "http://ns.adobe.com/SaveForWeb/1.0/">
	<!ENTITY ns_custom "http://ns.adobe.com/GenericCustomNamespace/1.0/">
	<!ENTITY ns_adobe_xpath "http://ns.adobe.com/XPath/1.0/">
]>
<svg version="1.1" id="Layer_1" xmlns:x="&ns_extend;" xmlns:i="&ns_ai;" xmlns:graph="&ns_graphs;"
	 xmlns="http://www.w3.org/2000/svg" xmlns:xlink="http://www.w3.org/1999/xlink" x="0px" y="0px" width="200px" height="200px"
	 viewBox="0 0 200 200" enable-background="new 0 0 200 200" xml:space="preserve">
<metadata><?xpacket begin="﻿" id="W5M0MpCehiHzreSzNTczkc9d"?>
<x:xmpmeta xmlns:x="adobe:ns:meta/" x:xmptk="Adobe XMP Core 5.3-c011 66.145661, 2012/02/06-14:56:27        ">
   <rdf:RDF xmlns:rdf="http://www.w3.org/1999/02/22-rdf-syntax-ns#">
      <rdf:Description rdf:about=""
            xmlns:xmp="http://ns.adobe.com/xap/1.0/"
            xmlns:xmpGImg="http://ns.adobe.com/xap/1.0/g/img/">
         <xmp:CreatorTool>Adobe Illustrator CS6 (Windows)</xmp:CreatorTool>
         <xmp:CreateDate>2019-01-22T15:01:54+05:30</xmp:CreateDate>
         <xmp:ModifyDate>2019-01-22T15:01:54+05:30</xmp:ModifyDate>
         <xmp:MetadataDate>2019-01-22T15:01:54+05:30</xmp:MetadataDate>
         <xmp:Thumbnails>
            <rdf:Alt>
               <rdf:li rdf:parseType="Resource">
                  <xmpGImg:width>256</xmpGImg:width>
                  <xmpGImg:height>256</xmpGImg:height>
                  <xmpGImg:format>JPEG</xmpGImg:format>
                  <xmpGImg:image>/9j/4AAQSkZJRgABAgEASABIAAD/7QAsUGhvdG9zaG9wIDMuMAA4QklNA+0AAAAAABAASAAAAAEA&#xA;AQBIAAAAAQAB/+4ADkFkb2JlAGTAAAAAAf/bAIQABgQEBAUEBgUFBgkGBQYJCwgGBggLDAoKCwoK&#xA;DBAMDAwMDAwQDA4PEA8ODBMTFBQTExwbGxscHx8fHx8fHx8fHwEHBwcNDA0YEBAYGhURFRofHx8f&#xA;Hx8fHx8fHx8fHx8fHx8fHx8fHx8fHx8fHx8fHx8fHx8fHx8fHx8fHx8fHx8f/8AAEQgBAAEAAwER&#xA;AAIRAQMRAf/EAaIAAAAHAQEBAQEAAAAAAAAAAAQFAwIGAQAHCAkKCwEAAgIDAQEBAQEAAAAAAAAA&#xA;AQACAwQFBgcICQoLEAACAQMDAgQCBgcDBAIGAnMBAgMRBAAFIRIxQVEGE2EicYEUMpGhBxWxQiPB&#xA;UtHhMxZi8CRygvElQzRTkqKyY3PCNUQnk6OzNhdUZHTD0uIIJoMJChgZhJRFRqS0VtNVKBry4/PE&#xA;1OT0ZXWFlaW1xdXl9WZ2hpamtsbW5vY3R1dnd4eXp7fH1+f3OEhYaHiImKi4yNjo+Ck5SVlpeYmZ&#xA;qbnJ2en5KjpKWmp6ipqqusra6voRAAICAQIDBQUEBQYECAMDbQEAAhEDBCESMUEFURNhIgZxgZEy&#xA;obHwFMHR4SNCFVJicvEzJDRDghaSUyWiY7LCB3PSNeJEgxdUkwgJChgZJjZFGidkdFU38qOzwygp&#xA;0+PzhJSktMTU5PRldYWVpbXF1eX1RlZmdoaWprbG1ub2R1dnd4eXp7fH1+f3OEhYaHiImKi4yNjo&#xA;+DlJWWl5iZmpucnZ6fkqOkpaanqKmqq6ytrq+v/aAAwDAQACEQMRAD8A9U4q7FXYq7FXYq7FXYq7&#xA;FXYq7FUPeahY2Sc7udIV7c2AJ+Q6n6MBkBzbMeGczURbHr78wtJhqtrFJdMOh/u0P0t8X/C5Ucw6&#xA;OxxdkZD9REftQP8AibzhqH+8Fh6UZ+y4Qt/w70T8MjxyPIOR+S02P65Wff8Aq3b/AER5/vP7+9+r&#xA;16j1An/JkHHhmeqPzGjhyjfw/W7/AAHq029zqhJ7/bf/AIky4+Ce9f5Uxj6Yfc2v5aoK8tQJ8KRU&#xA;/wCNzh8DzQe2T/N+39jm/LVDTjqBHjWKv/G4x8DzUdsn+b9v7Gv8B6tDvbaoQe320/4izYPBPen+&#xA;VMZ+qH3O/RHn+z/uL36xToPUD/8AJ4DHhmOq/mNHPnGvh+pr/E3nDT/977D1Yx9pyhX/AIdKp+GP&#xA;HIcwn8lpsn0So+/9e6OsfzC0mai3UUlqx6n+8QfSvxf8LkhmHVx8vZGQfSRL7GQ2eoWN6nO0nSZe&#xA;/BgSPmOo+nLRIHk67JhnA1IUiMLW7FXYq7FXYq7FXYq7FXYq7FXYq7FXYq7FXYq7FXYq7FUt1fzF&#xA;pWlqfrMtZu0CfFIfo7fTkJTAcrT6PJl+kbd/RjD+Y/M+tuYtHtjbwVoZRQn/AGUjfCPo3yrjlLk7&#xA;MaPBgF5DZ/HRZN5V02wgfUvNOrpBEN5ZZJRGlf8AKllO+PhDnIsZ9qH6cUfx7gwrXf8AnIn8mvK5&#xA;MWjRPrV4mwa0jqlf+Yian/C1w8URyDiTObJ9Uvx7nnHmD/nMPzldF00PSbPTYy3wSTF7mUL2/wB9&#xA;pX/Y4DkKI6WI5sB1X8//AM3tSkZ5fMlxbq3+67QJbqNqbekqn8ciZHvbRhgOjFLrzh5tu2LXWt38&#xA;7MakyXMzb/S2RbAAgDqOoEkm6lJPU+o39caCXDUdQBBF1KCOh9Rv640FR9r5w822jBrXW7+BlNQY&#xA;7mZd/obFBAZXpX5//m9psivF5kuLhV/3XdhLhTtTf1VY/jkhI97WcMD0Z95e/wCcw/ONqUTXdJs9&#xA;SiB+OSAvbSlf+Sif8LkhkLVLSxPJ6PoX/ORP5NeaCItZifRbx9i13HRK/wDMRDX/AIamHiieYTA5&#xA;sf0y/HuZrD5V02/gTUvK2rpPEd4pY5RIn+xliO2DwusS5cO1P4csfx7ivTzH5n0RxFrFsbiCtBKa&#xA;A/7GRfhP0748co82R0eDOLxmj+OjJ9I8xaVqij6tLSbvA/wyD6O/0ZbGYLrNRo8mL6ht39Eyybiu&#xA;xV2KuxV2KuxV2KuxV2KuxV2KuxV2KuxVSurq2tIGnuZFihQVZ2NBgJpnDHKZqIssNvvNmratcGx0&#xA;CF1U7NPT46eNTsg9z+GUHIZbRdzi0GPCOPMfh+OaFvtP8p+VNPOs+c9TiiStaSuQrP14qPtyt7Af&#xA;RhGMDeTXm7SnP04hQ/HyeNeev+cubij6f5E05LS3QcU1G7QF9j1itx8Cj/Wr8sTkPRxo6ezcjZeB&#xA;+YvNnmbzJdm713U7jUZzuGncsF/1F+yo9lGVuQIgckpwMnYq7FXYq7FXYq7FXYq7FXYqm3l3zZ5m&#xA;8t3Yu9C1O406cbloHKhv9dfssPZhhYmIPN755F/5y5uKJp/nvTku7dxxfUbRAH3PWW3PwMP9Wnyy&#xA;wZD1ceWno3E0Xstjp/lLzXYDWfJupxSpWv7pyVV+vFh9uJvYj6MTjB3i5OHtKcPTlFj8fNFWPmzV&#xA;tJuBY6/C7KNlnp8dPGo2ce4/HAMhjtJsy6DHmHHhPw/HJmVrdW13As9tIssLiqupqMvBt008coGp&#xA;Ciq4WDsVdirsVdirsVdirsVdirsVdiqW63r1jpFv6k55St/dQKfiY/wHichOYi5Om0s80qHLvYpa&#xA;6drXmq5F3fubfTlP7tRsCPCMH8WOUiJnueTt55sWkjww3n+Of6mAfmZ/zkV5X8kwy6B5Lii1PWEq&#xA;k1zXlawONvjYGs0g8AaDx7ZIzA2DrjGeU8WQvlrzR5t8x+adUfU9evpb67cmjSH4UB/ZjQfCi+yj&#xA;K3IjEAUEowMnYq7FXYq7FXYq7FXYq7FXYq7FXYq7FXYqm/lfzb5j8raomp6DfS2N2hFWjPwuB+zI&#xA;h+F19mGFjKIIovqX8s/+civK/naGLQPOkMWm6w/FIbmvG1nc7fAxNYZD4E0Pj2ywTB2k44jPEeLG&#xA;Wf3Wna15VuTd2Dm405j+8U7gDwkA/BhkTEw3HJ2MM2LVx4Z7T/HL9TLNE16x1e39SA8ZVp6sDfaU&#xA;/wAR75fCYk6jU6WeGVHl3pjknGdirsVdirsVdirsVdirsVSjzH5jt9GtwSBJdSA+jDX/AIZvAD8c&#xA;hOfC5mj0cs0u6I5ljOn6StwkvmTzRcLDZRqZT67BE4Dfk5JAVB2Hf9dUYX6pOx1OrGIeFh5/j7Xz&#xA;3+df/OSF95hM3l7yg72Hl5f3c96tY57pRtxWlDHF7dW70G2Mp37nCxYK3PN4RlbkuxV2KuxV2Kux&#xA;V2KuxV2KuxV2KuxV2KuxV2KuxV2KuxV7v+Sn/OSF95eMPl7ze73/AJeb93BetWSe1U7cWrUyRe3V&#xA;e1RtlkZ17nGy4L3HN9CahpK26ReZPK9ws1lIolHoMHTgd+SEEhkPcdv1MoV6oubptWMo8LNz/H2s&#xA;m8ueY7fWbckAR3UYHrQ1/wCGXxB/DLYT4nXazRywy74nkU3ybhuxV2KuxV2KuxV2Kpdr2t2+kWJn&#xA;k+KVvhgiruzf0HfIznwhydLppZp0OXViek6elwtx5o8ySrHZQq09ZTROCAku1eiKBsO/66YRv1Sd&#xA;pq9SMQ8HFz/H2vmL89fz1vvPV82kaQz23lS2f93Hur3TqdpZR/L/ACJ26nfoJztxMOHh3PN5DkG9&#xA;2KuxV2KuxV2KuxV2KuxV2KuxV2KuxV2KuxV2KuxV2KuxV2KvXvyK/PW+8i3y6Rq7Pc+VLl/3ke7P&#xA;aux3liH8v86d+o36zhOmjNh4txzfTuraelutv5o8tyrJZTKs9YjVODgEOtOqMDuO36jONeqLl6TU&#xA;jKPBy8/x9rLNB1u31exE8fwyr8M8Vd1b+h7ZdCfEHV6rTSwzo8uiY5JxnYq7FXYq7FVK6uoLS2ku&#xA;Z2CQxKWdj4DATTPHAzkIjmWD6da3PmrWnv7sFdOtzRY+xA3EY/WxzHiOM2eTvc046TFwR+s/i/1P&#xA;nv8A5yQ/Os+Yb5/KHl6bj5esH43s8ey3U8ZpxWn+6oyNv5jv0AwzlfudfgxVuebwjK3JdiqNsNG1&#xA;bUGC2VpLcV/aRCVFPFugy7Fp8mT6QS34dLkyfRElPrb8sfNkyhnhjgr2lkWv/Cc8zY9lZjzofH9V&#xA;uwh2HqDzAHvP6rRH/KqPM9K+pa/L1G/5oyf8j5e+P2/qbP5Az98fmf1Ia5/LPzZCpZII56dopFr/&#xA;AMPxyE+ysw5Ufj+umufYeojyAPuP66SO/wBD1nT6/XLKaBR1d0PH/gvs/jmHk02SH1RIcDLpMuP6&#xA;okfjvQOUOO7FXYq7FXYq7FXYq7FU68oeXh5g1uLTTN6CurO0lKmiiuw8cqz5eCNtOfLwRtFecvJN&#xA;95Znj9SQT2k9RDOBTcfssPGmRwagZPewwagT97G8vcl2KuxV2KuxV7v/AM43/nWfL18nlDzDNy8v&#xA;X78bKeTdbWeQ04tX/dUhO/8AKd+hOWQlXucbPivcc30JqNrc+VdaS/tAW064NGj7AHcxn9anBIcB&#xA;scnYYZx1eLgl9Y/F/rZxa3UF3bR3MDB4ZVDIw8DmQDboskDCRieYVcLB2KuxV2KsI82X1xq2rQ6B&#xA;Ymqq49dh059TX2Qbn+zMfIeI8Id5oMQw4zmn8Px5vOv+civzMh8k+V4vJegS8NY1OI/WZkNHgtWq&#xA;GfbpJMageAr7YZmhQcKJOWZySfIeVOUj9G0TUtYvBa2ERkc7ux2RF/mduwy/Bp55ZVEORptLPNLh&#xA;gP2PU9A/LPRNPVZL8DULrvzH7oH2Tv8A7LOg0/ZuOG59R8+Xyes0nYuLHvP1y8+Xy/Wytmt7WHos&#xA;cS/ZVQAPkAM2mPGZmoh3Aj0CXvqvqMwBMadvE/TmdPQyiBW5ZGJdCRcyMqHkyipLf5nK8mKeMCUk&#xA;GJTONCtST1psOm2YhLCEaULy9toQUk+Mkbx9dveuX4NLPJy5MxG3mfnryxYehLrGmRrbCLibq16K&#xA;Q7BQ8YHShO4+nNF232T4IGSI5865fs/Hx5ftvsyMB4sBXeOnvYFnNvNOxV2KuxV2KuxV2KpjoKay&#xA;NTt5tJikku43Bj9NS243oaZDLw1UuTTmMeGpPV/zSb635Ft7tlAdpIJflzU1p9+a3SbZKdfpP7x4&#xA;vm1dsvkiliIEiMhIqAwI2+nEG0Ag8lmKXYq7FXYq+vP+cdfzMh87eV5fJevy89Y0yIfVpnNXntVo&#xA;FffrJCaA+Ip75bA2KLiyJxTGSL0XynfXGk6tNoF8aKzn0GPTn1FPZxuP7cGM8J4S5uvxDNjGaHx/&#xA;HkzfMh0bsVdiqW+YtXXS9Klua/vj8EA8ZG6fd1yE5UHK0en8XII9OvuYhp99YeVPKWp+ctZJ4RRP&#xA;Lv8AbZQdlWv7Ur0A+jK8YocRc7tLNxzGKPIfj7Hw/wCbfNGqeafMd9r2puXu76UyMK1CL0SNf8lF&#xA;ooytEYgCggNPsbm/vYbO2XlPO4RB2qe59h3yeLGZyERzLdhxSyTEI8y938u+X7LQ9OS0tlBfYzzU&#xA;+KR+5P8AAZ12nwRxR4Yvf6TSQwQ4Y/E96Ku7+G3BFeUnZB/HM/BpZZPIOWI2klxcyzvzkNfAdhm7&#xA;xYY4xQbAKU8tSvhnkhk5xmjdMhkxxmKKCFdr+/kH2yB/kgDMb8vhhzURUfSkYksd/E98kdTAck0p&#xA;z26tG0cqh43BVlO4IPUHJxnHLEgjbqGMoCQo8i8t8z6GdJ1DglTazVa3Y+HdT7rnnfbHZ35XLQ+i&#xA;W8f1fB4DtTQfl8lD6Jcv1fBJ81LrXYq7FWQaX5K1W+sxdu8VnFKvK1+sFlab3UKrEL25tRT47GkJ&#xA;ZAHIxaWeQXEMk0byxpulQo9zHFf6kwrI0gEtvDX9hEYFJG/mZgR/L05GuUyfc7HS9nirn8kzl8s2&#xA;nmCGW3a1iiuAhMF7DGsRRxSnP01AkU9CG3HbwMsQJPknXabFGNjYs28v2llo+nW+nrEsHpqqtKv2&#xA;JH7sW61J/m+QzC1WlyAmX1B5LUaWYJlzCtJoNrcQtbXtbi05N6dqx/dBSaqCB9rj2rmH4hG45uJx&#xA;dyW6N5P8sxTTXS6dCJ0mkRUK1CKpKrsa/aWjb+Phk55pna2UssjsSWFfnRe6c11ZWUSqb6EF53AF&#xA;QjAcFJ6++Zmhidz0cvRRO56PM8z3YuxV2KuxVN/KXmjVPK3mOx17THKXdjKJFFaB16PG3+S61U4W&#xA;Mogii+4NQvrDzX5S0zzloxPCWJJdvtqpO6tT9qJ6g/TlmQWOIJ7NzcEzilyP4+1l/l3V11TSormv&#xA;74fBOPCRev39cshKw4Os0/hZDHp09yZZNxXYqwbzI7635nttIiJ9C3NJSPE/FIfoUU+eY8/VKnfa&#xA;MDBgOQ8z+A8S/wCcufPQ+sad5E09wlvaIl3qKLUfGRS3iPsqfF9Iw5DvTgaeJNyPMvm3KnKZz+V9&#xA;tDHeXWqTLzaFRFbj/Kfdz9C7fTnR9gaE5TKfQbPSezum4pSyHpsP0/jzZ/PqtzIOMY9MHw3P351+&#xA;PRY4by3etEUH6cjHcGvcnMrxoDqypsQueu2VnVRWnMkcYrI9Mqlqz0CaUWvYE+wnKnc7Zjz1Ej1Q&#xA;h49dhkk4RyRO38qtUn5b5jjNEn9rTDUY5GhIEon9Iin93v8APJcYb7ct2krBWHA12NajfMjTZgJK&#xA;k/5m6LImix3EKmWOGZTI21VVlYEn25cc0fbubxtONvVGX2Uf2PPe0EDLACB9Mvs3/Y8vzjnjHYqy&#xA;XyZoEV7PJqF6nPT7MgCM9JpzusX+qB8T+223IZXklWwcrSafxZV0DNJZZJpGkkNXbqdgPkANgB2A&#xA;yl6SMQBQRmiWiXWoJHJQooLsp707ZbijZ3cfV5TCBI5sreJEkULWFAoCuij6QxIYDoOuZ0eTobJ5&#xA;7qvJl+CWjK2wem2/Zh74K7kKltIYZFgJJifaKu/EgV418Kbj7vDNTrtMAOOPx/W6rW6YD1x+K6Wy&#xA;lMzy285gMtBMAqtUgUDLXYNTapBFO2a0F1zyjzh+X/mjU/N10ukWE98skazCSoJagVXNWKjZmpQZ&#xA;ttHPijXV2ejmDGurCdW0TWNHujaarZTWVwN/TnRkJHiKjce4zLcxA4FdirsVdir6S/5xG89D6xqP&#xA;kTUHD292j3enI1T8YFLiIezJ8X0HLcZ3pxdREipDmHtvlx30TzPc6PKT6FwaRE+IHKNvpXb54Iem&#xA;VOdrAM+AZBzH4LOcyHRIfULxLKxnu3+zCjPTxIGw+k7YJGhbZhxmcxEdWF+VZoNP03V/NGpPxigS&#xA;WSWU/wAkYMsrfTtlGLkZF2/ak/pxR/HQPhnzZ5ivPMnmXUtdvCTPqNw87A/shj8K7dlWi5BriKFJ&#xA;TgZPVPy+04DQYCq0kuXeRif9biD/AMCudr2PePTA8uKz+j9D3fYeMQ0wP84k/o/QnmpanoWlyCG8&#xA;uSZqV9KNakD3pWmZM9UBzc3NrYYzRO6XN558uqCEtbiQjoTxAP8Aw/8ADKTrB+A4h7Wh/S/HxY/d&#xA;ecdSknd4VSKFj8EVC1B/rbHKjrp3tThy7Wy3tVIZvMuoMalYyT3o3/NWA6yZ6D7f1r/K2Xuj+Pig&#xA;7nUr25FJZSU/kHwr9w6/TlE80pcy4mbV5Mn1HZDqzIwZSVZTUEdQcrBpoBINhlelagLy25HaZNpB&#xA;79j9ObXDl4431eo0Wq8WG/1DmjctcxP9HuYry0ksLoCQcSpVtw0Z2IOVZIAhqyQBFEbF5J5z8tnQ&#xA;dYa3jqbSYepauf5Sd1J8VOchrtL4M6H0nk8D2novy+Wh9J3H6vgluj6ZNqepW9jEQhnkVGkP2UDM&#xA;F5H5V/hmETQdeBb0y2sUt9PitrGF/qVotC5FSXbeSRyBSrH/AIUAdsxSd3ptNhGKPD1W4uSm3lo0&#xA;1HkdlEbVPYZfpxufc4PaH938WVBTIQziiDdUP6z/AAH+Yy+TpV0ic42StOQpUdR7jADRQFCaXlYf&#xA;WKUKoJwvulHA/DBkhdx+DHLCwQmsCz3U629nGbi4bogIUAUqWZjsFH+1U5zmHGckuEc3SjR5TES4&#xA;fSerMPLnl5tMElxcyCa+nAVin93Gg39OOu533Zj9rwFAB0Gl0wxDzc3BhEB5rPOnkvRvNuiyaZqU&#xA;e+7W1yoHqQyU2dD+sdxmRKNt75A8zeXNT8ua3c6RqUfC5tmpy/ZdD9iRD3VhuP65ikUySvArsVdi&#xA;qbeU/MV55b8y6brtmSJ9OuEnUD9oKfiXfsy1XCxkLFPubzVNBf6bpHmnTXrFOkUkUo/kkAlib6Mn&#xA;l6SDZ2XP6sUvx0LNNPvEvbGC7T7MyK9PAkbj6Dtl8TYt1GbGYTMT0Y9+YV96OkxWqmjXUm48Uj+I&#xA;/wDDccqzHanY9kYryGX80fe83/5yJ10+V/yai0aI8LzWnjtGA68D++uP1cfpwS2iA1GfiZpS/Hk+&#xA;OMqcl2Kva/ISAaJY96QAj6TXO30orTQ9wfQuzhWlh7nn+rTPNql3K7FmaZzU/wCsaZhZfrPvdBqJ&#xA;E5JE96EytqXxxvI4RBVj2yUYkmgmMDI0EaukmnxygHwVaj8SuXDB3lzBou8qV1YGBOatzWtG2oR+&#xA;JyM8VCw15tMYC7tCZS4yP0W5MOoRivwyn02H+t0/HMjTTqfvczs/LwZR3HZlebN6lH6JU6igHWjU&#xA;+fE4k7FjLkivOeiW+raFdK6fv4YzLbOdiJEBNK+DdDmu12GM8RB6WXV9p6eOTBK+YFhiXkzT49Ls&#xA;JNQUhr1pDDBIN+DqoMjr/qK6hD4szdQtOKyno8n2fpxOVnkE7Oq6o0iyNeTmRPsOZHJHyNcpoO78&#xA;OPcE+tNK0vUI/rZQgy8S6qeKh+I9TiB0HOu3bMvFiHCCd3V6jVZIS4R0R6adb2/FreIBlNXAABYA&#xA;HbsOprl8ABsNnCnmlP6iriWZthAynxdlA/4Uufww0O9rpTlmuwAgSMSPstHJoadfsdskBH8f2pAC&#xA;+cIlsYwKKV9NR8xT8BlGbKIRMz0ZYoGcgE58kIz68rV+xG7N9I4/8bZz3ZI/fj3F2XaG2L4s/ukl&#xA;e2mSFuMzIwjbwYjY/fnUyBo06Fivl/zcltENO1wtb3UHwrNIDR1BoKnx9+hzHxZhVFmYr/OXkPyr&#xA;570+MXh5SRV+q6hbMvqJXcry+IMp7qcuIEtwxfP35ifkvr/lGJtQhkGpaMDRrqNeMkVTQerHU0H+&#xA;UCR40ymUCFed5BLsVdir7P8A+cetZt/NH5KJpBk9S+0gzWUqsdwQxmtiKb8eDqo/1Tl0RcacXjOL&#xA;MJfjzegfl7fetpMtqxq1rJsPBJPiH/DcscJ2pu7XxVkEv5w+5A+Zv9yHnCwsOscXAOv+seb/APCA&#xA;ZGe8gHI0X7vTSn1N/q+98/f85h+YTdecdJ0JHJi02zM8ifsiW5f/AJojXHId3B0sajb5/wArcpF6&#xA;Tpd3qupW2m2YDXV3IsUKswUFmNACTsME5CIsqBb2zy/p0+lRw6bcAC4tY/QnCmq+pHs9D3HIHO60&#xA;xB00COXDH7n0bRxrTwH9Efc8z1eMx6reIRQrPIP+HOYGX6j73nNQKyS95QmVtSYaTxrL/PQU8aV3&#xA;/GmZGDq5uiqz3phlznqV0oa2lU/yk/8AA/F/DBIWD7mrMLgUkzCdQrWf+9cH/GRf+JDLMX1j3hsw&#xA;/XH3hmmbd7FW0u+jj1i2t4Va5vJH9OO1hHJyz/D/AKop3qc1Wp7Vxw2j6i6TWdt4cZ4Y+s+XL5sg&#xA;/MDyF5vtNCuNTm1CGWzgIaayhUpSMtSpY/bpUVGc/nz5Z/Wdnk9Tr8ubaUtu7owzy5MlxpctiDS5&#xA;t5GuY07yRuirLT3j9JTTwJPRc1+Yb25HZmYRJieqKyl3aaWs2rWrpapLHHLWiWbyxLKWY7D0mYSF&#xA;mrsKb5ZHLIDbl7nAynTyl6iOJcfM2qV/YH+x/tyYznuCf5Px+a1vMuplSOSCopULuPlic57go7Px&#xA;jvULXV7mG8+tSH1n4laMfHwpkY5SDZbcmljKHCNkS3mW9Mxf042ShCxsCQN61qpU1yrUDxRR5Iw6&#xA;SMOXNmH5Z6pqd7rF2FiUIIV4uA3oxfGK1FalnFaVb8MdJhGOVRG7i9pRAgN+r1f9GXV/a3EdvQN6&#xA;bAEmg5EbCubHMDKJA5uhGWMJAlKvKnlKx1Jbwaxa+rHCwiWJ6rST9o1BBqNswdHhsklu7Q1FcIj1&#xA;3XaZ5Vi8u3N9bwzGWGaUPErdVSnwgnud9zmdihw20QnxAFGzwwzwvBMiyQyqUkjcAqysKEEHqCMt&#xA;IZPkT82PIx8oea5rWBT+i7sfWNOY1NI2PxRknvG23yoe+Yso0UsMyKXYq+gP+cPPMLWvnHVtCdyI&#xA;tSsxPGnb1bZ/+aJGyzGd3F1Ubjb6B8s/7j/OF/YdI5eYRf8AVPNP+EJxhtIhztb+800Z9RX6vvb0&#xA;j/TPP97P1+r+pQ/6gEP8cY7zKNR6NHEd9frfH/5/6rJqX5veZJXbktvcC0j6bLbosVNvdTkZHcuP&#xA;hFQDz3ItqY+W78af5h0u/ZuK2l3BOzHoBHIrHx8MhkjcSPJQd30TrunmPXGvoCJLC9HrQXCHkjc1&#xA;qaMNuu49s6fsLWxy6UQv149iPu+x7zsrUxyYBG/VH8B5B5zhaLzJeAigcq6+4ZAf15k6gep1uvjW&#xA;UpJlDhqttO0EocCo6MPEHJwnwm2zFkMJWm0d1bOtRIo9mIUj78yhIHkXZxzwI5oe7v4fSZIm5s4o&#xA;TQgAHr1yE8gA2aM+pjw1He0szFdemGg2FxfatbW8EbSyM4KogqSQagU9ztluGuKzyG7kaSIOQE7A&#xA;bn4PTL38r/Pz8YrS2ijDgepO0yDjXsKEnbuR9GYGu7Qlk9MNo/f+xp7T7aOW4Y9od/U/sZz+XX5W&#xA;2flat9eSLd6w68fUUH04lPVY67knuxzWRhW5eeJZhrOlwarpN5ps/wDdXcLwsfDmKA9uh3yUhYpD&#xA;51ufyx83aPqCvdKLW3ik/d6jHIh3XdWjUMJK7eAzGma5hkHo0H5R6/d6XDcxeY0t7qdBISlhDEwD&#xA;gFQJYmV1PiQd815zxB+n7XJlnyEUZGmBa55S17ySYzPaLcXUgbhexI8sZclgCJGUFCFPajVzIjkG&#xA;Q89mAkIix9SG0Cw84a5cpHbaK1xByCySJEYQoPU+oxVKj3wzEIjm3w1+UHnbOtO/J/zBJdhL9kgt&#xA;yGrNG6vSgNKjruaZiHMHYZO0oj6RbItP/JrRLch9Qu5rqlaxoBGp+6rfjgjOUzUQ4+TtKXQUmMf5&#xA;ZeTUbl9TZvANLIR+vNnDSitzu4x7Ry97ItJ0ewslW00+3jto3b7KCgLHap8cvjCMBsHEy5pS3kbZ&#xA;na20dtCsSbgdT4nxyQDqpzMjaoFUEkAAsatTuaUqfuxpjaQa7GFvA386gn6Nv4YjmXN059KXZJvY&#xA;N+cHkQebfKsiW6A6tYVuNPbuxA+OL/noo+8DK8kbCQ+SCCCQRQjqMxktYq9C/IDVZNN/N7y3KjcV&#xA;uLg2knTdbhGipv7sMlE7hqzC4F9gav8A6H5/sp+n1j06n/XBh/hkpbTDkaf16OQ7r/W7yH++1bVL&#xA;k9Sev+u7N/xrjh5le1NscI/jk+FPOF0135t1u6Ylmnv7mQk9fimY5W1gbJRil2Kvaf8AnH7zG101&#xA;95T1A+taNGbqyRzXgVYCVF8K8gwp0IJ75g6qUsUhlgeGQcnTZpQlcTRZR53/ACcfVrk3+k3gjuOI&#xA;Vre4+weNacXUVH0j6c2OD2jMtsw+Mf1fj3OynrjkNz5+TzTUfy2872EhSXSZ5R15249dafOPl+Ob&#xA;fF2jp58px+Jr76SJRPIhJZNH1aNuMllcI3Xi0Tg/iMyxIHqyoq+n+W9bv5vSgtHBG7NICige5amU&#xA;ajV48IuZpEjXNO4fyz1+SRUMtsnIgbu5PvsEOa09vYB0l8h+tr8UJmn5VelJxutRDUHxLFH3P+Ux&#xA;/hmNk9oB/DD5lHjB6j+XPkPRvL9uL+BWmvrgbTykFlStOK0AAr3yzHqsmaHFI8+g5OBqNRInh6M/&#xA;JA6mnzy0mnEdUUr2xVL7vzDodnGZLm/gjQdSXU07b0yByxHVkIk8nnHmnXJNb1AvbH1bGGqW5j+J&#xA;T/M1R3OYk8nEbZ8JHNH2fn3zLa2sNsIY3WFQis8bciqigBoQMxZYYE2kW9A0vX7C80+C5kmjgklQ&#xA;F4XdVZW6EUJr1zDlGjTKiiJNVtArGJxMQCT6fx0oK9F3P0Zdi00pe5hKVIe81i2t9KkvridIIo15&#xA;yMTQhKV+yfiDe1K/TlgxwGTkeBRZG3N8+X/nHzDLqdxdW+qXiRvM8kKetIAqliVHHlx2G1OmWDbk&#xA;5wxitwyPQfzh12zKx6rGuoQdDIKRzAV61UcWoOxH05fDUSHPdqnpgeWzNbb83PJssIkkmmt3IqYn&#xA;iYsD805r+OXjUxaDp5MH/MD8zb/XJYrbSNQv7PToQQ6xyegZWqRyJUlitOgJ+jKJ57Ow2ZR0Y5lJ&#xA;9D/MHztorqbTzJeSRcgzW93Gt0lP5f3shNP9Xj9GIz10RLRA9zJh+eXmKWpvLa3uZhsklGhWg7FV&#xA;5kV+Z/jhjqDajRiI2RTefte1gQzw8LC0CHnFBJ6khlrQcnAFF470oDvuMwe0NcQKBIPk5mj0oJuQ&#xA;R+geZdSh1CCOed5reRgjq5LUDGlRXfauYGj12SExZJi5ep0kJQJAovnL8wVsk886+tl/vML+4CDs&#xA;D6h5Ae3KtPbOgLomP4FTfyfdtZ+bNFu1JDQX9tICOvwzKcUEbPuvz5+51bS7kdQev+o6t/xtlmbm&#xA;GzsvfHOP45N/lqtE1Bq9TEKfLn/XDg6o7ZO8fj+h8CaiSdQuiTUmWSp/2RyocmKHxV2Ksk/LnXf0&#xA;F510nUGbjCs4iuCegimHpOT/AKqvXKdRDigQmJovr3Oecp2KuxVKr1o57mW3lUOIuLKjCooRswrt&#xA;1qMkGQS+9QLKvEALxAAAp0JwpCCtLjQ7fVOGqMFN3RLYvtHzpShPYmmxzO0MISkeNhl4q9Kr5+v5&#xA;PL/lThp00kEs0whhdSCyh+TtQncbKdxvm1nAYocMT1acPrnZeaaT5680abcGZL6S5DfbiumaZD/w&#xA;RqPoIyiOQx5OXLFGXRN7v83PMt1aSWrwWixSqUfikoND139TJnNIimA00WMXus3V3F6RRIoz9sR8&#xA;vipuK8mbKibbIYhFL8Wx2KuxVcjujq6MVdSCrA0II3BBGKsk0zVmutP+r39367JKziO7fmoBVQpH&#xA;q1Xx6b4QR1cbLEg3FAatFoscZFv/AL07cVhfnH1qSxPLt/K2A10Z4zPqg3uNPJtStqVEYH1keof3&#xA;pHXc1419sDZR33R9nYX11eG7h0Oa5tZa8YIUlK0IpVWVTv8AIU8ANqAkMTyq90Zb/lx52uQHi0iZ&#xA;VfdRKyRkA+IkZCPpGR8SPeviR703t/yW84yqpdrWAkAlZJWJHseCOMj40WPjRTmD8iLgkfWNYRR3&#xA;EcBY/eXXI+P5MfH8k/038n9J08u8V/cM8i8WDhOGxBrxABrt45RmPiCimGqlE28/1bUr/Q2nWGcr&#xA;eJM0Ucp+MqyN8RTnyAApTbxzLGGAogbrDJKexOzxDX4YINc1CK35/VluJfq5lPKQxFyYyx7krQ1z&#xA;NibDhSFGkBhQiNOJGoWpBoRLHQ/7IYnkr77/ADKWqae1ehlFPnw/plufoy7GO8vh+l35atVNQWnQ&#xA;xGvz5/0xwdV7ZG8fj+h8CaiCNQugRQiWSo/2RyocmKHxV2KuxV9ffl3r/wCnvJelaiz852hEVye/&#xA;rQ/u3J+bLX6c57UY+CZDlRNhkeUpdirH9Vdotft2+yksXAtTqeTbffxyQ5MxyU78j1VHfj/E4QoY&#xA;N+YkLm2tpRuofifbY7/jmZpDuWcWGXGoX9zFFFcXMs0UA4wRyOzqg2FEBJC9O2Z1swAEPilVt7a5&#xA;uJPTt4nmkpXhGpY0HegrgtFphB5U8zzuqxaTeMWIAPoSAbmm5K0H04OMd6OMd6awflf56mYAaWyA&#xA;kVaSSJAPc1euR8WPex8WKb2/5J+bJHX1ZrSFKjkTI7EDvQKm5+nI+MGPjBN7f8h5eSm41hQlRyWO&#xA;AkkdwCXFPuyPj+THx/JNYfyO8tKQZr28kp1CtGoP/CNkfHLHxymkf5ReRU+1ZSSf608v/GrLkfFk&#xA;x8WSaW/kLyZAqqmj2xCgAeogkO3iX5E/Tg8SXegzl3prbaZptqipbWkMCLsqxxogHyCgZGyxJRWB&#xA;DsVdirsVdir5w85LPcXz3KowT1JTIhHxKzOTVvCtQPozYVTkYCKp5Dr8qy6zdld1WQxg+Pp/BX6e&#xA;NcyYcnEmbkUvwsURpwJ1C1AFSZY6D/ZDE8lfff5lNRNPWnUymvy4f1y3P0ZdjDeXw/S15D/c6tql&#xA;seoPT/Udl/42wYeZT2pvjhL8cnwp5wtWtPNut2rAq0F/cxkHr8MzDK2sHZKMUuxV2Kvdv+cb9e5W&#xA;2q6DI3xRst7bqf5WpHL9xCffmr7Rx7iXwbsR6PZ1eX1GVkogFVcGtfYjqM1jcp/pCzD8DKFbqQai&#xA;nzr0w0tJX5gWGWO3vY3EiWkoMvAggKSCSaeBUYQmKHvWiZlZGDGm5G4p2wpCU3s8MV9p5lIEZnX1&#xA;Senph1L1zM0sLs+TXlk9M/Remf8ALJD/AMi0/pgstdleljZJThbxrTpRFH6hgtbVgABQCg9sUN4q&#xA;7FXYq0SAKnYYqptd2q/amQfNgP44aKoabXdFgYrNf28bDcq0qA7+1a4RCR6Kh281+W166jB9Dg/q&#xA;w+FLuW0JJ5+8qoSPrhcioPGOQjb340yXgT7kWufznYBQ0NnfXBPRY7d6+Nfi4jJDTyKDMOh8y6hO&#xA;CYdBvyB3kRYv+JEZMaSTE5ojq5dU84TScYtAESE7STXKDbsSAK5YNDJgdTDvdcP55IBWLTbRN6tN&#xA;LI3v1AGS/I1zY/mo9FSGz803APDV7KncwwmSn3vk46KJ6/awlq66Fgvm/wAnzaF6N7Ne/WxdSsJS&#xA;I/TbkfiO3Jhvvls8XCKZ4c/G+W7iB4LiWByC8TsjEdKqaGlck2KeKpv5PtGvPNmi2iglp7+2jAHX&#xA;4plGKCdn3X58/fatpdsOpPT/AF3Vf+Ncszcw2dl7Y5y/HJ2kf6H5/vYOn1j1KD/XAm/hjHaZXUev&#xA;RxPdX6nx/wDn/pUmm/m95kideK3FwLuPputwiy1292ORkNy4+E3APPci2uxV2Ksu/KnX/wBCee9L&#xA;uGakFxJ9UuPDhP8AACfZXKt9GY+qx8WMhlA0X1nmgclSnhgcFpIlkKg0qAT8hiEoOVIFt5uMCCsb&#xA;gkKP5T+GTpAKXPIi2ySxxqkjHjWnLpXs/IdsWbHddivL+/tra3iaecoSscSb0J60Ue2bTRD0n3uP&#xA;mIBZDpX/ACs6ytlt0shPGgAj+sFKqOwrzQ/fmRLSiR5Fx/Hh3prA/wCZsoq9nZQGtOLmp+fwO+D8&#xA;j70HVQ71YWv5kt1fTo6+PqbfcGyQ0LE6uC59D89SjlJrcFvUDkkUKlQR4My8sl+SA5sfzg6AodtG&#xA;1lDW783LGoPxAJGhp33Lim3th/KwHUL+ZkeUSlcsPlAf3/nh5PHjeI36i2HwsY6j5MuLMf4Cgbm8&#xA;/KaBgt9rtzqD0BWpllAqd6NHHQVpuCcI8MdWQhnP8KEl8x/kzAjMsN1dsOiKJgTv25NGPxx44ebI&#xA;afOe4KbfmV+Wif3PlyV6dPUSIf8AG74PEh3fan8nl6yUD+ceh20jfo7yrbxp0EjOisR7hYj3/wAr&#xA;Hxh/NDP8hI85lXtPzd8z6gWj0XQbVZEoXdizIAexNYQCfnkTqK6BI7Oj1JKq/nj83G2Wys0/1fSP&#xA;TfvMcj+cPez/AJOxDvSLzF5+/MDT544pNdR5ZVLvDbxRARVOy8jHU7dKmv6yBnkerMaLF/NY9d+f&#xA;/Ol2nCbWboLWtI5DF2pv6fHEzkerZHTYxyiEsZtZ1aWrG4v5kHU85mAP/BHIEtoAj5M10y0l0+2t&#xA;7iK1eymMYBkaMxy16P8AGQrfaGafU5cgkRezm4YY5x6FWvLm4nt5TcSvLSjKXYt8dadz1pXJ6Ccz&#xA;k57NOuxwGPYAF886t/x1b3/jPL/xM50A5OlQmKvQvyA0qTUvze8txIvJbe4N3J02W3Rpa7+6jJRG&#xA;4asxqBfYGr/6Z5/soOv1f06j/UBm/jkpbzDkaf0aOR77/U15m/3H+cLC/wCkcvAu3+qeD/8ACEYz&#xA;2kCnRfvNNKHUX+v73z9/zmH5eNr5x0nXUQiLUrMwSP8AsmW2f/miRccg3cHSyuNPn/K3KdirsVbB&#xA;KkEGhG4I61xV9i+StdGveVNL1YkGS5gUz06eqnwSj/g1Oc7mhwTIcqJsJ3lSUA0ZkUI6/aIDr7V3&#xA;yxCS2lw0+mMzqAVbiB9I8fngpsLELj8yNR0PXbo6Zb28jov1ZprhXc/C1WC8WSnxdflm20pMIsMm&#xA;mjk5rLn86/PEqMscltbk9HjhBI+XqFx+GZPjz72A7PxDolsv5p+fpPtavIP9WOFP+IoMicsu9sGj&#xA;xD+FLbjzj5suHZ5dZvWLbkCeRV38FVgo+gZEyJ6tgwQHID5JfdalqN2ALu6muADUCWRn36V+InAz&#xA;EQOSy3tLq5cpbQyTuBUrGpcgdK0UHBaSUfB5V8z3DqkOk3jliACIJKbmm5K0H04OId6OMd6b235W&#xA;+eZ3Vf0aYlPV5ZIlA9yOXL7hkTlixOWKaRfkn5uf7c1nEO/KRz/xGNsj4wY+ME0j/Ii8P95rEa/6&#xA;sLN+t1yPj+THx/JMLb8idMVKXOqzSvX7UcaRinyYyfrweOe5BznuT7R/yx0zS0EcOo3jQ8i5hJh4&#xA;kkUNf3XLt2OQlktHjFHv5A8tSmt1FNdCobhNcTNHUGo/dhxHT244OMsTlkrx+R/J8f2dGtD/AK0K&#xA;N/xIHBxy72PGe9MYNJ0u3RUt7OCFE+yscaKBTwAGCygkopVVRRQAB0A2wIWyRRyoUkQOh6qwBB+g&#xA;4Eg08k87mxh8yPDaxrHBbhBJGoAQuRyY06dDTM7TYxGOw5rPJKXM2+YXd3dndizsSWYmpJO5JJzN&#xA;aWsVfQH/ADh55fN15y1bXHRjFptmIY3p8Pq3L+PjwjbLMY3cXVSqNPoHyz/uQ84X9/1ji5lG/wBY&#xA;8E/4QHGG8iXO1v7vTRh1Nfr+9HfmFY+tpMV0oq1rJufBJPhP/DcclmG1uP2RlrIY/wA4fc83/wCc&#xA;idCPmj8motZiHO80V47tiOvAfubj9fL6MEt4gtRh4eaUfx5PjjKnJdirsVdir3//AJxx1/19H1LQ&#xA;5Hq9nKLm3U/77mFGA9ldK/7LNT2jjqQl3t2I9HsLMFUk9BmubUJIwdiaAKfv+nJhCXjTxbxSutxS&#xA;KUu3pGPkRvQ8aMuLO3nOr6Tpg1S5Jt1ctIWZi0g5FviJoH2rXpm5xRuAPk1nNIbMq8keQtJ1O1N7&#xA;OUSJJCiwRKvP4aH4pGDMKg/OnfK8s+E0Ax8SR6vSY9K02OCOBbaMxRKFjVlDUAFBu1TmLZRaoLGx&#xA;ACi3iCjoAi0/VgtbbW0tV+zCg+SgfwxtCqAAAAKAdAMVbxV2KuxV2KuxVosqirEADucVU2u7VftT&#xA;IPmwH8cNFVCbWdHgIE19bxE7gPKi1+84RAnoqHPmjy6K/wC5K328JFP8cPhy7ltb/izy3/1cYP8A&#xA;ghj4Uu5bSXWfzH0i3hdNOJu7ncI3ErGp8SWoT9GWw05PNFvKtZvZfql/fysZJlimuHJ2LMqM/wBF&#xA;SMzQOjF4PlrF2Kvsf/nHXQz5X/JmbWZVMd3rLyXak9eH9zb/AEbcvpy2O0SXGEPEzRj+PN6R+Xtj&#xA;6Oky3TCjXUmx8Uj+Ef8ADcsOEbW29r5byCP80feyHULNL2xntH+zMjJXwJGx+g75bIWKddhyGExI&#xA;dGF+VYYL/TdX8raklYp0ljliP8kgMUq/RlGLrEu37Uh9OWP46h8M+bPLt35b8zanoV2KT6dcPAxP&#xA;7QU/C/yZaMMg1xNi0pwMnYq7FWbfk5r36H8/6czvxt74myn9xNtHX/nqEOY2sx8WM+W7KBovqa4W&#xA;sdd9jWg+7+OaIOSUPk0KV6K2oKmgUOrD3IrkerKLzrWhTU5v9ifvUZu9P9AaJ8058i69Z6RfXD3t&#xA;w8VtJHQRqpZWfkKE07gV7YM8DIbMQzdvPOlFA9vbXl0rdDDAxFPGrFRmONPJNtL5xmkYLFomoEnu&#xA;8QRf+CJpkhpZLayXzL5kLEQeX3K9mknRSR8qfxywaKX4COJcmq+cpEb/AHF28DbhfUn5fI/BX9eS&#xA;GhKOJT9f8wH/AOrdFt/xaf8AmrLBoF41R4POUkdDqVtC5pVo4OVD3pzJH4ZIaAI40vl0/wA7fWeM&#xA;mvQx253ErKsbHbsgWn/DYnSRBrb5pBVf0LcOtdQ81yVFSBBIsAp3r8W+SGmxjrFO6ir+QIUAn8yf&#xA;WSOrNqHIn/kWwyfh4h1TwS7lC5178pLQgzXENy7V+L9/dNtQfa/eU9t8N4gkYpnogLnz7+U8EdYr&#xA;D6yQaBY7YAn3rKU/XgOXH3MhgklVz+Z3kVUJtvLXqv8AsrIsUYPzK+pT7sicsf5rIac96T3X5l6a&#xA;6N9X8sWUTn7LOzOB8woj/XlZyeX3sxp/Nj1z5nuJpA6WlvbjukfqlT/wcjn8chxFn4EVFvMF4Tsk&#xA;a+wDfxbHiK+BFvUb+a48ranLIAGEMqArUbFKdyf5slA20ZoCPJ5Dl7jpt5T8u3nmTzLpuhWYJn1G&#xA;4SBSP2Qx+Jt+yrVsLGRoW+5vNUMFhpukeVtNSkUCRRxRD+SMCKJfpyeXpENnZcPqyy/HUs00+zSy&#xA;sYLRPswoqV8SBufpO+XxFCnUZshnMyPVEYWtg3mNH0TzPbaxED6FwaygeIHGRfpXf55jz9Mrd7oy&#xA;M+A4zzH4DxL/AJy58ij6xp3nvT0D292iWmoutT8YFbeU+zJ8P0DDkG9uDp5EXE8w+bcqcp2KuxVd&#xA;HI8ciyRsVkQhkYdQQagjFX2R5Y1hNd8s2GqRsK31ujvToshWki/7FwRnOZYcEiO5ygbCOMEgWpoT&#xA;4DfBxLSGupEW3If7BYE0BPUEb0xpIeceZ7uxttTk9SYAsqkLQljQU6AGnTvm200/QGJxElNfKv5i&#xA;+TdLt0he1uUuH3nuzGjVPbo5YD2AzMx5YjmES08k4m/OfyqjsqQXkoHR1jjCn5cpA34Zb+aHcj8t&#xA;JB3H526QqE22nXEr/srIyRg/Mr6lPuyJ1XkkaU96V3P536gyMLbS4o3/AGTJK0gB9wojr9+QOqkz&#xA;GlHelVx+cHnCVGWM29uT0eOKpHy9RnH3jInUT72Y08UuP5jed5H21OQs2wCpEN/kEyHiy72Xgw7k&#xA;VF5y/MucCOG4upfAJbqT94jrg8aXejwoIObyn591KUXFxp19cSyAH1Z1csR1G75Ucg72QlEIu3/K&#xA;nzzOvL9HiIeEksSn7uRyJyxU5Ypha/kr5ulI9aS1t17lpGY9PBVOA5gx8YJjD+ROqE/v9UgQf5Eb&#xA;v+spg8cdyPHHcmcX5E6cD+91aZh4LEqn8S2R8c9zHxz3JlB+SvlGNVEkl3Mw6lpFWu/gqDI+MWJz&#xA;STK2/KvyNAtP0d6p2+KWSRjt/sgMByyQcsk0tPJvlS0NYNJtVbpyMSsfvYHwyJme9iZnvVrvyz5e&#xA;u7c29xpts8TCnH0lBA9iACPowCRQJEPEvzO8uWfl7T9UsLNmNq0Dzxh9yPU241704gZn4JWLRkmZ&#xA;PAsymp9L/wDOJP5eSpJd+ftSjEdqiSWuku+1T0uJh/kqB6df9bwy3HHq4monfpHN7R5cR9b8z3Os&#xA;Sg+hbmsQPiRxjX6F3+eCHqlbn6wjBgGMcz+CznMh0TsVS3zFpC6ppUttT98PjgPhIvT7+mQnGw5W&#xA;j1HhZBLp19zENPsdP81+U9T8mayDwlieIV+2qk7Mtf2onoR9GV4zY4S53aWHgmMseR/H2vh/zb5X&#xA;1Tyt5jvtB1NCl3YymNjSgdeqSL/kutGGVojIEWEowMnYq7FX0L/zjr5g+teXr3RJGrJp03qwg/75&#xA;nqaD5SKxP+tmo7Qx1IS72/EdqesTMVjJBAOwqfc0zADYoeq9CCag9dhkqRbC/Mnk/SdR1Rrm4aZG&#xA;KKoSEoigAeBRszcMyIuTiFhBW35T6ffnha3z2z/zTskn3IojJ+/LfGKzlwplb/kRAF/0jV2Lf8Vw&#xA;gD8XOA5/Jp8fyTeb8vvJFjbfVLvi6haUVR65PiZBV/x/DIeJJkJylyCppnkr8tHIijsg7k7Cd5ak&#xA;9NiWp9GJySYz8QMhtfJflO1NYdItQfFolc7+7A5EzPe08Z70xg07T7f/AHntYYadPTjVffsBgsot&#xA;Ue6tY24yTIjfyswB/E4FESUp1rzZpGloqyTBppVJiCAuKjuxXtXLIYzLktUd0jtfzIje7e2khRgA&#xA;PTnDFVZqCooQad965YcBq2QETKr2TvSfMsV1cG3ufTglIrGOQHLtSh3ykwLLJADkbTzItSBv9b0i&#xA;wH+mXccJH7Jarf8AAirZKMCeQVjt3+Z2iRGlvDNcf5VAi/ia/hlw00kWlV5+adywpZ2KIafalcvv&#xA;8lC5MaXvK2ks/n7zTK1RdiIfypGgH4g5aMEe5Fp/5Q8+XtzfRafqhWT1jwhuAArB+wYDY1yrLgAF&#xA;hILzH/nJDzNbHWBotpIskzwxG94kHgqsXWM0/aJo3sKeOW6WPpYyLyfyl5X1TzT5jsdB0xC93fSi&#xA;NTSoReryN/kotWOZbXKQAsvuXVYbXyz5V0vyfpRLCC3itgQAGMUahKkL+1Kw38d/HLMhoUE9m4OO&#xA;Zyy5D7/2Mq8u6Sul6VFbU/en45z4yMN/u6ZZCNBwdZqPFyGXTp7kyybiuxV2KsI82WNxpOrQ6/Yi&#xA;is49dR059DX2cbH+3MfIOE8Qd5oMozYzhn8Px5POv+civyzh87eV4vOmgRc9Y0yI/WYUFXntVqWT&#xA;brJCakeIr7YZixYcKIOKZxyfIeVOU7FXYqy38sPOS+VPNcF/PU2E6m3vlXc+k5B5Af5DKG+WUanD&#xA;4kK6soSovqhL20vtPjurOZLi2m4PFNGwZWXkDUEZoeEg0XJaySEp1Wa3F5HCZFFw8ZcR1+Iqppy+&#xA;85kYrpyMB2pKpdY0qG4aCW8himShZXdUIr8yMu4S3cQdP56sLKIr+leS9khcy/8AEOVMIxk9GBEe&#xA;5jd5+Y9uGP1a0eXf7crBPwHLJjEniVrDznLfW7+nbrFcA0+0XoKfa40GTjiF7lpy5ZDkr/4m8y0L&#xA;fpC5AHWjsAMtEIdwcM2nMXmgQxUfU7i4cD4mLS/Ee9FPFfvyk4iegDfGWMc9ygZ/MacC8ELv1q8m&#xA;wB96Vr94wjB3llLVdwY1qGu2PrGS+v7eOU/sySxoaDwUkGmZEQAKDiylZspXP5x8rwGkmoxluwjD&#xA;yfjGrD8clRRaAn/MfyzFTi085PQxRig+fqNH+GHhK2oTfm/EicbeC6lHTg8wiFPo9X7qYPDRaWzf&#xA;mrcNyMWnKHPQySs4r70VCfvyXCtoKT8ztff7MFrH/qpJ/wAbSNjwraDl/MHzXITS7VF7KsMOwPuU&#xA;LfecPCEWhJvOHmeXrqU6d6xN6R++PjjwhbQz69rj/b1G6b5zSH+OPCFQGFX15/zjr+WcPknyvN50&#xA;1+LhrGpRD6tC60eC1ahVN+kkxoT4CnvlsBQ4i4sgcsxji9F8p2Nxq2rTa/fCqq59BT059BT2QbD+&#xA;zBjHEeIubr8ow4xhh8fx5s3zIdG7FXYq7FVK6tYLu2ktp1DwyqVdT4HARbPHMwkJDmGD6ddXPlXW&#xA;nsLsltOuDVZOwB2Eg/UwzHieA0eTvc0I6vFxx+sfiv1Pnv8A5yQ/JQ+Xr5/N/l6Hl5ev35XsEe62&#xA;s8hryWn+6pCdv5Tt0IwzjXudfgy3sebwjK3JdirsVTHSPMWu6PJ6ml389ma1KxOyqT/lL9lvpGRn&#xA;jjLmFBIZ3pP5++cLRQl9Dbaio6yOhikP0xkJ/wAJmLLQwPLZmMhUdU/NhNW1ZNUltpbC5iRY09Bh&#xA;KKKSa/F6VPtdN8lDTcIq7boaihySmfznYM7S+lPPIxLNzKxkknclqyfqywYiyOp8kM3nOP8AZsiP&#xA;nMD/AMyxh8LzY/mT3IdvOV+3S2t1+Ql/jIcPhBh+YkoP5r1pj8Mkca9lWKM0+llZvvOHwwxOaXeo&#xA;nzJr3Lkl/NCd/wC5cw9fH0+OHgHcxM5HqqTea/MswAbUrhQOySGOvz4ca/Th4QxtLri6ublw9xM8&#xA;zjYNIxY0+ZJw0qlirsVdirsVdirsVdirsVdir3f/AJxv/JQ+Yb5PN/mGHj5esH5WUEmy3U8Zryav&#xA;+6oyN/5jt0ByyEb9zjZ8tbDm+hNRurnzVrSWFoSunW5q0nYgbGQ/qUYJHjNDk7DDCOkxccvrP4r9&#xA;bOLW1gtLaO2gUJDEoVFHgMyAKdFkmZyMjzKrhYOxV2KuxV2Kpdr2iW+r2Jgk+GVfiglpurf0PfIz&#xA;hxBydLqZYZ2OXViek6glutx5X8yRLJZTK0FJRVODggo1eqMDse36qYSr0ydpq9MMo8bFz/H2vmL8&#xA;9fyKvvIt82r6Qr3PlS5f93Juz2rsdopT/L/I/fod+onCnEw5uLY83kOQb3Yq7FXYq7FXYq7FXYq7&#xA;FXYq7FXYq7FXYq7FXYq7FXYq7FXYq9e/Ir8ir7z1fLq+rq9t5Utn/eSbq906neKI/wAv879ug36T&#xA;hC2jNm4dhzfTuraglwtv5X8txLHZQqsFIhROCAAItOiKBue/6zOV+mLl6TTDEPGy8/x9rLNB0S30&#xA;ixEEfxSt8U8tN2b+g7ZdCHCHV6rUyzTs8uiY5JxnYq7FXYq7FXYq7FUo8x+XLfWbcAkR3UYPozU/&#xA;4VvEH8MhOHE5mj1ksMu+J5hjOn6stukvlvzRbrNZSKYj66h04Hbi4IIZD2Pb9VUZ16ZOx1OkGUeL&#xA;h5/j7Xz3+df/ADjffeXjN5h8oI9/5eb95PZLWSe1U78lpUyRe/Ve9RvjKFe5wsWe9jzeEZW5LsVd&#xA;irsVdirsVdirsVdirsVdirsVdirsVdirsVdirsVe7/kp/wA4333mEw+YfN6PYeXl/eQWTVjnulG/&#xA;Jq0McXv1btQb5ZGF+5xsuethzfQmo6stwkXlvyxAsVlGohHoKETgu3FAAAqDue/62U79MXN02kGI&#xA;eLm5/j7WTeXPLlvo1uQCJLqQD1pqf8KvgB+OWwhwuu1mslml3RHIJvk3DdirsVdirsVdirsVdirs&#xA;VS7W9BsdXt/TnHGVa+lOv2lP8R7ZGcBJydNqp4ZWOXcxO11HWvKtyLS/Q3GnMf3bDcAeMZP4qcoE&#xA;jDY8nbzw4tXHihtP8c/1sA/Mz/nHXyv52hl1/wAlyxaZrD1ea2pxtZ3O/wAagVhkPiBQ+HfJGAO4&#xA;dcZTxHhyB8teaPKXmPytqj6Zr1jLY3aE0WQfC4H7Ubj4XX3U5W5EZAiwlGBk7FXYq7FXYq7FXYq7&#xA;FXYq7FXYq7FXYq7FU38r+UvMfmnVE0zQbGW+u3IqsY+FAf2pHPwovuxwsZSAFl9S/ln/AM46+V/J&#xA;MMWv+dJYtT1hKPDbU5WsDjf4FIrNIPEig8O+WCAG5ccSnlPDjDP7rUda81XJtLBDb6cp/eMdgR4y&#xA;EfgoyJkZ7Dk7GGHFpI8U95/jl+tlmiaDY6Rb+nAOUrU9WdvtMf4D2y+EBF1Gp1U80rPLuTHJOM7F&#xA;XYq7FXYq7FXYq7FXYq7FXYqpXVrbXcDQXMaywuKMjCowEWzhklA3E0WG33lPVtJuDfaBM7KN2gr8&#xA;dPCh2cex/HKDjMd4u5xa/HmHBmHx/HJC32oeU/NennRvOemRSpWlZUJVX6clP24m9wfpwjIDtJrz&#xA;dmzh6sRsfj5vGvPX/OI1xR9Q8iail3buOSadduA+56RXA+Bh/rU+eJxno40dRRqQovA/MXlPzN5b&#xA;uzaa7plxp042CzoVDf6jfZYe6nK3IEgeSU4GTsVdirsVdirsVdirsVdirsVTby75T8zeZLsWmhaZ&#xA;cajOdisCFgv+u32VHuxwsTIDm988i/8AOI1xRNQ896ilpboOT6daOC+x6S3B+BR/q1+eWDGerjy1&#xA;Fmoiy9lsdQ8p+VLAaN5N0yKJK0/dIQrP0qx+3K3uT9OJyAbRcnD2bOfqymh+PkirHynq2rXAvtfm&#xA;dVO6wV+OnhQbIPYfhgGMy3k2Zdfjwjgwj4/jmzK1tba0gWC2jWKFBRUUUGXgU6aeSUzcjZVcLB2K&#xA;uxV2KuxV2KuxV2KuxV2KuxV2KuxV2Kpbq/l3StUU/WYqTdp0+GQfT3+nISgC5Wn1mTF9J27ujGH8&#xA;ueZ9Ecy6Pcm4grUxCgP+yjb4T9G+VcEo8nZjWYM4rIKP46rJvNWm38D6b5p0hJ4jtLFJEJE/2UUo&#xA;2x8XpIMZ9l/xYpfj3hhWu/8AOO35NeaCZdGlfRbx9wtpJRK/8w81f+Fph4YnkXEmM2P6o/j3vOPM&#xA;P/OHnnG1LvoWrWepRA/BHOHtpSv/ACUT/hsBxlEdVE82A6r+QH5vabIyS+W7i4Vf92WhS4U7V29J&#xA;mP4ZExPc2jNA9WK3fk/zbZsVu9Ev4CDQiS2mXf6VyLMEJedO1AEg2soI6j02/pjYZOGnagSALWUk&#xA;9B6bf0xsKmFp5P8ANt4wW00S/nJNAI7aZt/oXFiSGVaV+QH5valIqReW7i3Vv92XZS3UbV39VlP4&#xA;ZIRPcwOaA6s+8vf84eecboo+u6tZ6bET8ccAe5lC/wDJNP8AhskMZapaqI5PR9C/5x2/JryuRLrM&#xA;r61eJuVu5KpX/mHhp/w1cPDEcymAzZPpj+PezWHzVpthAmm+VtISCIbRRRxCNP8AYxRDfB4vSIcu&#xA;HZf8WWX495Xp5c8z624l1i4MEFaiI0J/2Ma/CPp3x4JS5sjrMGAVjFn8dWT6T5d0rS1H1aKsved6&#xA;NIfp7fRlsYAOs1GsyZfqO3d0TLJuK7FXYq7FXYq7FXYq7FXYq7FXYq7FXYq7FXYq7FXYq7FUPeaf&#xA;Y3qcLuBJl7c1BI+R6j6MBiDzbMeacDcTTHr78vdJmq1rLJaseg/vEH0N8X/DZUcI6Oxxdr5B9QEv&#xA;sQP+GfOGn/7wX/qxj7KByv8Awj1T8cjwSHIuR+d02T640fd+rdv9L+f7P+/svrFOp9MP/wAmSMeK&#xA;Y6I/L6OfKVfH9bv8eatDtc6WQe/20/4krY+Me5f5Lxn6Z/c2v5lIa8tPI8KS1/40GHx/JB7GP877&#xA;P2ub8ykFOOnk+NZaf8aHHx/JR2Mf532fta/x5q021tpZJ7fbf/iKrg8Y9yf5Lxj6p/c79L+f7z+4&#xA;svq9eh9MJ/yeJx4pnov5fRw5yv4/qa/wz5w1D/e+/wDSjP2kLlv+ESifjjwSPMp/O6bH9EbPu/Xu&#xA;jrH8vdJho11LJdMOo/u0P0L8X/DZIYR1cfL2vkP0gR+1kNnp9jZJwtIEhXvwUAn5nqfpy0RA5Ouy&#xA;ZpzNyNojC1uxV2KuxV2KuxV2KuxV2KuxV//Z</xmpGImg:image>
               </rdf:li>
            </rdf:Alt>
         </xmp:Thumbnails>
      </rdf:Description>
      <rdf:Description rdf:about=""
            xmlns:dc="http://purl.org/dc/elements/1.1/">
         <dc:format>image/svg+xml</dc:format>
         <dc:title>
            <rdf:Alt>
               <rdf:li xml:lang="x-default">logo3</rdf:li>
            </rdf:Alt>
         </dc:title>
      </rdf:Description>
      <rdf:Description rdf:about=""
            xmlns:xmpTPg="http://ns.adobe.com/xap/1.0/t/pg/"
            xmlns:stDim="http://ns.adobe.com/xap/1.0/sType/Dimensions#"
            xmlns:xmpG="http://ns.adobe.com/xap/1.0/g/">
         <xmpTPg:NPages>1</xmpTPg:NPages>
         <xmpTPg:HasVisibleTransparency>False</xmpTPg:HasVisibleTransparency>
         <xmpTPg:HasVisibleOverprint>False</xmpTPg:HasVisibleOverprint>
         <xmpTPg:MaxPageSize rdf:parseType="Resource">
            <stDim:w>200.000000</stDim:w>
            <stDim:h>200.000000</stDim:h>
            <stDim:unit>Pixels</stDim:unit>
         </xmpTPg:MaxPageSize>
         <xmpTPg:PlateNames>
            <rdf:Seq>
               <rdf:li>Cyan</rdf:li>
               <rdf:li>Magenta</rdf:li>
               <rdf:li>Yellow</rdf:li>
               <rdf:li>Black</rdf:li>
            </rdf:Seq>
         </xmpTPg:PlateNames>
         <xmpTPg:SwatchGroups>
            <rdf:Seq>
               <rdf:li rdf:parseType="Resource">
                  <xmpG:groupName>Default Swatch Group</xmpG:groupName>
                  <xmpG:groupType>0</xmpG:groupType>
               </rdf:li>
            </rdf:Seq>
         </xmpTPg:SwatchGroups>
      </rdf:Description>
      <rdf:Description rdf:about=""
            xmlns:xmpMM="http://ns.adobe.com/xap/1.0/mm/"
            xmlns:stRef="http://ns.adobe.com/xap/1.0/sType/ResourceRef#"
            xmlns:stEvt="http://ns.adobe.com/xap/1.0/sType/ResourceEvent#">
         <xmpMM:DocumentID>xmp.did:9BE25983231EE911879BEDC12AB784CD</xmpMM:DocumentID>
         <xmpMM:InstanceID>xmp.iid:9BE25983231EE911879BEDC12AB784CD</xmpMM:InstanceID>
         <xmpMM:OriginalDocumentID>xmp.did:662A8A5BF51BE911B453CA4AC5D85734</xmpMM:OriginalDocumentID>
         <xmpMM:RenditionClass>proof:pdf</xmpMM:RenditionClass>
         <xmpMM:DerivedFrom rdf:parseType="Resource">
            <stRef:instanceID>xmp.iid:9AE25983231EE911879BEDC12AB784CD</stRef:instanceID>
            <stRef:documentID>xmp.did:9AE25983231EE911879BEDC12AB784CD</stRef:documentID>
            <stRef:originalDocumentID>xmp.did:662A8A5BF51BE911B453CA4AC5D85734</stRef:originalDocumentID>
            <stRef:renditionClass>proof:pdf</stRef:renditionClass>
         </xmpMM:DerivedFrom>
         <xmpMM:History>
            <rdf:Seq>
               <rdf:li rdf:parseType="Resource">
                  <stEvt:action>saved</stEvt:action>
                  <stEvt:instanceID>xmp.iid:662A8A5BF51BE911B453CA4AC5D85734</stEvt:instanceID>
                  <stEvt:when>2019-01-19T19:50:22+05:30</stEvt:when>
                  <stEvt:softwareAgent>Adobe Illustrator CS6 (Windows)</stEvt:softwareAgent>
                  <stEvt:changed>/</stEvt:changed>
               </rdf:li>
               <rdf:li rdf:parseType="Resource">
                  <stEvt:action>saved</stEvt:action>
                  <stEvt:instanceID>xmp.iid:9BE25983231EE911879BEDC12AB784CD</stEvt:instanceID>
                  <stEvt:when>2019-01-22T15:01:54+05:30</stEvt:when>
                  <stEvt:softwareAgent>Adobe Illustrator CS6 (Windows)</stEvt:softwareAgent>
                  <stEvt:changed>/</stEvt:changed>
               </rdf:li>
            </rdf:Seq>
         </xmpMM:History>
      </rdf:Description>
      <rdf:Description rdf:about=""
            xmlns:pdf="http://ns.adobe.com/pdf/1.3/">
         <pdf:Producer>Adobe PDF library 10.01</pdf:Producer>
      </rdf:Description>
   </rdf:RDF>
</x:xmpmeta>
                                                                                                    
                                                                                                    
                                                                                                    
                                                                                                    
                                                                                                    
                                                                                                    
                                                                                                    
                                                                                                    
                                                                                                    
                                                                                                    
                                                                                                    
                                                                                                    
                                                                                                    
                                                                                                    
                                                                                                    
                                                                                                    
                                                                                                    
                                                                                                    
                                                                                                    
                                                                                                    
                           
<?xpacket end="w"?>
	</metadata>
<circle fill-rule="evenodd" clip-rule="evenodd" fill="#F28E95" cx="100.363" cy="99.702" r="99.917"/>
<path fill-rule="evenodd" clip-rule="evenodd" fill="#FFFFFF" d="M197.206,99.702c0,53.484-43.354,96.843-96.843,96.843
	c-53.483,0-96.842-43.358-96.842-96.843S46.88,2.86,100.363,2.86C153.852,2.86,197.206,46.218,197.206,99.702z"/>
<path fill-rule="evenodd" clip-rule="evenodd" fill="#330903" stroke="#F4C995" stroke-width="0.2306" stroke-miterlimit="10" d="
	M194.019,99.702c0,51.72-41.932,93.65-93.657,93.65c-51.718,0-93.649-41.931-93.649-93.65c0-51.722,41.932-93.652,93.649-93.652
	c41.549,0,76.776,27.053,89.029,64.501C192.395,79.726,194.019,89.524,194.019,99.702z"/>
<g>
	<g>
		<path fill-rule="evenodd" clip-rule="evenodd" fill="#DEAC6B" d="M51.668,128.593c0.18-0.995,2.098-1.681,0.763-2.882
			c-2.398-2.153-1.529-5.162-2.185-7.762c-0.453-1.795-0.107-3.233,2.126-3.458c2.012-0.199,2.242,1.142,2.646,2.667
			c0.85,3.212-0.275,6.948,2.422,9.668c0.04,0.211,0.053,0.424,0.038,0.645c0.988,4.979,0.231,10.312,2.921,14.938
			c0.322-0.047,0.645-0.086,0.968-0.139c0.031,0.334,0.071,0.661,0.122,0.987c-2.196,0.336-4.498,1.119-5.89-1.64
			c-0.296-0.59-0.918-1.26-1.491-0.809c-1.44,1.127-2.725-0.716-4.07-0.037c0.797-3.896-3.593-7.716-0.186-11.61
			c0.358-0.408,1.192-0.379,1.805-0.559c0.989,0.793,1.966,1.332,3.13-0.455C53.53,128.325,52.597,128.46,51.668,128.593z"/>
		<path fill-rule="evenodd" clip-rule="evenodd" fill="#EAB66E" d="M24.386,79.287c0.593-0.064,1.191-0.127,1.786-0.191
			c0.893,2.574,0.099,5.888,3.125,7.536c1.205,1.187,2.41,2.373,4.175,2.615c6.261,3.751,13.178,3.838,20.121,3.787
			c0.432,0.313,0.867,0.625,1.301,0.935c-1.822,0.369-2.787,1.424-2.589,3.408c0.994,5.279,0.436,10.987,4.066,15.543
			c0.065,0.308,0.115,0.616,0.145,0.933c-1.601,2.399-0.068,4.729,0.152,7.093c0.257,1.959,0.515,3.917,0.775,5.881
			c-2.7-2.72-1.575-6.456-2.425-9.668c-0.404-1.525-0.634-2.866-2.646-2.667c-2.233,0.225-2.579,1.663-2.126,3.458
			c0.655,2.6-0.214,5.608,2.185,7.762c1.335,1.201-0.583,1.887-0.763,2.882l-0.01,0.01c-0.612,0.18-1.446,0.15-1.805,0.559
			c-3.407,3.895,0.983,7.714,0.186,11.61c1.345-0.679,2.63,1.164,4.07,0.037c0.573-0.451,1.195,0.219,1.491,0.809
			c1.392,2.759,3.693,1.976,5.89,1.64c3.001,1.178,5.906,0.076,8.839-0.395c0.98-0.002,2.058-0.493,2.817,0.604
			c-2.82,0.459-5.64,0.916-8.462,1.375c-1.603,0.064-3.25,0.399-4.803,0.137c-3.59-0.598-5.133,0.325-4.517,4.436
			c0.337,2.263,0.712,4.863-0.954,6.997c-3.496-0.564-5.37-3.185-6.352-6.17c-5.977-18.211-11.769-36.483-17.621-54.732
			c-0.997-3.517-1.292-7.438-5.113-9.325C25.013,83.885,24.698,81.586,24.386,79.287z M41.231,110.106
			c0.2,0.098,0.398,0.193,0.599,0.293c-0.154-0.162-0.307-0.326-0.457-0.486c-0.556-0.693-1.298-0.789-2.097-0.676
			c-0.178-0.117-0.351-0.23-0.527-0.342c0.154,0.143,0.304,0.289,0.46,0.432C39.71,110.048,40.442,110.157,41.231,110.106z
			 M45.46,111.324c-0.414-0.178-0.82-0.365-1.24-0.512c-0.035-0.012-0.16,0.252-0.243,0.396c0.454,0.107,0.9,0.217,1.351,0.324
			c2.62,1.539,5.36,2.075,9.688,1.033C51,111.43,48.292,110.938,45.46,111.324z M46.079,137.733c-0.077,0.236-0.19,0.479-0.21,0.721
			c-0.005,0.076,0.298,0.275,0.363,0.24c0.204-0.111,0.365-0.314,0.543-0.477C46.543,138.054,46.312,137.894,46.079,137.733z"/>
		<path fill-rule="evenodd" clip-rule="evenodd" fill="#E807E8" stroke="#FC06FC" stroke-width="0.2381" stroke-miterlimit="10" d="
			M79.894,49.237c2.39,3.445,6.014,6.26,5.485,11.206c-1.459-0.043-1.832-2.65-3.378-1.83c-1.315,0.693-0.208,2.319-0.397,3.511
			c-0.687-0.588-1.378-1.174-2.068-1.762c-0.897-3.174-0.028-8.459-5.486-7.025c-3.632,0.956-7.496,1.51-10.854,2.773
			c-11.492,4.314-23.73,4.316-35.37,7.483c0.228-0.926,0.453-1.856,0.676-2.788c0.655-0.463,1.261-1.218,1.975-1.357
			c9.09-1.734,14.975-9.05,22.501-13.496c1.634,5.098,4.953,1.211,7.496,1.479c-0.329,3.42,0.933,4.736,4.409,4
			c2.195-0.465,4.613-0.686,6.174-2.196c2.381-2.309,4.912-2.49,7.787-1.91l0.012,0.015C78.823,48.189,79.041,48.897,79.894,49.237z
			"/>
		<path fill-rule="evenodd" clip-rule="evenodd" fill="#FF36C7" stroke="#FC06FC" stroke-width="0.2381" stroke-miterlimit="10" d="
			M78.841,47.326c-2.875-0.581-5.406-0.399-7.787,1.91c-1.561,1.511-3.979,1.731-6.174,2.196c-3.476,0.735-4.738-0.58-4.411-4.002
			c0.88-0.226,1.761-0.447,2.646-0.67c1.188-0.242,2.811-0.313,2.485-2.027c-0.316-1.67-1.792-1.313-3.012-0.918
			c-3.316,0.191-6.606,0.489-9.616,2.139c-7.523,4.446-13.408,11.761-22.498,13.496c-0.713,0.14-1.319,0.895-1.975,1.357
			c1.747-6.758,5.973-11.616,11.82-14.718c10.451-5.547,21.534-5.852,32.732-2.822C75.286,43.871,77.553,45.013,78.841,47.326z"/>
		<path fill-rule="evenodd" clip-rule="evenodd" fill="#F216C8" stroke="#FC06FC" stroke-width="0.2381" stroke-miterlimit="10" d="
			M27.824,63.594c11.64-3.167,23.878-3.169,35.37-7.483c3.359-1.264,7.223-1.817,10.854-2.773c5.458-1.434,4.589,3.852,5.486,7.025
			c-2.809-2.979-6.275-0.007-9.085-0.95c-8.508-2.848-15.166,2.949-22.706,4.482c-0.638,0.094-1.275,0.185-1.911,0.275
			c-3.52-1.703-6.912,0.166-10.328,0.499c-5.214,0.509-6.213,2.315-6.256,7.767c-0.034,4.733,0.925,9.465,0.048,14.196
			c-3.026-1.648-2.232-4.962-3.125-7.536C27.268,73.99,26.184,68.64,27.824,63.594z"/>
		<path fill-rule="evenodd" clip-rule="evenodd" fill="#A05322" d="M90.495,112.01c-0.29,11.03-0.477,22.062-0.914,33.085
			c-0.205,5.179-4.034,7.551-8.027,9.598c-1.724-4.104-1.351-8.837-3.605-12.79c1.452-0.449,2.736-1.164,3.745-2.356
			c0.612-0.41,1.223-0.826,1.836-1.24c1.958-0.504,2.096-1.79,1.398-3.43c3.778-4.645,6.436-9.401,2.056-15.26
			c-0.915-1.217-0.031-2.573,0.673-3.667C88.528,114.587,89.541,113.321,90.495,112.01z"/>
		<path fill-rule="evenodd" clip-rule="evenodd" fill="#BD7C3F" d="M77.949,141.902c2.254,3.953,1.881,8.686,3.605,12.79
			c-1.768,1.761-3.997,2.386-6.345,2.716c-0.311-0.066-0.897-0.184-0.896-0.189c0.852-4.698-0.617-9.187-1.167-13.755
			c-0.759-1.095-1.837-0.604-2.817-0.598c-0.877-1.853,2.917-1.962,1.451-3.943c-2.476-3.364-0.781-7.284-1.533-10.867
			c1.835-0.362,3.667-0.718,5.504-1.079c1.671,4.316,3.975,8.588,0.981,13.268C77.137,140.797,77.543,141.348,77.949,141.902z"/>
		<path fill-rule="evenodd" clip-rule="evenodd" fill="#793A13" d="M92.604,75.777c-1.559,6.612,0.158,13.465-1.384,20.079
			c-0.78,1.751-2.781,2.979-2.183,5.329l0.033-0.053c-0.908-0.09-1.275,0.242-0.858,1.176l0.04-0.049
			c-1.246-0.883-4.066,3.177-4.14-1.385c-0.098-0.776-0.197-1.552-0.296-2.329c1.268-3.053,0.469-6.23,0.5-9.352
			c0.013-1.116-0.976-0.999-1.779-0.732c-0.19-1.102-0.376-2.202-0.564-3.304c3.544-1.362,2.91-5.041,4.076-7.723
			C88.914,79.724,90.224,75.522,92.604,75.777z"/>
		<path fill-rule="evenodd" clip-rule="evenodd" fill="#793A13" d="M90.495,112.01c-0.954,1.312-1.966,2.577-2.839,3.939
			c-0.704,1.094-1.588,2.45-0.673,3.667c4.38,5.858,1.723,10.615-2.056,15.26c-0.127-4.036-0.492-8.097-0.271-12.11
			c0.105-1.924,0.154-3.159-1.895-3.595c-0.989-0.455-1.391-1.38-1.254-2.343c0.216-1.507,1.135,0.014,1.696-0.285
			c1.215-0.648,2.083-1.442,1.441-3.017c-0.076-3.01-1.145-6.157,1.161-8.838c1.343-0.25,2.175-1.039,2.444-2.429l-0.04,0.049
			c0.59-0.154,0.914-0.516,0.858-1.176l-0.033,0.053c0.814-0.771,1.627-1.54,2.439-2.311
			C91.15,103.251,90.824,107.629,90.495,112.01z"/>
		<path fill-rule="evenodd" clip-rule="evenodd" fill="#DEAC6B" d="M54.411,156.41c1.667-2.134,1.291-4.734,0.954-6.997
			c-0.617-4.11,0.926-5.033,4.517-4.436c1.553,0.263,3.2-0.072,4.803-0.137c0.607,4.572,1.217,9.15,1.826,13.727
			C62.23,159.308,58.352,157.671,54.411,156.41z"/>
		<path fill-rule="evenodd" clip-rule="evenodd" fill="#CD9152" d="M66.51,158.567c-0.609-4.576-1.218-9.154-1.826-13.727
			c2.822-0.459,5.642-0.916,8.462-1.375c0.55,4.566,2.018,9.055,1.167,13.753c-0.002,0.006,0.585,0.123,0.896,0.189
			C72.497,159.276,69.479,158.726,66.51,158.567z"/>
		<path fill-rule="evenodd" clip-rule="evenodd" fill="#FF36C7" stroke="#FC06FC" stroke-width="0.2381" stroke-miterlimit="10" d="
			M81.6,62.126c0.191-1.193-0.916-2.819,0.4-3.513c1.547-0.82,1.919,1.787,3.378,1.83c1.404,2.795,4.15,4.677,5.083,7.798
			c0.102,1.845,1.417,4.491-0.995,5.094c-1.875,0.471-1.851-2.51-2.796-3.865c-0.27-0.391-0.625-0.717-0.945-1.07
			c-1.076-1.768-2.153-3.541-3.233-5.31c-0.266-0.292-0.532-0.585-0.799-0.875L81.6,62.126z"/>
		<path fill-rule="evenodd" clip-rule="evenodd" fill="#FF36C7" stroke="#FC06FC" stroke-width="0.2381" stroke-miterlimit="10" d="
			M85.729,68.399c0.317,0.354,0.672,0.68,0.942,1.07c0.945,1.355,0.92,4.336,2.796,3.865c2.412-0.603,1.097-3.249,0.995-5.094
			c1.67,1.728,3.307,3.465,2.847,6.222c-0.26,0.441-0.514,0.885-0.77,1.328l0.065-0.014c-2.38-0.255-3.69,3.946-6.559,1.658
			C85.937,74.425,85.834,71.411,85.729,68.399z"/>
		<path fill-rule="evenodd" clip-rule="evenodd" fill="#DCA461" d="M91.476,98.875c-0.813,0.771-1.625,1.54-2.439,2.311
			c-0.598-2.35,1.403-3.578,2.183-5.329C91.306,96.864,91.39,97.866,91.476,98.875z"/>
		<path fill-rule="evenodd" clip-rule="evenodd" fill="#CD9152" stroke="#FC06FC" stroke-width="0.2381" stroke-miterlimit="10" d="
			M79.894,49.237c-0.853-0.34-1.07-1.048-1.041-1.897C79.88,47.583,79.916,48.393,79.894,49.237z"/>
		<path fill-rule="evenodd" clip-rule="evenodd" fill="#793A13" stroke="#FC06FC" stroke-width="0.2381" stroke-miterlimit="10" d="
			M92.539,75.791c0.256-0.443,0.51-0.887,0.77-1.328C93.509,75.183,93.048,75.504,92.539,75.791z"/>
		<path fill-rule="evenodd" clip-rule="evenodd" fill="#700356" stroke="#FC06FC" stroke-width="0.2381" stroke-miterlimit="10" d="
			M45.833,64.17c0.636-0.091,1.273-0.182,1.911-0.275c5.149,1.041,10.271,0.379,14.675-2.212c2.856-1.68,4.524-0.956,6.228,0.918
			c1.617,1.78,2.983,3.84,4.261,5.904c3.297,5.347,3.081,15.279-0.326,19.839c-0.598,0.431-1.195,0.862-1.79,1.291
			c-1.903,0.346-3.802,0.691-5.701,1.034c-0.952,0.158-1.902,0.311-2.852,0.466c-2.917,0.458-6.086-0.271-8.646,1.899
			c-6.943,0.051-13.86-0.036-20.121-3.787c-0.213-5.719-1.932-11.234-1.58-17.085c0.259-4.288,2.002-5.588,5.798-5.968
			C40.43,65.919,43.53,66.523,45.833,64.17z M61.432,78.27c-0.753-6.074-1.689-6.949-6.763-6.307
			c-5.132,0.647-7.315,2.876-6.792,6.927c0.598,4.646,3.851,7.476,7.947,6.921C60.97,85.11,62.091,83.602,61.432,78.27z"/>
		<path fill-rule="evenodd" clip-rule="evenodd" fill="#CD9152" d="M62.239,91.135c0.95-0.155,1.9-0.308,2.852-0.466
			c-0.1,3.46-0.221,6.893,0.397,10.347c0.667,3.716,1.396,7.476,0.684,11.299c-3.226,0.508-6.456,1.019-9.685,1.522l0.029,0.016
			c-0.03-0.316-0.079-0.625-0.145-0.933c-0.008-0.375-0.016-0.752-0.025-1.123c2.04-0.137,3.892-0.408,3.355-3.339
			c-0.921-5.035-0.835-10.087-0.107-15.138C60.877,93.1,62.302,93.061,62.239,91.135z"/>
		<path fill-rule="evenodd" clip-rule="evenodd" fill="#BD7C3F" d="M57.479,127.463c0.015-0.213,0.002-0.426-0.038-0.637
			c-0.258-1.964-0.516-3.922-0.775-5.881c0.574-0.105,1.145-0.207,1.716-0.313c1.291,2.145-1.377,6.766,3.839,6.441
			c7.985-1.094,9.232-2.993,7.226-11.162c-0.228-0.929-0.791-1.774-1.197-2.657c2.782-0.786,5.568-1.579,8.353-2.364
			c0.732,4.382,1.326,8.763,1.03,13.231C71.197,127.018,64.608,128.96,57.479,127.463z"/>
		<path fill-rule="evenodd" clip-rule="evenodd" fill="#CD9152" d="M61.49,143.257c-0.051-0.326-0.091-0.653-0.122-0.987
			c1.042-0.539,3.775,0.845,1.906-2.692c-1.585-3.009-1.505-6.888-0.723-10.463c2.565-0.355,5.13-0.707,7.696-1.059
			c0.752,3.583-0.942,7.503,1.533,10.867c1.465,1.981-2.328,2.091-1.451,3.943C67.396,143.333,64.491,144.435,61.49,143.257z"/>
		<path fill-rule="evenodd" clip-rule="evenodd" fill="#FF36C7" stroke="#FC06FC" stroke-width="0.2381" stroke-miterlimit="10" d="
			M45.833,64.17c-2.303,2.354-5.402,1.749-8.142,2.024c-3.796,0.38-5.54,1.68-5.798,5.968c-0.352,5.851,1.367,11.366,1.58,17.085
			c-1.765-0.242-2.97-1.429-4.175-2.615c0.877-4.731-0.082-9.463-0.048-14.196c0.043-5.451,1.042-7.258,6.256-7.767
			C38.92,64.336,42.313,62.467,45.833,64.17z"/>
		<path fill-rule="evenodd" clip-rule="evenodd" fill="#DCA461" d="M59.595,93.32c-0.728,5.051-0.814,10.103,0.107,15.138
			c0.536,2.931-1.315,3.202-3.356,3.339c-1.145-4.869-0.611-10.229-4.041-14.42c-0.197-1.984,0.768-3.039,2.589-3.408
			C56.457,93.753,58.028,93.539,59.595,93.32z"/>
		<path fill-rule="evenodd" clip-rule="evenodd" fill="#BD7C3F" d="M52.305,97.377c3.429,4.191,2.896,9.551,4.041,14.42
			c0.01,0.371,0.018,0.748,0.026,1.123C52.74,108.364,53.298,102.656,52.305,97.377z"/>
		<path fill-rule="evenodd" clip-rule="evenodd" fill="#BD7C3F" d="M59.595,93.32c-1.566,0.219-3.138,0.433-4.701,0.648
			c-0.434-0.31-0.87-0.622-1.301-0.935c2.56-2.171,5.729-1.441,8.646-1.899C62.302,93.061,60.877,93.1,59.595,93.32z"/>
		<path fill-rule="evenodd" clip-rule="evenodd" fill="#CD9152" d="M45.462,111.322c2.831-0.385,5.538,0.107,9.554,1.244
			c-4.329,1.042-7.068,0.506-9.688-1.033L45.462,111.322z"/>
		<path fill-rule="evenodd" clip-rule="evenodd" fill="#CD9152" d="M58.382,120.633c-0.571,0.105-1.143,0.207-1.716,0.313
			c-0.218-2.364-1.75-4.693-0.15-7.093l-0.029-0.016c0.361,0.309,0.721,0.611,1.078,0.918
			C57.838,116.715,58.11,118.673,58.382,120.633z"/>
		<path fill-rule="evenodd" clip-rule="evenodd" fill="#DEAC6B" d="M46.081,137.733c0.231,0.16,0.462,0.32,0.694,0.484
			c-0.178,0.162-0.34,0.365-0.543,0.477c-0.065,0.035-0.368-0.164-0.363-0.24C45.888,138.212,46.002,137.97,46.081,137.733z"/>
		<path fill-rule="evenodd" clip-rule="evenodd" fill="#CD9152" d="M39.276,109.237c0.798-0.113,1.541-0.018,2.097,0.676
			l-0.145,0.193c-0.786,0.051-1.518-0.059-2.019-0.779L39.276,109.237z"/>
		<path fill-rule="evenodd" clip-rule="evenodd" fill="#CD9152" d="M45.328,111.533c-0.451-0.107-0.897-0.217-1.351-0.324
			c0.083-0.145,0.208-0.408,0.243-0.396c0.419,0.146,0.826,0.334,1.242,0.512C45.462,111.322,45.328,111.533,45.328,111.533z"/>
		<path fill-rule="evenodd" clip-rule="evenodd" fill="#CD9152" d="M41.373,109.913c0.15,0.16,0.303,0.324,0.457,0.486
			c-0.201-0.1-0.399-0.195-0.599-0.293C41.228,110.106,41.373,109.913,41.373,109.913z"/>
		<path fill-rule="evenodd" clip-rule="evenodd" fill="#CD9152" d="M39.209,109.327c-0.156-0.143-0.306-0.289-0.46-0.432
			c0.176,0.111,0.349,0.225,0.527,0.342L39.209,109.327z"/>
		<path fill-rule="evenodd" clip-rule="evenodd" fill="#DD05AA" stroke="#FC06FC" stroke-width="0.2381" stroke-miterlimit="10" d="
			M72.582,88.344c3.407-4.56,3.624-14.492,0.326-19.839c-1.278-2.064-2.644-4.124-4.261-5.904c-1.704-1.874-3.372-2.598-6.228-0.918
			c-4.404,2.591-9.526,3.253-14.675,2.212c7.54-1.533,14.198-7.33,22.706-4.482c2.811,0.943,6.276-2.029,9.085,0.95
			c0.69,0.588,1.381,1.174,2.068,1.762c-0.002,0.002,0.091,0.091,0.094,0.091c0.264,0.29,0.531,0.583,0.796,0.875
			c1.08,1.769,2.157,3.542,3.233,5.31c0.108,3.012,0.211,6.025,0.319,9.036c-1.165,2.682-0.53,6.36-4.074,7.723
			C78.841,86.222,75.712,87.281,72.582,88.344z"/>
		<path fill-rule="evenodd" clip-rule="evenodd" fill="#ED26BF" stroke="#FC06FC" stroke-width="0.2381" stroke-miterlimit="10" d="
			M63.114,46.759c-0.884,0.224-1.765,0.445-2.646,0.67c-2.541-0.265-5.859,3.622-7.494-1.477c3.006-1.65,6.296-1.948,9.613-2.142
			C62.76,44.792,62.939,45.778,63.114,46.759z"/>
		<path fill-rule="evenodd" clip-rule="evenodd" fill="#E83DC0" stroke="#FC06FC" stroke-width="0.2381" stroke-miterlimit="10" d="
			M63.114,46.759c-0.175-0.981-0.354-1.966-0.526-2.948c1.22-0.391,2.695-0.749,3.012,0.921
			C65.925,46.445,64.302,46.517,63.114,46.759z"/>
		<path fill-rule="evenodd" clip-rule="evenodd" fill="#DEAC6B" d="M82.762,119.171c2.049,0.436,2,1.671,1.895,3.595
			c-0.221,4.014,0.144,8.074,0.271,12.11c0.698,1.64,0.561,2.926-1.398,3.43c-0.236-0.188-0.476-0.367-0.715-0.551
			c-0.727-4.553,1.713-9.457-1.458-13.736c-0.053-0.328-0.103-0.658-0.157-0.984C82.317,122.006,83.213,120.873,82.762,119.171z"/>
		<path fill-rule="evenodd" clip-rule="evenodd" fill="#DEAC6B" d="M77.949,141.902c-0.405-0.555-0.812-1.105-1.217-1.658
			c1.475-0.417,2.948-0.837,4.425-1.247c0.178,0.182,0.357,0.363,0.54,0.549C80.685,140.738,79.4,141.453,77.949,141.902z"/>
		<path fill-rule="evenodd" clip-rule="evenodd" fill="#DEAC6B" d="M83.529,138.306c-0.613,0.414-1.224,0.83-1.836,1.24
			c-0.179-0.186-0.358-0.367-0.534-0.549c0.555-0.41,1.106-0.822,1.654-1.242C83.054,137.938,83.293,138.118,83.529,138.306z"/>
		<path fill-rule="evenodd" clip-rule="evenodd" fill="#A05322" d="M82.814,137.755c-0.548,0.42-1.1,0.832-1.654,1.242
			c-1.479,0.41-2.953,0.83-4.428,1.247c2.994-4.68,0.69-8.951-0.979-13.268c1.869-0.984,3.735-1.976,5.603-2.958
			C84.527,128.298,82.087,133.202,82.814,137.755z"/>
		<path fill-rule="evenodd" clip-rule="evenodd" fill="#EAB66E" d="M81.356,124.019c-1.868,0.982-3.734,1.974-5.603,2.958
			c-1.838,0.361-3.67,0.717-5.506,1.079c-2.566,0.352-5.13,0.703-7.699,1.059c-2.415,0.047-2.875,1.437-2.494,3.599
			c0.568,3.207,1.05,6.431,0.345,9.695c-2.69-4.626-1.933-9.959-2.921-14.938c7.129,1.489,13.718-0.453,20.155-3.354
			c1.187-0.361,2.374-0.721,3.566-1.082C81.253,123.36,81.303,123.69,81.356,124.019z"/>
		<path fill-rule="evenodd" clip-rule="evenodd" fill="#A05322" d="M72.582,88.344c3.131-1.063,6.259-2.122,9.39-3.186
			c0.187,1.102,0.373,2.202,0.561,3.302c1.104,3.27-1.19,6.998,1.282,10.086c0.099,0.777,0.198,1.553,0.296,2.329
			c-2.458,0.771-1.279,2.671-1.245,4.21c-2.216,2.647-5.343,3.482-8.414,4.43c0.733-4.873-0.669-9.604-1.027-14.393
			c-0.145-1.956,0.785-4.979-2.633-5.487C71.386,89.206,71.983,88.774,72.582,88.344z"/>
		<path fill-rule="evenodd" clip-rule="evenodd" fill="#DCA461" d="M83.814,98.546c-2.472-3.088-0.178-6.816-1.282-10.086
			c0.805-0.265,1.794-0.382,1.781,0.734C84.283,92.315,85.082,95.493,83.814,98.546z"/>
		<path fill-rule="evenodd" clip-rule="evenodd" fill="#DCA461" d="M82.865,105.085c-0.034-1.539-1.212-3.438,1.245-4.21
			c0.074,4.562,2.895,0.502,4.14,1.385c-0.27,1.39-1.101,2.179-2.444,2.429C84.827,104.821,83.848,104.952,82.865,105.085z"/>
		<path fill-rule="evenodd" clip-rule="evenodd" fill="#DCA461" d="M89.069,101.133c0.056,0.66-0.269,1.021-0.858,1.176
			C87.794,101.375,88.161,101.043,89.069,101.133z"/>
		<path fill-rule="evenodd" clip-rule="evenodd" fill="#A05322" d="M81.199,123.034c-1.192,0.361-2.379,0.721-3.566,1.082
			c0.295-4.463-0.298-8.844-1.03-13.226c2.845-1.481,6.253-4.828,6.469,2.158c0.026,0.894,0.984,0.507,1.574,0.478
			c0.642,1.574-0.226,2.368-1.441,3.017c-0.561,0.299-1.48-1.222-1.696,0.285c-0.137,0.963,0.265,1.888,1.254,2.343
			C83.213,120.873,82.317,122.006,81.199,123.034z"/>
		<path fill-rule="evenodd" clip-rule="evenodd" fill="#EAB66E" d="M84.646,113.526c-0.59,0.029-1.548,0.416-1.574-0.478
			c-0.215-6.986-3.624-3.64-6.469-2.158c-2.785,0.785-5.571,1.578-8.354,2.364c-2.566,0.361-5.132,0.729-7.7,1.094
			c-0.996,0.135-1.987,0.271-2.984,0.406c-0.357-0.307-0.717-0.609-1.078-0.918c3.229-0.504,6.459-1.015,9.685-1.522
			c2.606-1.408,5.789-1.033,8.28-2.8c3.07-0.947,6.197-1.782,8.414-4.43c0.982-0.133,1.962-0.264,2.941-0.396
			C83.5,107.369,84.569,110.517,84.646,113.526z"/>
		<path fill-rule="evenodd" clip-rule="evenodd" fill="#A05322" stroke="#FC06FC" stroke-width="0.2381" stroke-miterlimit="10" d="
			M82.493,63.09c-0.266-0.292-0.532-0.585-0.796-0.875C81.96,62.505,82.227,62.798,82.493,63.09z"/>
		<path fill-rule="evenodd" clip-rule="evenodd" fill="#BD7C3F" d="M74.452,109.515c-2.491,1.767-5.673,1.392-8.28,2.8
			c0.712-3.823-0.017-7.583-0.684-11.299c-0.619-3.454-0.498-6.887-0.397-10.347c1.898-0.343,3.797-0.688,5.701-1.034
			c3.417,0.509,2.488,3.531,2.633,5.487C73.783,99.911,75.185,104.642,74.452,109.515z"/>
		<path fill-rule="evenodd" clip-rule="evenodd" fill="#AA0583" stroke="#FC06FC" stroke-width="0.2381" stroke-miterlimit="10" d="
			M61.432,78.27c0.659,5.332-0.462,6.841-5.609,7.541c-4.096,0.555-7.349-2.274-7.947-6.921c-0.522-4.051,1.66-6.279,6.792-6.927
			C59.743,71.32,60.679,72.195,61.432,78.27z"/>
		<path fill-rule="evenodd" clip-rule="evenodd" fill="#DCA461" d="M60.399,142.408c0.705-3.265,0.223-6.488-0.345-9.695
			c-0.381-2.162,0.079-3.552,2.494-3.599c-0.78,3.575-0.859,7.454,0.726,10.463c1.869,3.537-0.865,2.153-1.906,2.692
			C61.044,142.322,60.721,142.361,60.399,142.408z"/>
		<path fill-rule="evenodd" clip-rule="evenodd" fill="#EAB66E" d="M51.668,128.593c0.929-0.133,1.862-0.268,3.12-0.445
			c-1.165,1.787-2.141,1.248-3.13,0.455L51.668,128.593z"/>
		<path fill-rule="evenodd" clip-rule="evenodd" fill="#CD9152" d="M60.549,114.349c2.567-0.365,5.134-0.732,7.7-1.094
			c0.408,0.883,0.971,1.729,1.199,2.657c2.006,8.169,0.759,10.068-7.226,11.162C61.662,122.838,61.109,118.595,60.549,114.349z"/>
		<path fill-rule="evenodd" clip-rule="evenodd" fill="#DCA461" d="M60.549,114.349c0.56,4.246,1.113,8.489,1.672,12.726
			c-5.217,0.324-2.548-4.297-3.839-6.441c-0.271-1.96-0.543-3.918-0.817-5.878C58.562,114.62,59.553,114.483,60.549,114.349z"/>
	</g>
	<g>
		<path fill-rule="evenodd" clip-rule="evenodd" fill="#843629" stroke="#F4C995" stroke-width="0.2381" stroke-miterlimit="10" d="
			M67.571,106.381c-2.636-2.847-0.946-6.364-1.4-9.543c2.986,2.073,6.826,7.583,7.01-1.846c0.009-0.357,1.385-0.684,2.128-1.026
			c0.908-0.096,1.82-0.194,2.724-0.292c1.8,1.626,3.872,2.25,6.237,1.813c0.805,0.048,1.604,0.099,2.409,0.148
			c2.609,0.11,5.401,0.534,5.586-3.471c0.793-0.087,1.589-0.173,2.384-0.259c4.353,2.972,9.007,0.551,13.511,0.796
			c1.947,0.041,3.894,0.084,5.838,0.127c2.721,0.379,5.434,0.764,8.146,1.146c0.258,1.397-1.686,3.454,0.15,4.063
			c2.469,0.821,5.291,0.66,7.551-1.652c-2.785-0.857-5.238-1.61-7.689-2.358c0.293-0.336,0.595-0.671,0.893-1.006
			c0.791,0.11,1.217-0.267,1.344-1.046c2.205-0.65,0.341-3.136,1.778-4.135c0.708-0.074,1.417-0.15,2.127-0.225
			c6.213-0.14,11.446,6.533,18.187,2.756c4.25-0.779,8.679,1.424,12.845-0.801c0.472,0.101,0.939,0.206,1.413,0.307
			c0.613,2.055,2.44,1.831,3.951,2.205c1.172,1.063,2.829,1.81,2.395,3.906c-15.369,1.972-30.711,4.282-46.123,5.828
			c-17.344,1.741-34.553,5.098-52.069,4.848C68.454,106.572,68.012,106.475,67.571,106.381z M133.175,95.142
			c-0.173,0.366-0.343,0.73-0.516,1.099c0.372,0.142,0.81,0.471,1.099,0.369c0.256-0.088,0.353-0.664,0.516-1.024
			C133.91,95.438,133.541,95.287,133.175,95.142z M139.209,95.35c-0.516-0.237-1.007-0.621-1.165-0.509
			c-0.448,0.322-0.764,0.845-1.134,1.289c0.332,0.142,0.774,0.497,0.982,0.389C138.375,96.267,138.741,95.791,139.209,95.35z
			 M143.162,96.538c0.355-0.094,0.706-0.185,1.063-0.276c-0.226-0.335-0.381-0.772-0.686-0.993
			c-0.473-0.336-1.127-0.566-1.158,0.391C142.375,95.945,142.885,96.248,143.162,96.538z"/>
		<path fill-rule="evenodd" clip-rule="evenodd" fill="#946659" stroke="#F4C995" stroke-width="0.2381" stroke-miterlimit="10" d="
			M67.571,106.381c0.441,0.094,0.883,0.191,1.326,0.283c-0.866,5.258,1.138,7.616,6.496,7.601
			c14.389-0.035,28.656-1.837,42.957-2.694c15.836-0.952,31.603-2.374,47.377-3.887c1.344-0.125,4.199,0.24,3.612-1.355
			c-1.268-3.416,1.71-6.964-0.819-10.042l0.398-0.493c1.382,0.044,2.688-0.148,3.725-1.218c0.431-0.156,0.85-0.312,1.277-0.47
			l-0.083,0.163c-0.098,4.069-6.174,8.675,1.032,12.087c1.99,11.952-1.607,23.731-1.066,35.645c0.117,2.519-1.451,4.377-2.77,6.298
			c-0.01-2.653-0.026-5.307-0.032-7.96c1.862-8.277,1.866-8.242-6.073-7.509c-1.862,0.17-3.763-0.02-5.646-0.039
			c-14.741-1.862-29.299-0.476-43.78,2.475c-0.786-0.299-1.598-0.916-2.362-0.863c-12.791,0.925-25.586,1.894-38.372,2.942
			c-1.988,0.16-3.709,1.089-4.359,3.301c-1.93,0.578-3.862,1.154-5.79,1.732c-0.305-5.354-0.611-10.703-0.917-16.055
			c4.388,1.129,8.502-1.138,12.808-1.083c-0.066,2.816-9.008,1.636-3.079,7.179c0.082,0.074-0.02,0.392-0.081,0.581
			c-0.682,2.31-0.683,2.308,1.733,2.125c9.873-0.738,19.738-1.543,29.613-2.195c18.666-1.237,37.321-2.855,56.006-3.332
			c7.386-0.189,9.673-3.579,10.379-9.918c2.074-2.024,3.88-4.095,1.177-6.968c0.576-2.907,0.341-3.864-3.366-3.47
			c-18.274,1.974-36.602,3.464-54.928,4.965c-14.5,1.188-29.017,2.163-43.53,3.179c-2.155,0.152-3.818,0.667-3.913,3.287
			c-0.527,0.105-1.052,0.213-1.583,0.316C65.391,116.039,65.152,110.959,67.571,106.381z"/>
		<path fill-rule="evenodd" clip-rule="evenodd" fill="#F7CB97" stroke="#F4C995" stroke-width="0.2381" stroke-miterlimit="10" d="
			M171.001,140.338c0.006,2.653,0.022,5.307,0.032,7.96c-0.113,0.439-0.347,0.787-0.715,1.035l0.083-0.107
			c-0.692,0.188-1.382,0.379-2.08,0.57c-1.496-4.701-4.979-5.482-9.126-4.74c-3.12,0.563-6.188,1.72-9.322,1.892
			c-6.842,0.383-13.259,5.55-20.445,1.976c-0.868-4.295-3.965-2.22-6.299-2.312c-0.881-0.115-1.766-0.232-2.649-0.34
			c-2.032-1.79-1.917,0.227-2.304,1.36c-0.996,0.25-2.188,0.092-2.725,1.334c-3.191,0.168-6.477-0.283-9.4,1.563
			c-3.826-0.006-7.659-0.02-11.488-0.031c-3.569-3.432-7.444-3.426-11.446-0.942c-4.286,2.659-8.101-0.156-12.196-1.189
			c1.493-0.555,2.98-1.104,4.471-1.657c2.084-0.193,4.164-0.391,6.245-0.59c1.772,0.08,3.594,0.449,5.17-0.801
			c0.904-0.084,1.808-0.168,2.709-0.257c0.447,0.509,0.848,0.466,1.197-0.107c6.656-0.68,13.308-1.377,19.96-2.031
			c17.453-1.729,34.921-3.281,52.344-5.28C166.427,137.252,168.831,137.894,171.001,140.338z"/>
		<path fill-rule="evenodd" clip-rule="evenodd" fill="#843629" stroke="#F4C995" stroke-width="0.2381" stroke-miterlimit="10" d="
			M76.508,125.239c-4.304-0.055-8.419,2.212-12.807,1.083c-0.579-2.019,0.197-3.705,1.236-5.334
			c0.531-0.104,1.056-0.211,1.584-0.316c29.238-2.608,58.474-5.298,87.727-7.721c4.763-0.395,9.608-2.491,14.422-0.129
			c-2.208,0.956-8.132-0.479-3.14,5.123c-8.112,0.745-16.23,1.487-24.347,2.233c-0.42,0.096-0.838,0.195-1.261,0.289
			c-10.439,0.993-20.923,1.647-31.307,3.078C97.928,125.021,87.248,125.411,76.508,125.239z M144.825,116.633
			c-3.354,1.45-7.63-1.458-11.004,2.573c4.488,0.93,8.138-0.957,11.925-1.534c0.398-0.43,1.173-1.191,1.141-1.232
			C146.158,115.584,145.47,115.994,144.825,116.633z"/>
		<path fill-rule="evenodd" clip-rule="evenodd" fill="#E6BBCB" stroke="#F4C995" stroke-width="0.2381" stroke-miterlimit="10" d="
			M160.742,89.877c-0.474-0.101-0.941-0.206-1.413-0.307l0.063-0.522c-0.407-3.554-0.812-7.106-1.218-10.663
			c3.278-3.225-0.256-4.366-1.926-4.683c-2.841-0.55-4.33-2.413-5.608-4.806c-2.381,2.699,0.313,3.925,0.601,5.647
			c-2.472,0.216-1.773,2.119-1.836,3.615c-2.373,0.978-2.991,3.568-4.589,5.257c-3.79,4.012-0.409,4.333,2.411,4.947
			c-0.248,0.67-0.496,1.339-0.742,2.008c-6.74,3.777-11.974-2.896-18.187-2.756c1.728-1.562,3.458-3.126,5.183-4.688
			c3.432-0.583,7.605,0.386,8.972-4.516c0.737,0.334,1.11-0.067,1.19-0.736c0.027-0.242-0.302-0.527-0.469-0.794
			c-0.206,0.547-0.412,1.092-0.623,1.639c-2.006-0.871-0.555-2.488-0.768-3.75c-0.045-2.449,1.111-4.923-0.151-7.344
			c2.188-1.854,5.653-2.406,5.987-6.162l0.487,0.018c7.686-0.998,8.649,8.129,14.339,10.02c5.311,1.763,7.5,5.804,9.93,10.681
			c1.943,3.894,5.246,6.754,3.069,11.594c-0.188-0.148-0.361-0.306-0.532-0.459c-0.711-4.88-3.69-5.818-7.828-4.741
			c-0.85,0.683-1.694,1.361-2.543,2.042C163.271,90.237,162.01,90.058,160.742,89.877z"/>
		<path fill-rule="evenodd" clip-rule="evenodd" fill="#843629" stroke="#F4C995" stroke-width="0.2381" stroke-miterlimit="10" d="
			M81.637,146.119c-2.081,0.199-4.16,0.396-6.245,0.59c-3.483-0.117-6.936-1.593-10.443-0.207c-0.11-1.378-0.218-2.747-0.332-4.125
			c1.928-0.578,3.86-1.154,5.79-1.732c1.601-0.025,3.086,0.512,4.792,0.471c9.344-0.225,18.532-1.835,27.783-2.849
			c4.139-0.453,8.536,1.217,12.418-1.47c14.722-0.27,29.288-2.294,43.881-4.007c1.884,0.02,3.784,0.209,5.646,0.039
			c7.939-0.733,7.936-0.769,6.073,7.509c-2.17-2.444-4.574-3.086-7.983-2.695c-17.423,1.999-34.891,3.551-52.344,5.28
			c-6.652,0.654-13.304,1.352-19.957,2.031c-0.416-0.15-0.816-0.113-1.2,0.107c-0.902,0.089-1.806,0.173-2.706,0.257
			C84.797,143.612,83.202,144.761,81.637,146.119z"/>
		<path fill-rule="evenodd" clip-rule="evenodd" fill="#946659" stroke="#F4C995" stroke-width="0.2381" stroke-miterlimit="10" d="
			M129.428,148.923c7.187,3.574,13.604-1.593,20.445-1.976c3.134-0.172,6.202-1.328,9.322-1.892c4.147-0.742,7.63,0.039,9.126,4.74
			c-22.146,1.671-44.22,4.057-66.239,7.038c-0.809,0.113-1.678-0.273-2.518-0.43c-2.134-1.217-4.488-0.852-6.753-0.857
			c-2.044-0.006-2.622-0.808-2.007-2.712c1.252-0.78,2.507-1.554,3.759-2.337c3.829,0.012,7.662,0.025,11.488,0.031
			c-1.32,1.682-4.533-0.02-5.344,3.716c5.428-1.076,10.922-0.389,14.744-5.279c0.537-1.242,1.729-1.084,2.725-1.334
			c1.457,0.777,2.502,0.813,2.304-1.36c0.884,0.107,1.769,0.225,2.649,0.336C124.206,150.305,127.215,148.476,129.428,148.923z"/>
		<path fill-rule="evenodd" clip-rule="evenodd" fill="#AE2F34" stroke="#F4C995" stroke-width="0.312" stroke-miterlimit="10" d="
			M101.279,65.354c2.704-4.45,5.01-9.251,9.926-11.741c1.8,2.224,2.91,0.313,4.088-0.772c3.222-2.956,6.265-3.217,9.127,0.475
			c-0.588,0.855-1.186,1.711-1.777,2.567c-8.432,1.25-3.906,8.873-6.158,13.165c-2.381,2.263-6.586-0.347-8.436,3.335
			c-1.082-6.039-5.287-3.299-8.552-3.2c0.123-0.894,0.246-1.788,0.373-2.683l-0.083,0.096
			C100.282,66.18,100.777,65.77,101.279,65.354z"/>
		<path fill-rule="evenodd" clip-rule="evenodd" fill="#E6BBCB" stroke="#F4C995" stroke-width="0.2381" stroke-miterlimit="10" d="
			M86.679,95.635c-0.804-0.05-1.604-0.101-2.409-0.148c-1.767-1.733-3.225-4.575-6.237-1.813c-0.904,0.098-1.816,0.196-2.724,0.292
			c0.09-2.265-0.341-4.405-1.458-6.382c0.888-0.804,1.772-1.604,2.658-2.409c6.001,1.558,8.808-2.744,11.77-6.754l-0.174,0.137
			c2.223-0.624,4.264-1.326,4.856,2.284c0.501,3.045,1.799,5.802,5.769,4.76c-1.359,2.1-2.721,4.201-4.08,6.304
			c-0.795,0.086-1.591,0.172-2.387,0.259C90.612,93.681,86.863,91.644,86.679,95.635z"/>
		<path fill-rule="evenodd" clip-rule="evenodd" fill="#DA8767" stroke="#F4C995" stroke-width="0.2381" stroke-miterlimit="10" d="
			M94.563,150.498c-1.251,0.783-2.506,1.557-3.759,2.337c-6.634-1.929-12.684,4.271-19.402,1.52
			c-0.097-0.041-0.443,0.564-0.681,0.858c-2.138,2.62-2.138,2.62-4.515-0.972c-0.421-2.581-2.724-4.84-1.256-7.743
			c3.508-1.382,6.96,0.094,10.443,0.211c-1.491,0.553-2.979,1.103-4.471,1.657c4.095,1.033,7.91,3.849,12.196,1.189
			C87.119,147.072,90.994,147.066,94.563,150.498z"/>
		<path fill-rule="evenodd" clip-rule="evenodd" fill="#843629" stroke="#F4C995" stroke-width="0.2381" stroke-miterlimit="10" d="
			M66.206,154.241c2.377,3.592,2.377,3.592,4.515,0.972c0.238-0.294,0.584-0.899,0.681-0.858c6.718,2.751,12.768-3.448,19.402-1.52
			c-0.615,1.904-0.037,2.706,2.007,2.712c2.265,0.006,4.619-0.359,6.753,0.857c-10.072,1.018-20.141,2.083-30.214,3.021
			C65.217,159.81,63.501,158.358,66.206,154.241z"/>
		<path fill-rule="evenodd" clip-rule="evenodd" fill="#502526" stroke="#F4C995" stroke-width="0.2381" stroke-miterlimit="10" d="
			M98.729,85.602c-3.97,1.042-5.268-1.715-5.769-4.76c-0.592-3.61-2.633-2.908-4.856-2.284c0.013-0.6-0.042-1.715,0.05-1.731
			c6.1-0.846,8.256-6.361,11.715-10.326c-0.127,0.895-0.25,1.789-0.369,2.683c-2.94,3.392-4.004,6.776-0.828,10.824
			c3.218,4.108,6.053,2.106,9.309,0.194c1.125-0.659,3.211-0.755,4.277-0.11c1.471,0.899-0.762,1.368-0.912,2.238
			c-2.202-0.009-3.672,0.631-2.781,3.337c-2.281-0.956-4.547-1.976-7.115-1.424C100.127,83.819,99.394,84.631,98.729,85.602z"/>
		<path fill-rule="evenodd" clip-rule="evenodd" fill="#DAB3C1" stroke="#F4C995" stroke-width="0.2381" stroke-miterlimit="10" d="
			M73.851,87.584c1.117,1.977,1.548,4.117,1.458,6.382c-0.744,0.343-2.12,0.669-2.128,1.026c-0.185,9.429-4.024,3.919-7.01,1.846
			c0.497-1.217,1.132-2.742,2.618-1.836c1.604,0.981,3.034,1.92,2.121-0.993C69.832,90.585,72.395,89.477,73.851,87.584z"/>
		<path fill-rule="evenodd" clip-rule="evenodd" fill="#89A34B" stroke="#273307" stroke-width="0.312" stroke-miterlimit="10" d="
			M131.716,48.038c0.911-2.813-2.931-4.001-2.196-6.753c0.428-0.439,0.854-0.88,1.279-1.317c6.504,0.957,4.287,6.758,5.604,10.601
			c-0.615,0.4-1.226,0.802-1.838,1.2l-0.379-0.406l-0.262,0.479c-0.212,0.076-0.426,0.168-0.629,0.273
			c-0.199-0.146-0.418-0.18-0.652-0.101C132.332,50.688,132.025,49.364,131.716,48.038z"/>
		<path fill-rule="evenodd" clip-rule="evenodd" fill="#502526" stroke="#F4C995" stroke-width="0.2381" stroke-miterlimit="10" d="
			M88.278,78.421c-2.961,4.01-5.768,8.312-11.77,6.754C80.287,82.658,83.093,78.365,88.278,78.421z"/>
		<path fill-rule="evenodd" clip-rule="evenodd" fill="#843629" stroke="#F4C995" stroke-width="0.2381" stroke-miterlimit="10" d="
			M174.869,106.355c-7.206-3.412-1.13-8.018-1.032-12.09l0.585,0.146l0.574-0.183c0.196,0.559,0.391,1.113,0.581,1.671
			c-0.078,0.165-0.264,0.397-0.213,0.488c0.171,0.303,0.433,0.557,0.659,0.83C176.047,100.319,176.732,103.507,174.869,106.355z"/>
		<path fill-rule="evenodd" clip-rule="evenodd" fill="#502526" stroke="#F4C995" stroke-width="0.2381" stroke-miterlimit="10" d="
			M101.279,65.354c-0.502,0.415-0.997,0.825-1.493,1.241C99.941,65.746,100.171,64.995,101.279,65.354z"/>
		<path fill-rule="evenodd" clip-rule="evenodd" fill="#E6BBCB" stroke="#F4C995" stroke-width="0.2381" stroke-miterlimit="10" d="
			M174.996,94.229l-0.574,0.183l-0.585-0.146c0,0.003,0.083-0.16,0.083-0.156c0.331-0.328,0.66-0.661,0.992-0.993
			c0.171,0.153,0.344,0.311,0.532,0.459C175.424,93.885,175.273,94.105,174.996,94.229z"/>
		<path fill-rule="evenodd" clip-rule="evenodd" fill="#E6BBCB" stroke="#F4C995" stroke-width="0.2381" stroke-miterlimit="10" d="
			M176.023,97.219c-0.227-0.273-0.488-0.527-0.659-0.83c-0.051-0.091,0.135-0.323,0.213-0.488
			C175.726,96.341,175.876,96.782,176.023,97.219z"/>
		<path fill-rule="evenodd" clip-rule="evenodd" fill="#946659" stroke="#F4C995" stroke-width="0.2381" stroke-miterlimit="10" d="
			M170.401,149.226l-0.083,0.107C170.314,149.335,170.401,149.226,170.401,149.226z"/>
		<path fill-rule="evenodd" clip-rule="evenodd" fill="#F7CB97" stroke="#F4C995" stroke-width="0.2381" stroke-miterlimit="10" d="
			M168.52,96.286c2.529,3.078-0.448,6.626,0.819,10.042c0.587,1.596-2.269,1.23-3.612,1.355
			c-15.774,1.513-31.541,2.935-47.377,3.887c-14.301,0.857-28.568,2.659-42.957,2.694c-5.358,0.016-7.362-2.343-6.496-7.601
			c17.515,0.25,34.724-3.106,52.068-4.848c15.412-1.546,30.754-3.856,46.123-5.83C167.565,96.087,168.046,96.186,168.52,96.286z"/>
		<path fill-rule="evenodd" clip-rule="evenodd" fill="#F7CB97" stroke="#F4C995" stroke-width="0.2381" stroke-miterlimit="10" d="
			M101.451,84.242c2.568-0.552,4.834,0.468,7.115,1.424l0.07-0.134c3.561,3.432,7.084,0.62,10.625-0.063
			c0.843-0.005,1.682-0.01,2.525-0.02c1.106,0.079,1.934-0.264,2.109-1.532c3.345,1.194,6.297-1.612,9.584-0.991
			c-1.725,1.563-3.455,3.127-5.183,4.688c-0.71,0.074-1.419,0.15-2.129,0.225c-1.954,0.764-3.909,1.529-1.776,4.135
			c-0.127,0.779-0.553,1.156-1.344,1.046c-1.77-0.065-3.676,0.478-3.836-2.397c0.027-1.297-0.698-0.952-0.926-0.033
			c-0.078,0.318-1.051,1.224,0.309,1.205c0.976-0.018,2.157,0.137,2.506-1.146c0.096-0.354-0.479-0.901-1.889-0.026
			c-2.656,1.123-4.078,1.07-5.215,2.205c-1.944-0.043-3.891-0.086-5.838-0.127c-0.648-1.598-1.166-3.584-3.338-3.261
			C99.894,90.185,100.396,87.454,101.451,84.242z"/>
		<path fill-rule="evenodd" clip-rule="evenodd" fill="#946659" stroke="#F4C995" stroke-width="0.2381" stroke-miterlimit="10" d="
			M101.451,84.242c-1.055,3.212-1.558,5.942,3.371,5.198c2.172-0.323,2.689,1.663,3.338,3.261
			c-4.504-0.245-9.159,2.176-13.511-0.796c1.359-2.103,2.721-4.204,4.08-6.304C99.394,84.631,100.127,83.819,101.451,84.242z"/>
		<path fill-rule="evenodd" clip-rule="evenodd" fill="#D26722" stroke="#F4C995" stroke-width="0.2381" stroke-miterlimit="10" d="
			M168.52,96.286c-0.474-0.101-0.954-0.199-1.432-0.3c0.435-2.095-1.223-2.842-2.393-3.904c0-0.002,0.115-0.305,0.115-0.305
			c2.385,0.008,2.428-1.624,2.273-3.402c4.138-1.077,7.117-0.139,7.828,4.741c-0.332,0.332-0.661,0.665-0.992,0.993
			c-0.428,0.154-0.847,0.31-1.277,0.466c-1.411-0.127-3.144-1.299-3.725,1.218L168.52,96.286z"/>
		<path fill-rule="evenodd" clip-rule="evenodd" fill="#502526" stroke="#F4C995" stroke-width="0.2381" stroke-miterlimit="10" d="
			M146.484,90.371c0.246-0.669,0.494-1.338,0.742-2.008c4.194-2.424,8.054,1.466,12.165,0.685l-0.063,0.522
			C155.163,91.795,150.734,89.592,146.484,90.371z"/>
		<path fill-rule="evenodd" clip-rule="evenodd" fill="#946659" stroke="#F4C995" stroke-width="0.2381" stroke-miterlimit="10" d="
			M122.156,94.026c2.451,0.748,4.904,1.501,7.689,2.358c-2.26,2.313-5.082,2.474-7.551,1.652c-1.836-0.609,0.107-2.666-0.15-4.063
			C122.145,93.978,122.156,94.026,122.156,94.026z"/>
		<path fill-rule="evenodd" clip-rule="evenodd" fill="#946659" stroke="#F4C995" stroke-width="0.2381" stroke-miterlimit="10" d="
			M86.679,95.635c0.185-3.991,3.933-1.954,5.583-3.471C92.08,96.169,89.288,95.745,86.679,95.635z"/>
		<path fill-rule="evenodd" clip-rule="evenodd" fill="#DAB3C1" stroke="#F4C995" stroke-width="0.2381" stroke-miterlimit="10" d="
			M122.156,94.026c0,0-0.012-0.049-0.012-0.053c-2.713-0.382-5.426-0.767-8.146-1.146c1.137-1.135,2.559-1.082,3.987-1.028
			c1.388,1.698,3.294,1.155,5.063,1.221C122.751,93.355,122.449,93.69,122.156,94.026z"/>
		<path fill-rule="evenodd" clip-rule="evenodd" fill="#DAB3C1" stroke="#F4C995" stroke-width="0.2381" stroke-miterlimit="10" d="
			M78.033,93.674c3.012-2.763,4.47,0.079,6.237,1.813C81.905,95.924,79.833,95.3,78.033,93.674z"/>
		<path fill-rule="evenodd" clip-rule="evenodd" fill="#DAB3C1" stroke="#F4C995" stroke-width="0.2381" stroke-miterlimit="10" d="
			M124.393,91.975c-2.133-2.605-0.178-3.371,1.776-4.135C124.733,88.839,126.598,91.324,124.393,91.975z"/>
		<path fill-rule="evenodd" clip-rule="evenodd" fill="#502526" stroke="#F4C995" stroke-width="0.2381" stroke-miterlimit="10" d="
			M160.742,89.877c1.268,0.181,2.529,0.36,3.799,0.54c0.089,0.453,0.18,0.907,0.27,1.36c0,0-0.115,0.303-0.115,0.305
			C163.183,91.708,161.355,91.932,160.742,89.877z"/>
		<path fill-rule="evenodd" clip-rule="evenodd" fill="#946659" stroke="#F4C995" stroke-width="0.2381" stroke-miterlimit="10" d="
			M133.175,95.142c0.366,0.146,0.735,0.297,1.099,0.443c-0.163,0.36-0.26,0.937-0.516,1.024c-0.289,0.102-0.727-0.228-1.099-0.369
			C132.832,95.872,133.002,95.508,133.175,95.142z"/>
		<path fill-rule="evenodd" clip-rule="evenodd" fill="#946659" stroke="#F4C995" stroke-width="0.2381" stroke-miterlimit="10" d="
			M139.209,95.35c-0.468,0.441-0.834,0.917-1.316,1.169c-0.208,0.108-0.65-0.247-0.982-0.389c0.37-0.444,0.686-0.967,1.134-1.289
			C138.202,94.729,138.693,95.112,139.209,95.35z"/>
		<path fill-rule="evenodd" clip-rule="evenodd" fill="#946659" stroke="#F4C995" stroke-width="0.2381" stroke-miterlimit="10" d="
			M143.158,96.538c-0.273-0.29-0.783-0.593-0.777-0.879c0.031-0.957,0.686-0.727,1.158-0.391c0.305,0.221,0.46,0.658,0.686,0.993
			C143.868,96.354,143.518,96.444,143.158,96.538z"/>
		<path fill-rule="evenodd" clip-rule="evenodd" fill="#F7CB97" stroke="#F4C995" stroke-width="0.2381" stroke-miterlimit="10" d="
			M141.184,120.179c8.116-0.746,16.234-1.488,24.351-2.233c1.847,0.577,3.697,1.151,5.546,1.733
			c-0.706,6.339-2.993,9.729-10.379,9.918c-18.685,0.477-37.34,2.095-56.006,3.332c-9.875,0.652-19.74,1.457-29.613,2.195
			c-2.416,0.183-2.415,0.185-1.733-2.125c0.061-0.189,0.163-0.507,0.081-0.581c-5.93-5.543,3.012-4.362,3.079-7.179
			c10.739,0.172,21.419-0.219,32.107-1.693c10.384-1.431,20.867-2.085,31.305-3.074C140.34,120.376,140.764,120.274,141.184,120.179
			z"/>
		<path fill-rule="evenodd" clip-rule="evenodd" fill="#DCDBDC" stroke="#F4C995" stroke-width="0.2381" stroke-miterlimit="10" d="
			M168.67,112.822c-4.813-2.362-9.659-0.266-14.422,0.129c-29.253,2.423-58.489,5.112-87.727,7.721
			c0.093-2.62,1.756-3.135,3.912-3.287c14.513-1.016,29.031-1.991,43.53-3.179c18.326-1.501,36.653-2.991,54.928-4.965
			c3.707-0.395,3.942,0.563,3.363,3.472C171.057,112.748,169.864,112.783,168.67,112.822z"/>
		<path fill-rule="evenodd" clip-rule="evenodd" fill="#E6BBCB" stroke="#F4C995" stroke-width="0.2381" stroke-miterlimit="10" d="
			M115.4,136.797c-3.882,2.687-8.279,1.017-12.418,1.47c-9.251,1.014-18.439,2.624-27.783,2.849
			c-1.706,0.041-3.191-0.496-4.792-0.471c0.65-2.212,2.371-3.141,4.359-3.301c12.786-1.049,25.581-2.018,38.372-2.942
			c0.765-0.053,1.576,0.564,2.362,0.869C115.467,135.779,115.434,136.287,115.4,136.797z"/>
		<path fill-rule="evenodd" clip-rule="evenodd" fill="#F2C4D6" stroke="#F4C995" stroke-width="0.2381" stroke-miterlimit="10" d="
			M115.4,136.797c0.033-0.51,0.066-1.018,0.101-1.526c14.481-2.956,29.039-4.343,43.78-2.48
			C144.688,134.503,130.122,136.527,115.4,136.797z"/>
		<path fill-rule="evenodd" clip-rule="evenodd" fill="#D26722" stroke="#F4C995" stroke-width="0.2381" stroke-miterlimit="10" d="
			M168.67,112.822c1.194-0.039,2.387-0.074,3.584-0.109c2.706,2.871,0.9,4.941-1.174,6.966c-1.849-0.582-3.699-1.156-5.546-1.733
			C160.538,112.344,166.462,113.778,168.67,112.822z"/>
		<path fill-rule="evenodd" clip-rule="evenodd" fill="#843629" stroke="#F4C995" stroke-width="0.2381" stroke-miterlimit="10" d="
			M168.918,95.793c0.581-2.517,2.313-1.345,3.725-1.218C171.606,95.645,170.3,95.837,168.918,95.793z"/>
		<path fill-rule="evenodd" clip-rule="evenodd" fill="#DA8767" stroke="#F4C995" stroke-width="0.2381" stroke-miterlimit="10" d="
			M115.451,148.966c-3.822,4.891-9.316,4.203-14.744,5.279c0.811-3.735,4.023-2.034,5.344-3.716
			C108.975,148.683,112.26,149.134,115.451,148.966z"/>
		<path fill-rule="evenodd" clip-rule="evenodd" fill="#DA8767" stroke="#F4C995" stroke-width="0.2381" stroke-miterlimit="10" d="
			M129.428,148.923c-2.213-0.447-5.222,1.382-6.299-2.315C125.463,146.703,128.56,144.628,129.428,148.923z"/>
		<path fill-rule="evenodd" clip-rule="evenodd" fill="#DA8767" stroke="#F4C995" stroke-width="0.2381" stroke-miterlimit="10" d="
			M81.637,146.119c1.564-1.358,3.16-2.507,5.174-0.801C85.231,146.568,83.41,146.199,81.637,146.119z"/>
		<path fill-rule="evenodd" clip-rule="evenodd" fill="#DA8767" stroke="#F4C995" stroke-width="0.2381" stroke-miterlimit="10" d="
			M120.479,146.271c0.198,2.173-0.847,2.138-2.304,1.36C118.563,146.498,118.447,144.481,120.479,146.271z"/>
		<path fill-rule="evenodd" clip-rule="evenodd" fill="#DA8767" stroke="#F4C995" stroke-width="0.2381" stroke-miterlimit="10" d="
			M89.517,145.062c0.384-0.221,0.784-0.258,1.2-0.107C90.365,145.527,89.964,145.57,89.517,145.062z"/>
		<path fill-rule="evenodd" clip-rule="evenodd" fill="#DA8767" stroke="#F4C995" stroke-width="0.2381" stroke-miterlimit="10" d="
			M145.752,117.674c-3.793,0.575-7.442,2.462-11.931,1.532c3.374-4.031,7.649-1.123,11.004-2.573
			C145.135,116.979,145.445,117.328,145.752,117.674z"/>
		<path fill-rule="evenodd" clip-rule="evenodd" fill="#DA8767" stroke="#F4C995" stroke-width="0.2381" stroke-miterlimit="10" d="
			M144.825,116.633c0.645-0.639,1.333-1.049,2.062-0.193c0.032,0.041-0.742,0.803-1.137,1.232
			C145.445,117.328,145.135,116.979,144.825,116.633z"/>
		<path fill-rule="evenodd" clip-rule="evenodd" fill="#DA8767" stroke="#F4C995" stroke-width="0.2381" stroke-miterlimit="10" d="
			M141.184,120.179c-0.42,0.096-0.844,0.197-1.263,0.293C140.346,120.374,140.764,120.274,141.184,120.179z"/>
		<path fill-rule="evenodd" clip-rule="evenodd" fill="#AE2F34" stroke="#F4C995" stroke-width="0.312" stroke-miterlimit="10" d="
			M121.787,85.45c-0.844,0.01-1.683,0.015-2.521,0.02c-1.439-4.078-4.797-2.68-7.622-2.802l-0.296-0.341
			c0.15-0.868,2.383-1.337,0.912-2.236c-1.066-0.645-3.152-0.549-4.277,0.11c-3.256,1.912-6.091,3.914-9.309-0.194
			c-3.176-4.048-2.112-7.433,0.828-10.824c3.261-0.099,7.466-2.839,8.548,3.197c0.817,1.094-0.574,3.38,1.717,3.63
			c6.816,0.744,13.803,2.666,19.845-2.658c-0.512,6.528,2.815,3.606,5.468,2.334c2.668,3.046,4.514-0.264,6.705-0.913
			c0.213,1.259-1.238,2.876,0.768,3.747l-0.099-0.11c-1.366,4.903-5.54,3.935-8.972,4.518c-3.287-0.621-6.239,2.186-9.584,0.991
			C123.195,84.429,122.49,84.942,121.787,85.45z"/>
		<path fill-rule="evenodd" clip-rule="evenodd" fill="#89A34B" stroke="#273307" stroke-width="0.312" stroke-miterlimit="10" d="
			M133.071,53.261c0.048,0.002,0.147-0.748,0.224-1.146c0.203-0.105,0.417-0.197,0.629-0.271c-0.006,0,0.33,0.074,0.33,0.074
			l0.311-0.148c0.612-0.398,1.223-0.8,1.838-1.2c1.451,0.125,2.898,0.252,4.333,0.377c-2.803,1.915-1.403,4.491-0.358,6.306
			c1.283,2.231,3.309,0.854,4.954-0.192c1.201,1.151-0.825,4.15,2.288,4.208c-0.334,3.753-3.799,4.305-5.987,6.154
			c-1.903-0.777-2.788,1.219-4.245,1.642c0.211-8.396-4.658-12.878-11.555-15.8c-0.262-4.373,4.102-3.272,5.884-5.225
			c0.31,1.327,0.616,2.651,0.923,3.976"/>
		<path fill-rule="evenodd" clip-rule="evenodd" fill="#F2EDEE" stroke="#F4C995" stroke-width="0.2381" stroke-miterlimit="10" d="
			M159.392,89.048c-4.111,0.781-7.971-3.108-12.165-0.685c-2.82-0.614-6.201-0.936-2.411-4.947c1.598-1.688,2.216-4.279,4.587-5.252
			c0.893,1.057,1.783,2.114,2.852,3.379c0.709-2.241,1.255-3.988,1.81-5.732c1.99-0.192,3.293,0.783,4.11,2.574
			C158.58,81.941,158.984,85.494,159.392,89.048z"/>
		<path fill-rule="evenodd" clip-rule="evenodd" fill="#D26722" stroke="#F4C995" stroke-width="0.2381" stroke-miterlimit="10" d="
			M137.387,69.063c1.457-0.423,2.342-2.419,4.245-1.642c1.263,2.426,0.106,4.899,0.151,7.349c-2.191,0.652-4.037,3.962-6.709,0.916
			C136.184,73.601,137.813,71.709,137.387,69.063z"/>
		<path fill-rule="evenodd" clip-rule="evenodd" fill="#946659" stroke="#F4C995" stroke-width="0.2381" stroke-miterlimit="10" d="
			M158.174,78.385c-0.817-1.791-2.12-2.767-4.11-2.577c-0.622-1.17-1.767-1.119-2.823-1.264c-0.287-1.723-2.981-2.948-0.601-5.647
			c1.278,2.393,2.768,4.256,5.608,4.806C157.918,74.019,161.452,75.16,158.174,78.385z"/>
		<path fill-rule="evenodd" clip-rule="evenodd" fill="#DA8767" stroke="#F4C995" stroke-width="0.2381" stroke-miterlimit="10" d="
			M151.24,74.544c1.057,0.145,2.201,0.094,2.823,1.264c-0.555,1.747-1.101,3.494-1.81,5.735c-1.068-1.265-1.959-2.322-2.852-3.379
			C149.467,76.663,148.769,74.76,151.24,74.544z"/>
		<path fill-rule="evenodd" clip-rule="evenodd" fill="#843629" stroke="#F4C995" stroke-width="0.2381" stroke-miterlimit="10" d="
			M164.811,91.777c-0.09-0.453-0.181-0.907-0.27-1.36c0.849-0.681,1.693-1.359,2.543-2.042
			C167.238,90.153,167.195,91.785,164.811,91.777z"/>
		<path fill-rule="evenodd" clip-rule="evenodd" fill="#843629" stroke="#F4C995" stroke-width="0.2381" stroke-miterlimit="10" d="
			M142.551,78.52c0.211-0.547,0.417-1.092,0.623-1.639c0.167,0.267,0.496,0.552,0.469,0.794c-0.08,0.669-0.453,1.07-1.19,0.736
			C142.452,78.409,142.551,78.52,142.551,78.52z"/>
		<path fill-rule="evenodd" clip-rule="evenodd" fill="#AE777F" stroke="#7A017A" stroke-width="0.156" stroke-miterlimit="10" d="
			M137.387,69.063c0.427,2.646-1.203,4.538-2.313,6.623c-2.648,1.272-5.976,4.194-5.464-2.334c0.444-0.372,0.886-0.741,1.332-1.108
			c2.565-7.408-0.827-13.671-7.825-14.45c-0.16-0.636-0.316-1.271-0.475-1.91c0.592-0.856,1.189-1.712,1.777-2.567
			c0.473-0.017,0.939-0.033,1.412-0.053C132.729,56.185,137.598,60.667,137.387,69.063z"/>
		<path fill-rule="evenodd" clip-rule="evenodd" fill="#AE777F" stroke="#7A017A" stroke-width="0.156" stroke-miterlimit="10" d="
			M130.937,72.246c-0.44,0.364-0.882,0.733-1.326,1.105c-6.042,5.324-13.028,3.402-19.845,2.658c-2.291-0.25-0.899-2.536-1.717-3.63
			c1.85-3.679,6.055-1.069,8.441-3.332c0.203,0.163,0.404,0.321,0.611,0.475c0.609,1.024-0.646,2.732,2.002,3.103
			C123.151,73.188,126.972,70.559,130.937,72.246z"/>
		<path fill-rule="evenodd" clip-rule="evenodd" fill="#AE777F" stroke="#7A017A" stroke-width="0.156" stroke-miterlimit="10" d="
			M122.643,55.883c0.158,0.639,0.314,1.274,0.475,1.91c-4.254,3.428,1.438,2.729,1.691,4.254c-2.576,2.502-5.143,4.99-7.707,7.476
			c-0.207-0.153-0.408-0.312-0.611-0.475C118.736,64.756,114.211,57.133,122.643,55.883z"/>
		<path fill-rule="evenodd" clip-rule="evenodd" fill="#89A34B" stroke="#273307" stroke-width="0.312" stroke-miterlimit="10" d="
			M145.331,57.059c-1.646,1.046-3.671,2.424-4.954,0.192c-1.045-1.814-2.444-4.391,0.358-6.306c2.192,0.053,4.522-2.915,6.305-0.739
			C148.998,52.604,145.945,54.739,145.331,57.059z"/>
		<path fill-rule="evenodd" clip-rule="evenodd" fill="#843629" stroke="#F4C995" stroke-width="0.2381" stroke-miterlimit="10" d="
			M108.566,85.666c-0.891-2.706,0.579-3.346,2.781-3.337c0,0,0.296,0.339,0.293,0.339c-0.27,1.761-1.426,2.548-3.004,2.864
			L108.566,85.666z"/>
		<path fill-rule="evenodd" clip-rule="evenodd" fill="#843629" stroke="#F4C995" stroke-width="0.2381" stroke-miterlimit="10" d="
			M132.639,52.014c0.238-0.079,0.457-0.046,0.656,0.101"/>
		<path fill-rule="evenodd" clip-rule="evenodd" fill="#843629" stroke="#F4C995" stroke-width="0.2381" stroke-miterlimit="10" d="
			M134.564,51.769l-0.311,0.148c0,0-0.336-0.074-0.33-0.074"/>
		<path fill-rule="evenodd" clip-rule="evenodd" fill="#502526" stroke="#F4C995" stroke-width="0.2381" stroke-miterlimit="10" d="
			M108.637,85.532c1.578-0.316,2.734-1.104,3.004-2.864c2.828,0.122,6.186-1.276,7.625,2.802
			C115.721,86.152,112.197,88.964,108.637,85.532z"/>
		<path fill-rule="evenodd" clip-rule="evenodd" fill="#DAB3C1" stroke="#F4C995" stroke-width="0.2381" stroke-miterlimit="10" d="
			M120.447,89.445c0.175,0.303,0.75,0.85,0.654,1.204c-0.349,1.282-1.53,1.128-2.506,1.146c-1.359,0.019-0.387-0.887-0.309-1.205
			C118.515,89.671,119.24,89.326,120.447,89.445z"/>
		<path fill-rule="evenodd" clip-rule="evenodd" fill="#502526" stroke="#F4C995" stroke-width="0.2381" stroke-miterlimit="10" d="
			M121.787,85.45c0.703-0.508,1.408-1.021,2.109-1.532C123.721,85.187,122.894,85.529,121.787,85.45z"/>
		<path fill-rule="evenodd" clip-rule="evenodd" fill="#AE777F" stroke="#7A017A" stroke-width="0.156" stroke-miterlimit="10" d="
			M117.102,69.522c2.564-2.485,5.131-4.974,7.707-7.476c-0.254-1.524-5.945-0.826-1.691-4.254c6.998,0.779,10.391,7.042,7.825,14.45
			c-3.971-1.685-7.791,0.945-11.839,0.382C116.455,72.255,117.711,70.547,117.102,69.522z"/>
	</g>
</g>
<polygon fill-rule="evenodd" clip-rule="evenodd" fill="#FFFFFF" points="190.358,73.692 193.673,73.692 192.691,70.395 
	189.391,70.552 "/>
<polygon fill-rule="evenodd" clip-rule="evenodd" fill="#FFFFFF" points="184.086,141.719 187.64,141.719 186.064,144.843 
	182.438,144.843 "/>
</svg>
