<?xml version="1.0" encoding="utf-8"?>
<!-- Generator: Adobe Illustrator 16.0.0, SVG Export Plug-In . SVG Version: 6.00 Build 0)  -->
<!DOCTYPE svg PUBLIC "-//W3C//DTD SVG 1.1//EN" "http://www.w3.org/Graphics/SVG/1.1/DTD/svg11.dtd" [
	<!ENTITY ns_extend "http://ns.adobe.com/Extensibility/1.0/">
	<!ENTITY ns_ai "http://ns.adobe.com/AdobeIllustrator/10.0/">
	<!ENTITY ns_graphs "http://ns.adobe.com/Graphs/1.0/">
	<!ENTITY ns_vars "http://ns.adobe.com/Variables/1.0/">
	<!ENTITY ns_imrep "http://ns.adobe.com/ImageReplacement/1.0/">
	<!ENTITY ns_sfw "http://ns.adobe.com/SaveForWeb/1.0/">
	<!ENTITY ns_custom "http://ns.adobe.com/GenericCustomNamespace/1.0/">
	<!ENTITY ns_adobe_xpath "http://ns.adobe.com/XPath/1.0/">
]>
<svg version="1.1" id="Layer_1" xmlns:x="&ns_extend;" xmlns:i="&ns_ai;" xmlns:graph="&ns_graphs;"
	 xmlns="http://www.w3.org/2000/svg" xmlns:xlink="http://www.w3.org/1999/xlink" x="0px" y="0px" width="155px" height="58px"
	 viewBox="0 0 155 58" enable-background="new 0 0 155 58" xml:space="preserve">
<metadata><?xpacket begin="﻿" id="W5M0MpCehiHzreSzNTczkc9d"?>
<x:xmpmeta xmlns:x="adobe:ns:meta/" x:xmptk="Adobe XMP Core 5.3-c011 66.145661, 2012/02/06-14:56:27        ">
   <rdf:RDF xmlns:rdf="http://www.w3.org/1999/02/22-rdf-syntax-ns#">
      <rdf:Description rdf:about=""
            xmlns:xmp="http://ns.adobe.com/xap/1.0/"
            xmlns:xmpGImg="http://ns.adobe.com/xap/1.0/g/img/">
         <xmp:CreatorTool>Adobe Illustrator CS6 (Windows)</xmp:CreatorTool>
         <xmp:CreateDate>2019-01-22T20:56:28+05:30</xmp:CreateDate>
         <xmp:ModifyDate>2019-01-22T20:56:28+05:30</xmp:ModifyDate>
         <xmp:MetadataDate>2019-01-22T20:56:28+05:30</xmp:MetadataDate>
         <xmp:Thumbnails>
            <rdf:Alt>
               <rdf:li rdf:parseType="Resource">
                  <xmpGImg:width>256</xmpGImg:width>
                  <xmpGImg:height>96</xmpGImg:height>
                  <xmpGImg:format>JPEG</xmpGImg:format>
                  <xmpGImg:image>/9j/4AAQSkZJRgABAgEASABIAAD/7QAsUGhvdG9zaG9wIDMuMAA4QklNA+0AAAAAABAASAAAAAEA&#xA;AQBIAAAAAQAB/+4ADkFkb2JlAGTAAAAAAf/bAIQABgQEBAUEBgUFBgkGBQYJCwgGBggLDAoKCwoK&#xA;DBAMDAwMDAwQDA4PEA8ODBMTFBQTExwbGxscHx8fHx8fHx8fHwEHBwcNDA0YEBAYGhURFRofHx8f&#xA;Hx8fHx8fHx8fHx8fHx8fHx8fHx8fHx8fHx8fHx8fHx8fHx8fHx8fHx8fHx8f/8AAEQgAYAEAAwER&#xA;AAIRAQMRAf/EAaIAAAAHAQEBAQEAAAAAAAAAAAQFAwIGAQAHCAkKCwEAAgIDAQEBAQEAAAAAAAAA&#xA;AQACAwQFBgcICQoLEAACAQMDAgQCBgcDBAIGAnMBAgMRBAAFIRIxQVEGE2EicYEUMpGhBxWxQiPB&#xA;UtHhMxZi8CRygvElQzRTkqKyY3PCNUQnk6OzNhdUZHTD0uIIJoMJChgZhJRFRqS0VtNVKBry4/PE&#xA;1OT0ZXWFlaW1xdXl9WZ2hpamtsbW5vY3R1dnd4eXp7fH1+f3OEhYaHiImKi4yNjo+Ck5SVlpeYmZ&#xA;qbnJ2en5KjpKWmp6ipqqusra6voRAAICAQIDBQUEBQYECAMDbQEAAhEDBCESMUEFURNhIgZxgZEy&#xA;obHwFMHR4SNCFVJicvEzJDRDghaSUyWiY7LCB3PSNeJEgxdUkwgJChgZJjZFGidkdFU38qOzwygp&#xA;0+PzhJSktMTU5PRldYWVpbXF1eX1RlZmdoaWprbG1ub2R1dnd4eXp7fH1+f3OEhYaHiImKi4yNjo&#xA;+DlJWWl5iZmpucnZ6fkqOkpaanqKmqq6ytrq+v/aAAwDAQACEQMRAD8A7f8Amz+aFp5F0ZHjRbnW&#xA;b3kun2rH4Rx+1LLQg8FqNhuTt4kV5cnCHJ02nOQ+Txry3o353/mUkmtLrs1jpzOyxyvcS20LMpII&#xA;hhtx+z05UHzJrmPETnvbn5J4cW1WVPzR+Xf56+WoHvI9WvtStUB9SbTr25d1XvyjJSSlOvEEDvjK&#xA;EwuPPhntQHvCp/zj9ew63r/mDy/r0kt5Frtj++9WWTnIYH+zzDc68ZWPXtjhNkg9V1o4YiUehSDV&#xA;PLdt5Y/NmLy7r8s135fa7jVucsiepZ3OyMzIyn4A3x07qciY1KjybI5OPFxR+r9L3j87PLmjz/l5&#xA;dXcrvaT6HD6mmTxyOvBqogjND8XqUCb5k5Yjh9zrdJkIyV3vK/8AnG2O21fzneXOqme81Gwthcaf&#xA;PJJIyx7+jJXehJWQBa++UYNzu5uvuMBXIsr/AOcndN8uDRbDUJbYyeZLmVLOxlV5Ki3jLSSD0w3B&#xA;vicD7NfiGWagCvNp7PlKyP4U40v8odCsvyifRtXgeS7MEmo3ZEsilL70SQQFbj+6FFFRQ03G+EYh&#xA;wUWuWpkctj3fB4/+QnlbQvNPnS7s9ftvr1tDp8lwkbu6j1FmhjUkoyk0WQ7ZRhiCd3O1mSUIXHbd&#xA;6frn5UaR5U88+XPM3le2ZLSK+gg1TTlLTCJLpmiW5HMs6oCxDdh275ccYjIEOJDUmcJRl3bM0/N/&#xA;yzo+t+Q9Xk1GJpJNLs7m+smV3ThPDAzK1FIVulPiB2rlmWIMXH02QxmK6l4R/wA4/eT/AC75q17V&#xA;k8wWn19Le3SSJXeRaO70LHgykmnjmNhiJHd2WtyyhEcOz0eT8sNL8nfmb5b1/wAtWzjSpZpLLUrR&#xA;S031eS4gdIpAWLOqty3qdvkaZb4YjIEOJ+YOTHKMuaN/NvyndedvOXlny3G721laxXOoaldp1WIt&#xA;HGgQnbmWUgeFa02w5Y8RAY6bIMcJS+DyT8+fKGleU9Y0zT9J9cWtxamaUzzPKXkEjL+0aCgA6DKc&#xA;0RE7Odo8pmCSyHW/yRWf8udM80eVpZotQl0q1udT01WZkuAbdXlaOnxcyanhuD2p3kcPpsNUNX+8&#xA;MZcre5+Qr6O/8k6FdxxmJZLC3/dlSnErGFIAPao28RmTA2A63MKmR5o7zDpdzqujXWnW1/Lpk1yn&#xA;pi9t6erGD1KV6EjavXwocMhYRCXCbq3yj5y8l+ePys12PULO/lFvM9LTWLclBI32jHMlWo21SrVD&#xA;Dx3zCnCUC7nFlhmjRHwe9fk5+acXnfSHhvAkWv2AAvIl2WVDss6DsCdmHY+xGZOLJxDzdbqtP4Z2&#xA;+kvRMtcViXnD80vJ/lDULew1y4khnuYjNHwieRQnIrUlQepU5CWQR5t+LTzmLilSfn5+VrWklz+l&#xA;iFjZUMRgmEhLV3VONSBTc9sj40Wf5PJfJn8E0c8Mc0ZJjlUOhIINGFRsd8tcUhfirsVdirsVdirs&#xA;Vdir43/O7U9bvvzI1ZdWj9F7NxbWkIJKrbL8ULAn/fitz+bZgZiTLd32kiBjFPZ/yF/MDRR+XkFn&#xA;rF/aWEum3TWMImlSIuklJIjRiNyXZf8AY1zIwzHDu4GswnxLAu3sIIIBBqDuCMvcB55qX5SW5/Mb&#xA;TvOuiXKaZPA/LUrUR8luOVVkYUZQjPGxDGnXfrWtRxeqw5UdT+7MDuwb/nKby6GttG8xxL8cTtYX&#xA;Lj+Vqyw/cRJ9+V6iPIuT2dPnH4obzv5vvPPPk/yN5XsH5an5kaOTUm6lfqzGB2YfymVHk/2GCcuI&#xA;Ad6cWIY5ykeUUg1Rf+VTfnRAbFnh0OYQNIhJPOzmASbl/NwkRmHuBkT6J+TbH99h35/pZ7ewL57/&#xA;AD2igP73QvJkSyS90a7JDAfP1ONR3EZyw+qfkHGB8PD5zevapJbxabdy3KGW2SGRp4x1ZAhLLvTq&#xA;MvLgR5vk38krbzXe+b9RXyne2+l6gbCZ/UuY/Vj9L6xDWMCjUPIrvQ7ZhYbvZ3erMRAcQsW9b/Ky&#xA;289Q/mb5jHnKQT6kLG3VLiIAQPEJDw9LiqDj1/ZBrWu+X4+LiNuDqDDw48HK3pXm24tbbyprVzdx&#xA;evawWFzJcQ0B5xpCxdaGgPJRTLZci4mIEyFd75i/Imy87XepawvlPUbbTrxbdGle6i9RXXnso+F+&#xA;O/fjmHhB3p3GsMABxC3rf5NW3nKDzf52Hm5zLrBOnc51AEToEnCGLiFXjwp0A9965fiuzbg6owMI&#xA;8HLd6xl7hPm//nKoRfp3QiFpL9Vl5vtuvqDiPoPL78xNTzDtuzvpL2/8u7ZbbyF5dhVxKq6dakSC&#xA;tDyhVqioBpvmRD6Q67ObmfeyHJtTsVYx+ZXlRfNPkrU9HVQ1zJH6tkTTa4i+OOhPTkRxPsTkMkeI&#xA;U3YMnBMF8l/lv5rm8peddP1ViyW8cnoagm4Jt5DxlBHiv2gPEDMHHLhNu7z4+OBD7aR1dQ6EMjAF&#xA;WBqCD0IObF55JvOL6Rb+WtUv9Us4r21s7SaaSGZFcOsaFuG4P2qUyMqrdsxWZAAvBf8AnG38vrXV&#xA;L2680apbrPa2LCDT45FDIbigZ5KHb92pHH3PiMxsEL3LstfmIHCOr6UzLdS7FXYq7FXYq7FXYq7F&#xA;XlX51/k8/nGKPV9HKR6/ax+mY3PFLmIElULHZXUk8WPyPalOXFxbjm5uk1Xh7H6Xy7q+jato989j&#xA;qtpLZXcf2oZlKNTxFeoPYjbMIgjm7iMxIWGT+S/zd87+UvThsL03GnIf+OddVlhp4JU84/8AYMMn&#xA;DKYtOXTQnzG76a/LP81dD89WLegPqerW6g3mnOwLAdPUjbbnHXatKg9R0rmY8gk6jUac4z5Lfzlv&#xA;rSLyFqNjNazXlxqcTWtlBBA85NwVLRk8QQtGUEE9+mOU+ldKDxg9zxT8hbO40Xz9A+v6TfxSSwPb&#xA;aXNJbS8IpZGFSeS/CCpYcugqa9a5j4RUt3Yaw8UPSR5p/wD85LwQatrGj2GmWl1d69axyGeOC3kc&#xA;G3loyfEB8RVlb7NeprktRuRXNr0B4QSfpT//AJxqksYdC1SyliuIvMDXP1jUTcRupaNgBEQ7Ch/a&#xA;NCa1JPTJafl5tWvviB/hZ9+ZHmrSPLflK9u9TdlW6R7O1jjUu8k8sb8EFNhUKTU0GW5JADdxsGMz&#xA;kAHzT+TPmWbyb5lutWutIvr6CWye0CWsJZg7yxSAnlxFKRHMTFLhN07bVY/EjQI5vcdO/Pry5cSc&#xA;L3R9Y05K7zzWbPGF8T6Rd/8AhcyBmHcXXS0chyIPxQ35g/nH+X03knWbS11Fri8v7O4s7a2WCZJC&#xA;80TRhiJUjogLVLH6KnGeWNFlh0s+MEjkXj/5JecT5Ov9Rv7jSL/UILyFYUNnFzoyPyNSSBmPilw9&#xA;HO1eLxABYD2vTPz58tXMhW+0rV9MQHee4s2aIDxJiMjD3+HMgZh5uvlo5DkQfimrfnP+Waw+o2to&#xA;tekTQ3Cyn5RNGJP+FyXix72H5XJ3PDPz/wDM+l+a9f02XQTJe2tpalJLhYZVX1HkJKjmq1oAN8xs&#xA;0hI7Ox0WMwieLZ7Z+UfnjTNe8s6dp4mlOtWNnGl/BNE6MDEBGWDcFjYE0pQ/PfMjFMEOv1OExkT0&#xA;JZzNPDBE0s8ixRKKtI5CqB7k7Za4wFoCz8z+Wr2QR2erWVzITxCQ3EUjVrSlFY+GASDM45DmCmWF&#xA;g+Pfz18qf4e/MK+MKcLLVP8AT7anQeqT6q+ApKGoPCmYGaNSd7o8nFjHeNn0D+RPmk+YPy8sfVfl&#xA;eaWTYXNTufRA9JvHeJl38a5lYZXF1msx8OQ+e6Qf85Dea7qPTbHyTpSmTVfMUiK6qRUQ+oFVPnLL&#xA;tXwDZHPLoOrZosYszPKKH86az5t/KHyjoVtoNvptxo0aJaXMlwk7TtfOHlkk+CSJeEnEkdx92CZM&#xA;AKZYoRzyPFd/oZX5X8x/mB5k8hrr1vHptnqN5++063dLiSP0UYgiWjq3KTj8PHoPwnGUjG2jJCEJ&#xA;8O9MP/LL83fzC8+a/wDUYbbS7Gys0SfUJjHcO7R+oqlIv3tAzAmlemQx5ZSLfqNNjxxvcvbcyHXv&#xA;EPzH/OD8wfJXmf8AQjW2l331uMXNhKI51KxSyyRxpKPVALD096UzHyZZRNOxwaWGSN7h6/oK68ul&#xA;xDXpLaTVDyM7WSukAqxKqgkLN8K7VOXxut3Anw36eSYEgAkmgG5JwsXlT/mr5o8y+ZrjSPy60+0v&#xA;rPTR/uQ1XUDItuzcivGIxsvWnwnfluaUFcp8Qk1Fzfy0YRvISL6BJfIv5tfmh5s81S6BHY6XamyM&#xA;p1G8MF1JHGI24gAeuvxM2wqfftkYZZSNNmbTY4R4rL0Dz3+anlLyUqJqkzy30o5RafbAPMV/mYEq&#xA;qrXux+VcsnkEebi4dPLJy5ITy1q/lD81vK0l5eaQstnHPJbGC7CvIjqqtyR13QlXG6kHGJExyZZI&#xA;zwyoF5V+ZP8AzjhcWMU2qeT2e6t0+KTSJPimUdzC/wDuz/VPxe7ZRkwVuHMwa69p/N5D5W8y6n5Z&#xA;1+01rTn43No/Lga8XQ7PG/8AkuuxyiMiDbn5MYnGi+3PLmvWHmDQ7LWbBuVrfRCWOvVSdmRv8pGB&#xA;U+4zYxlYt56cDGRB6JjhYOxV2KuxV2KuxV2KuxV2KuxV2KsD/OD8yl8j+XkltlSXWL9mi0+J91HE&#xA;AySsB1VOQ27kjKsuThDk6XB4kvIPAPy+8q69+a3mq4bXNVuJLW1QT3907c5KMeKRxK1VUtvTagA6&#xA;dsxoRMzu7PNkjhj6Qmv50fkvpnkvTbbWdHup5rKecW00Fxxdo2ZGdWDoE+H4CN1+nDlxCO4YaXVH&#xA;IaPNPv8AnHv81dVk1S38mas5ubaZZP0ZcuSZI3RWlaN2J+JCqtx7g7dOk8GQ3RatbpxXGGaf85Ia&#xA;Ml7+Xcl6tsss+n3EMvrdHjjYmNiKCpX94Kr079sszj0tGhlWSu95n/zjL5n/AEf5uu9DmekGrwco&#xA;gTt69sC4++MvX5DKdPKjTl6/HceLuZf+X0H+O/zg1vztKPU0nRW+qaRXdWcAxoy18E5SezOMnD1T&#xA;JaM58PEIdTzTD/nKP/yX+n/9taH/AKhrjJaj6WPZ/wBZ936mb/lxPpkf5c6NPpyTLYR2SvGk5Vpa&#xA;KCWDFaKTyrlmOuEONnB8Q3zt49/zjJPDcebfMk8MXoQywq8UNQ3BWmJVahUB4jbZR8sx9PzLn9oC&#xA;oxfReZbqnzd/zktcwt5/8v2oh4zRWkcrz1HxLJcuqpTjX4DGx+0ftdB3xNR9QdtoB6CX0jmW6l57&#xA;+fMl3B+Wmo3VrqEunywPFUwsV9ZJW9FoGI34sstfo8MqzfS5WjrxACLeW/lVo/5y6H5UTWfKcFhf&#xA;6ZqrGc6fcMBLyicxFviMNOQTtJ07VynGJgWHM1MsUpVKwQt/5x7vdT/5WrrkV4giubmC6e+jJ3WV&#xA;LhCyjfs7HxxwE8RXWgeEKSr8qNF078x/zI1S882sbl2ikvWsy7p6jmRUC1UhgkStQKCO3bI4xxy3&#xA;bNTM4sYEX0l5Z8neXPK9vPbaFafUre5k9aaISSOpcKF5ASM/HYDpmXGIHJ1OTLKf1FOck1vifz1D&#xA;Yav+ZOqweWYWmgvb9o7OJKH1JXYK5j47cHl5FP8AJpmvnvLZ6DCTHGOLufXfkbytB5W8qadocJDG&#xA;0i/fyD9uZyXlYV7F2NPbM6EeEU6PNk45GSe5JrdirsVdirsVdirsVdirsVdirsVeD/8AOU+hX01h&#xA;outxIXtLNpra6IH2DNwaNj7HgRXxp45jagci7Ls6Yshiv/ONHmbTtL82Xml3chjk1mJIrQ8aqZYi&#xA;zBS1fhqpNNtzkNPKjTdr8ZMQR0ejf85Mavp9t5Di02WjXt/dRm2SvxKIas8lPAD4f9lluoPpcXQR&#xA;Jnfc82/5xz8k6rqHnCDzI8DJpGliUi4YUWSd4zGsafzFefI06U365VggSbcvXZQIcPUvpjW9JtdY&#xA;0e90q6Fbe+gkt5Nq0Eilaj3FajMsixTqISMSCOj4WY6ho2qypFK0F9ZySQmWM0KstY24sPpzW8i9&#xA;HtIeT7C/Jvy7BoX5c6NBGB6t5Ct/cuP2pLpRJvT+VCqfRmfijUQ6LVT4sh+TF/8AnIvT9c1ry9p2&#xA;i6PpN5qE/wBbW8kmt4jJEiRxSx8WI/aJlBG3TIZwSKDdoZRjIkkDZW8i65rGh/lLHZ6j5e1Y6npy&#xA;PaLZx2skkkplMjRugA+wBQMf2fuxgSI8kZoCWWwRRee/k3aedvIup399f+UdVure9hWFVgg/eK6s&#xA;GBKuV+GlcrxAxPJytUYZAAJB6HaeYvPXnHzvp9g+jan5Y8s6cTe3k06SQyXTxEenCZQAoUsw5IrG&#xA;orX2tEpSlyoOKYQxwJsSkXnn5v6X5v8AN/n6HUtI8s6obPToY7RZJrWSESmGWSVmUsKcT6lAcqyg&#xA;ylsHK00oQhRkN3onmH82vOSaXKNG8h60NQdSsMlxbM0cbEbMUiEjNTw2y2WQ1sC4sNNC95xpIPPt&#xA;hr975W8v/lpaXMuq+Z9SZb7XJ53aQwRgmR2lYk8EEr0QeC0AqRkJg0I9WzDKIkch2iOT1fRNLtPK&#xA;HlC20+FZruDSbbjSGMyTSlRyYpGm7MzVIUZeBwhwpyM533vCfJMXnTQvzX1PzTP5T1M6Xqs956ii&#xA;2YyxRXU3rKwFPtKQtaHpXMaFiV07LKYSxCPELFMg8/fk95j0nzN/jb8vX434la4n00FVIdv7wxcq&#xA;KyPU8oz47eAlPEQbi1YdVGUeDJyXWv8AzkVrVjGLfzJ5Pu7e+T4ZDFzjDMKV/dzJyX5cjhGcjmFO&#xA;hB+mQpB6/wCf/wA2fPtq+keVfLNzpFhcgx3F/NVWaM7MBNIsUcYpWoWreBwSnKWwDKGHFjNylZZT&#xA;+U/5H2Hk+VdX1SVL/X+JEbID6FuGFG9PkAWbtzIG3QDvPHh4dzzaNTqzk2G0XqeXOG7FXYq7FXYq&#xA;7FXYq7FXYq7FXYq7FUHrGmaZqml3VhqkKT6fcRlLmKTZSnWpO1KUqD264CARuyjIg2Ob4y876N5X&#xA;tfNbaZ5JubrVYFYIkhAkLT1+xAYgDIo6Bqb9q9TgTAug77FORjc9kr1671+bWeHmd7uW+teEE8d0&#xA;zCdI0p8A9QHj8PTb3yMib3bICNemqfYn5YXvli78jaW3llWj0mOMxxwyU9WN1Y+ostP2+ZJY961G&#xA;xzPxkcOzodQJCZ4uaK86eVZvM2krp8WrXmj0lEjz2L+m7qAQY2p1U1rhnGwjFk4DdAvO2/5xd8js&#xA;h/3I6kJKCjB4KVA3JBiJ3O/XKfy8XK/lCfcGZ/l3+XY8lQXVtDrF5qVpP6Ygt7pgY4AnKvpqNhy5&#xA;70p0yyEOHq4+fP4nQBmGWNDsVdirsVdiqnc28dzbyW8vL05VKPwZo2owoaOhVlPuDikGkFo/lzRN&#xA;GEx020S3kuGD3M27yysNgZJXLO9P8o4BEBlKZlzTHCwdirsVdirsVdirsVdirsVdirsVdirsVdir&#xA;sVdirsVdir55/wCcmfPWpRX9t5SsZ2hs2gW51IRkqZGkZgkTkHdQq8qdDUeGYuon0dpoMIriKN/5&#xA;xg8o6cdMvfNVxEsmofWGs7J239KNI1MjJ4F/U4k9aDwJqdPHa2PaGU2I9GW/nT+VFt5v0h9R06FV&#xA;8yWSVgcbG4jXcwOfH+QnoduhyeXHxDzaNLqeA0fpeI/lF+a0vkG71G01GCa4025RmNolFdLuMUU/&#xA;GRxDU4P36HtTMfFk4XY6nTeKARzeleRPPnnH8ydG84W63B07UbQQXOgtafu/Rc8ysTP1dXMQDcq1&#xA;5NtSgF0JmYLiZsMMRj1HVhlj+dn522N0thc2hvbwNx+r3Ngyyk/y8YRC3bwysZZhvOkwkXf2s6sY&#xA;f+cjfNVs1xNeWnla2cVSAxcJmB/ySs8qU/ymU5YPEl5OOTp4HkZJFrP5f/8AORenW73Ft5kl1MJv&#xA;6VreTCUgf5Eyxg/IE5EwyDq2QzYDzjXwYrof59/mdoF40WrP+koYH9O5tL6IRyIw6r6iKjq+37Vf&#xA;lkBmkObdPR45DbZ9EeQvzD0HzrpDX+lllmgot5YyU9WJyKgHsVanwsNj86jMqExIbOrzYJYzRYkv&#xA;/OQehprp0K50DVotWEggWyEcDSmZiAqcfVUb1rWuQ8cXVFv/ACR4eKxSd+dvzd0XybPBFrGl6mEu&#xA;EDxXEUMTQl6AtFzaZRzWu9NvfJTyiPNrxaY5ORCEl/OrTotCXXpPLOvLo7IJBe/Vrf0+DGiv/vRU&#xA;KfHpg8Xa6Kfyh4uHijf48mcaJq1trGjWOrWoZbbUII7mFZKBwkqBwGClgGAO9DlgNi3HnHhJB6PO&#xA;5/zm1LVdXvNN8ieW5fMaaftd35mW3twRUURmBDVoeO4JoaAjfKvFs+kW5Q0oiAZy4bU/LP5x69f+&#xA;e7Pynr/lxtBnuUlo00rOWdEZ14VSNeLcCAQTvjHKTKiKTk0sRAyjLieq5c4TsVdirsVdirsVdirs&#xA;VdirsVdirsVdirsVdirsVfNv/OTvlGG01ez8zxzjlqVLee3diW5wpQPGvGgQKAG+LqcxNRHe3bdn&#xA;5bBj3Jh/zjJ530u2trzypeziG6uLj61p3qGgkLoqSRqTtyHpghe9Th08xyY6/CTUg+gJJI4o2kkY&#xA;JGgLO7EBVUCpJJ6AZlOrfGH5w6noep/mLrF5ohjewkdKTQ09OWURqJZFpseUnLcdevfNflIMjTv9&#xA;LGQxgHm9H/5xe80aPa3OpeXZ0EOp37Lc21wT/fLEtDDT+ZKs48QT4Zdp5Dk4vaGMmpdA9i/MDyx5&#xA;g1/SUj0HXLjRNQtyzxPCxWOUkUCTFfjp4EHbwOXziSNjTgYckYn1Cw+UX/Nv8ynTgfMd6B4rJxO3&#xA;+UADmF4su93X5bH/ADQ+pvy28sa7pOjwXWv6zfanq93CrXUVzMXhhZqNwjQ916Fid8zMcSBuXTZ8&#xA;kZGogAMO/wCclvLpuvJK6tA7p+j7qOS6hViIpFk/cq7p0LozgK3WhIyGojtbkaCdTrveE/lj5z1T&#xA;yn5ttL+xie6Wci2ubCM73EchACLsfi5UK++Y2OZiXY6jEJxovTrm0jvf+co2aadLNoWtbhY5d2d1&#xA;sIT6K8aryNfGmxy6v3jhg1pvx3sh/wCcpLP1PKGl3fqKv1e+4ema1b1Ym+z8uGS1A2a+zz6yPJC6&#xA;H+cvljSvIXl7QFt5b3VJ7e0spLSaF44CjlY5i0jgBl4FqceVT7YBlAiAmelkZmXR6xpXli30ryqv&#xA;l2znk+rxQS29vNJ8Toj8uG4pXgGoPll4jQpwpZLlxF8xabqX5h/kz5iuIZbUNZ3DKsySKxtLpUJK&#xA;vFKKUbiTTuP2h2zDBljLuJRx54vZfJv5lfl9+Y+oafFe2f1TzHp0n1qwt5z8QkQVY28yFeYoPiVg&#xA;K0+yQMyIZIz97r8uCeIGj6S9Sy5w3Yq7FXYq7FXYq7FXYq7FXYq7FXYq7FXYq7FXYqlvmDy5onmH&#xA;TZNN1m0jvLOTqjjdT/MjCjIw8VNcEog82cMhibDyG/8A+cV/L0krtY63dW0ZNUSWOObiPCoMVcoO&#xA;nHe5w7Rl1CUt/wA4r6mr+jF5nQ2jn96TbOp23r6YlZW3/wArI/lz3s/5RH81lHlr/nGnyZplylzq&#xA;txPrLxmogkAhgJ7FkQlm+ReniMnHTgc2nJr5nlswvW/+cdvOVn5ukuvKU8NvpyTCfTrqWdo5YD9r&#xA;j8IZ/gbYHeoplZwG9nIhroGNS5vobRYdSh0iyh1SZLjUo4I0vZ4wQjzKoDsoIGxbfpmULrd1cyLN&#xA;cnwlpcYk1OzjJVQ88a8mNFFXAqT4ZrRzejlyL75zZvNPJv8AnJPzFZWPkNtGaUfXdWmiEcA+0YoJ&#xA;BK7kfyhkUfTlGeVRpzdBAmd9A8a/IXytd63+YVjdJGTZaQ3127mp8KlAfRWv8zSUoPAE9sowxuTn&#xA;6zII4yO9OfMPmTRV/wCcjl1lbuKTS0vrRHvEcGIcbaKF25jbijg1PtkpSHiWwhjP5eutFlf/ADlJ&#xA;qWnTaRoVtDcxS3BmecRI6s3pNGOL0B+y1dj3yeoOwaOz4mym3lXzl+U2pfl5oGh6/qlr61lBa84Z&#xA;i8bxXEHFgVei0oRQkGlKjphjOJiAWGTFlGQyiGe+YfP2had5V1DXdPvLbU/qlu00UUE8biQjZRVC&#xA;duXXLZTAFuNDDIyESKSL8s084eYdHl1fzhe2OraRrMEUtjpsUUbRwBixdJBw+I0IBDMxBFMjjsiy&#xA;2ajgiagCCHk/5veVLby/+aeht5QQRalemCaHTYKKIpo5AkZVVHwI/DpSmx7ZRljUhTm6bJxYzx8n&#xA;05mY6h2KuxV2KuxV2KuxV2KuxV2KuxV2KuxV2KuxV2KuxV2KuxV2KuxV2Kvz/gnlt5454WKSxMrx&#xA;uOoZTUEfTmsemIt9KXF3/wA5RoCEsrGSpI5Rm0FP8r45FzLvI6kDTd5+1IIPyB/MTzVrDat521iO&#xA;CSSnqspFxPxH7CKnCGNfChoPDIeDKRsltOtxwFQD2/yd5M0Hyjo6aXo0HpxA8ppnPKWaSlC8jUFT&#xA;+A7DMmMBEUHXZcspmyjW8v6CxLNptqWJqSYI6k/8Dh4Qx45d6GvfJnlC+ufrV9olhd3IVUE09tFK&#xA;wWMURQXVqBe1MBgD0ZDLMCgS7/Bnk/8A6sWn/wDSLB/zRjwDuXxZ95Q9z+XvkK5DCfy5prlhQv8A&#xA;VIA1PZgoYffjwR7kjPMfxH5sdtPyibRmmj8q+ZNQ0LT53MjafH6VxCrtQEp6ysw2A6kn3yAxVyNN&#xA;p1PF9UQSmflb8r/LuganJrJe41XXpQQ+rajJ689G2ITZVXbbYVptXDHGAb6sMmolIVyj3Bl+WNDs&#xA;VdirsVdirsVdirsVdirsVdirsVdirsVdirsVdirsVdirsVdirsVfAdiltJewJdSCK2aRRPKeR4oS&#xA;OR+EM3TwGawPTHls++0dXUOpDKwBUjoQc2bzLeKuxV2KuxV2KuxV2KuxV2KuxV2KuxV2KuxV2Kux&#xA;V2KuxV2KuxV2KuxV2KuxV2KuxV2KuxV2KsA/Mv8AMu68tn9D6PpF5qnmK7gMlmkMLyQoGJQOxQMz&#xA;FWH2FHzIyrJkrYc3JwYBPckCL5vtvyZ/M+4iEsfl65VT2kMcTf8AAyMrfhmJ4Uu52x1WMdX0b+Wm&#xA;tfmOYLHRfM3lhrOK0thFJrRuomDmJQqVgXk3JgNyG69sy8ZlyIdVnhj3MZfB6FlriuxV2KuxV2Ku&#xA;xV2KuxV//9k=</xmpGImg:image>
               </rdf:li>
            </rdf:Alt>
         </xmp:Thumbnails>
      </rdf:Description>
      <rdf:Description rdf:about=""
            xmlns:dc="http://purl.org/dc/elements/1.1/">
         <dc:format>image/svg+xml</dc:format>
         <dc:title>
            <rdf:Alt>
               <rdf:li xml:lang="x-default">logo3</rdf:li>
            </rdf:Alt>
         </dc:title>
      </rdf:Description>
      <rdf:Description rdf:about=""
            xmlns:xmpTPg="http://ns.adobe.com/xap/1.0/t/pg/"
            xmlns:stDim="http://ns.adobe.com/xap/1.0/sType/Dimensions#"
            xmlns:xmpG="http://ns.adobe.com/xap/1.0/g/">
         <xmpTPg:NPages>1</xmpTPg:NPages>
         <xmpTPg:HasVisibleTransparency>False</xmpTPg:HasVisibleTransparency>
         <xmpTPg:HasVisibleOverprint>False</xmpTPg:HasVisibleOverprint>
         <xmpTPg:MaxPageSize rdf:parseType="Resource">
            <stDim:w>155.000000</stDim:w>
            <stDim:h>58.000000</stDim:h>
            <stDim:unit>Pixels</stDim:unit>
         </xmpTPg:MaxPageSize>
         <xmpTPg:PlateNames>
            <rdf:Seq>
               <rdf:li>Cyan</rdf:li>
               <rdf:li>Magenta</rdf:li>
               <rdf:li>Yellow</rdf:li>
               <rdf:li>Black</rdf:li>
            </rdf:Seq>
         </xmpTPg:PlateNames>
         <xmpTPg:SwatchGroups>
            <rdf:Seq>
               <rdf:li rdf:parseType="Resource">
                  <xmpG:groupName>Default Swatch Group</xmpG:groupName>
                  <xmpG:groupType>0</xmpG:groupType>
               </rdf:li>
            </rdf:Seq>
         </xmpTPg:SwatchGroups>
      </rdf:Description>
      <rdf:Description rdf:about=""
            xmlns:xmpMM="http://ns.adobe.com/xap/1.0/mm/"
            xmlns:stRef="http://ns.adobe.com/xap/1.0/sType/ResourceRef#"
            xmlns:stEvt="http://ns.adobe.com/xap/1.0/sType/ResourceEvent#">
         <xmpMM:DocumentID>xmp.did:A7C2B1165A1EE911B247F12A56FAF220</xmpMM:DocumentID>
         <xmpMM:InstanceID>xmp.iid:A7C2B1165A1EE911B247F12A56FAF220</xmpMM:InstanceID>
         <xmpMM:OriginalDocumentID>xmp.did:662A8A5BF51BE911B453CA4AC5D85734</xmpMM:OriginalDocumentID>
         <xmpMM:RenditionClass>proof:pdf</xmpMM:RenditionClass>
         <xmpMM:DerivedFrom rdf:parseType="Resource">
            <stRef:instanceID>xmp.iid:B85734C44D1EE911B9B8FADCB593AD8D</stRef:instanceID>
            <stRef:documentID>xmp.did:B85734C44D1EE911B9B8FADCB593AD8D</stRef:documentID>
            <stRef:originalDocumentID>xmp.did:662A8A5BF51BE911B453CA4AC5D85734</stRef:originalDocumentID>
            <stRef:renditionClass>proof:pdf</stRef:renditionClass>
         </xmpMM:DerivedFrom>
         <xmpMM:History>
            <rdf:Seq>
               <rdf:li rdf:parseType="Resource">
                  <stEvt:action>saved</stEvt:action>
                  <stEvt:instanceID>xmp.iid:662A8A5BF51BE911B453CA4AC5D85734</stEvt:instanceID>
                  <stEvt:when>2019-01-19T19:50:22+05:30</stEvt:when>
                  <stEvt:softwareAgent>Adobe Illustrator CS6 (Windows)</stEvt:softwareAgent>
                  <stEvt:changed>/</stEvt:changed>
               </rdf:li>
               <rdf:li rdf:parseType="Resource">
                  <stEvt:action>saved</stEvt:action>
                  <stEvt:instanceID>xmp.iid:A7C2B1165A1EE911B247F12A56FAF220</stEvt:instanceID>
                  <stEvt:when>2019-01-22T20:56:28+05:30</stEvt:when>
                  <stEvt:softwareAgent>Adobe Illustrator CS6 (Windows)</stEvt:softwareAgent>
                  <stEvt:changed>/</stEvt:changed>
               </rdf:li>
            </rdf:Seq>
         </xmpMM:History>
      </rdf:Description>
      <rdf:Description rdf:about=""
            xmlns:pdf="http://ns.adobe.com/pdf/1.3/">
         <pdf:Producer>Adobe PDF library 10.01</pdf:Producer>
      </rdf:Description>
   </rdf:RDF>
</x:xmpmeta>
                                                                                                    
                                                                                                    
                                                                                                    
                                                                                                    
                                                                                                    
                                                                                                    
                                                                                                    
                                                                                                    
                                                                                                    
                                                                                                    
                                                                                                    
                                                                                                    
                                                                                                    
                                                                                                    
                                                                                                    
                                                                                                    
                                                                                                    
                                                                                                    
                                                                                                    
                                                                                                    
                           
<?xpacket end="w"?>
	</metadata>
<g>
	<g>
		<path fill="#6C2A1E" d="M16.886,0c0.224,2.208,0.842,4.641,1.856,7.299l-1.737,0.099c-0.396-1.057-1.149-1.957-2.261-2.697
			c-1.112-0.741-2.201-1.277-3.268-1.607C10.411,2.763,9.377,2.7,8.377,2.905C7.376,3.11,6.623,3.599,6.116,4.374
			c-0.507,0.775-0.53,1.531-0.069,2.272c0.461,0.74,0.658,1.261,0.592,1.565L6.541,8.688l0.276,0.158l-0.02,0.238l0.178,0.159
			L6.936,9.442l0.296,0.277L7.212,9.6l0.099-0.02l0.158-0.06l0.099,0.198l0.078-0.117L7.824,9.66l-0.06-0.119l0.119-0.179h0.099
			L8.1,9.224l0.08-0.041l0.118-0.078l0.355-0.179L9.6,9.521c0.632,0.396,1.813,0.965,3.544,1.705
			c1.73,0.741,3.133,1.753,4.206,3.036c1.073,1.283,2.201,3.088,3.386,5.417l-0.908,1.846c-0.605,1.479-1.382,2.71-2.33,3.688
			c-0.947,0.981-2.152,1.792-3.613,2.442c-1.46,0.647-2.862,1.017-4.205,1.109c-1.343,0.093-2.534,0.036-3.574-0.17
			c-1.04-0.204-2.172-0.757-3.396-1.665c-1.224-0.907-2.026-1.814-2.408-2.719c-0.382-0.905-0.401-1.835-0.059-2.787
			c0.342-0.952,0.915-1.774,1.717-2.47c0.803-0.695,1.589-1.146,2.36-1.358c0.769-0.212,1.431-0.271,1.983-0.178
			c0.145,1.136,0.349,2.195,0.612,3.174c-1.21-0.24-2.139-0.271-2.784-0.1c-0.645,0.172-1.085,0.667-1.323,1.488
			c-0.237,0.82-0.059,1.646,0.533,2.479c0.592,0.835,1.23,1.431,1.915,1.787c0.684,0.357,1.546,0.601,2.586,0.734
			c1.04,0.132,2.06,0.073,3.061-0.18c1-0.25,1.922-0.77,2.764-1.555c0.843-0.79,1.382-1.629,1.619-2.53l0.651-0.695L15.7,21.028
			c-0.197-0.078-0.395-0.483-0.593-1.209c-0.355-1.033-2.033-2.368-5.034-4.009c-3.146-1.322-5.235-2.413-6.269-3.271
			c-1.033-0.86-1.761-1.743-2.182-2.649C1.201,8.984,0.826,8.18,0.497,7.479l0.908-1.13c0.263-0.687,0.671-1.464,1.224-2.331
			c0.553-0.866,1.244-1.59,2.073-2.172c0.829-0.582,1.608-0.953,2.34-1.111c0.732-0.16,1.69-0.239,2.874-0.239
			c1.185,0,2.198,0.039,3.041,0.118c0.842,0.08,1.71-0.006,2.606-0.257L16.886,0z"/>
		<path fill="#6C2A1E" d="M18.762,0.119l2.31,0.179l3.14-0.179c0.184,0,0.296,0.159,0.335,0.476c0,0.317-0.146,0.475-0.435,0.475
			c-0.631,0.054-0.947,0.188-0.947,0.397l-0.06,0.138v0.119c0,0.319,0.645,2.381,1.935,6.192l0.711,2.814h-0.06
			c1.369-3.518,2.297-6.023,2.784-7.518V3.173c-0.316-1.401-0.777-2.103-1.382-2.103c-0.171-0.039-0.257-0.13-0.257-0.277V0.595
			c0-0.317,0.092-0.476,0.277-0.476l3.08,0.376l0.533-0.336h1.126l0.039-0.041h0.217V0l-0.119,0.119h0.475
			c0.25,0,0.375,0.092,0.375,0.278v0.396c0,0.186-0.171,0.277-0.514,0.277c-0.579,0.067-0.869,0.246-0.869,0.536v0.119
			c0,0.346,0.19,1.072,0.573,2.183L31.654,4.92l1.047,1.29l1.026,2.677l0.573,1.845h-0.059c2.132-5.486,3.198-8.516,3.198-9.085
			c0-0.384-0.461-0.576-1.382-0.576h-0.08c-0.131,0-0.21-0.158-0.236-0.475l0.04-0.377l0.316-0.059c0.842-0.119,2.31-0.119,4.402,0
			l0.138,0.118v0.635c0,0.066-0.131,0.126-0.395,0.178c-0.329,0.357-0.605,0.861-0.829,1.508c-1.396,2.897-2.811,6.091-4.245,9.582
			l0.04,0.04c0.276,0.753,0.658,1.132,1.146,1.132c0.144,0.04,0.217,0.132,0.217,0.277v0.237c0,0.226-0.086,0.363-0.256,0.416
			l-2.153-0.1l-0.75-0.316l-1.224,0.357l-0.829,0.059h-0.415c-0.276,0-0.415-0.151-0.415-0.455l0.04-0.041l-0.04-0.04
			c0-0.289,0.17-0.436,0.513-0.436c0.605-0.053,0.908-0.224,0.908-0.517v-0.139c0-0.396-0.763-2.862-2.29-7.398
			c0-0.053,0.025-0.079,0.079-0.079c-1.764,4.021-2.725,6.274-2.883,6.764c0.198,0.834,0.58,1.249,1.146,1.249
			c0.119,0.12,0.178,0.226,0.178,0.318v0.238c0,0.265-0.059,0.378-0.178,0.337l-0.02,0.059c-2.383-0.118-4.193-0.118-5.43,0
			c-0.276,0-0.415-0.145-0.415-0.436l0.04-0.039l-0.04-0.039c0-0.292,0.171-0.438,0.513-0.438c0.606-0.051,0.909-0.229,0.909-0.536
			v-0.118c0-0.397,0-1.039,0-1.924l-0.395-0.714L22.69,9.561c-1.317-4.695-2.422-7.458-3.317-8.291
			c-0.105-0.093-0.362-0.18-0.77-0.259l-0.119-0.257V0.635C18.485,0.292,18.578,0.119,18.762,0.119z"/>
		<path fill="#6C2A1E" d="M43.264,0.02l0.928,0.239l1.027-0.219l0.987,0.019l1.52-0.019l1.5-0.02L52.247,0l-0.139,1.071l0.218,1.072
			l0.217,1.129l0.197,1.131l-0.197,0.06l-0.217,0.06l-0.277-0.416L51.753,3.69l-0.336-0.675l-0.355-0.673l-0.553-0.557L49.957,1.23
			l-0.395-0.159l-0.771-0.02l-0.73-0.039l-0.75-0.02L47.015,1.09l-0.316,0.119L46.6,1.447l-0.118,0.24v2.341v2.36l0.987-0.039
			l0.987-0.02l0.533-0.061c0.342-0.041,0.605-0.112,0.79-0.218c0.184-0.106,0.302-0.292,0.355-0.556l0.079-0.376l0.079-0.24
			l0.06-0.216l0.356,0.176l0.335,0.199V7.24v2.202l-0.376,0.02l-0.395,0.039l-0.098-0.614c-0.08-0.396-0.362-0.695-0.85-0.893
			c-0.5-0.198-0.941-0.33-1.323-0.397l-0.592-0.1h-0.453h-0.474v2.54v2.56l1.165-0.02l1.145,0.16l0.83-0.1l0.81,0.1l1.026,0.216
			l1.007,0.239l0.81,0.296l1.146-0.059l0.533,0.178l1.007,0.081l0.849-0.041c0.566-0.014,0.96-0.073,1.185-0.179l0.316-0.157
			l0.237,0.357l0.217,0.02l0.335,0.257l0.316,0.279l-0.552,0.059c-0.369,0.053-0.823,0.1-1.363,0.14l-0.83,0.059l-1.263-0.098
			l-1.264-0.1l-2.291-0.1l-2.29-0.098l-1.955,0.059c-1.316,0.053-2.605,0.12-3.87,0.198l-1.896,0.14l0.04-0.496l0.04-0.478
			l0.177-0.039l0.178-0.039l0.434-0.257c0.276-0.159,0.435-0.285,0.474-0.377l0.06-0.12l0.256-0.137l-0.119-0.12V10.1l-0.059-2.144
			l0.257-0.12l0.316-0.514l-0.099-0.377l-0.099-0.357l0.237-0.359l0.217-0.355l-0.355-0.12l-0.355-0.12L43.422,5.2l-0.041-0.438
			v-1.29c0-0.847-0.033-1.442-0.098-1.785c-0.079-0.344-0.243-0.536-0.494-0.576l-0.395-0.06l-0.375-0.039l-0.395-0.02l0.158-0.259
			l0.178-0.237l0.158-0.258L42.277,0L43.264,0.02z"/>
		<path fill="#6C2A1E" d="M57.519,0.02l0.928,0.239l1.026-0.219l0.988,0.019l1.52-0.019l1.5-0.02L66.502,0l-0.139,1.071l0.217,1.072
			l0.217,1.129l0.197,1.131l-0.197,0.06l-0.217,0.06l-0.276-0.416L66.008,3.69l-0.336-0.675l-0.355-0.673l-0.552-0.557L64.211,1.23
			l-0.395-0.159l-0.771-0.02l-0.729-0.039l-0.75-0.02L61.27,1.09l-0.316,0.119l-0.099,0.238l-0.118,0.24v2.341v2.36l0.987-0.039
			l0.987-0.02l0.533-0.061c0.342-0.041,0.605-0.112,0.79-0.218c0.184-0.106,0.302-0.292,0.355-0.556l0.079-0.376l0.079-0.24
			l0.059-0.216l0.356,0.176l0.336,0.199V7.24v2.202l-0.376,0.02l-0.395,0.039l-0.099-0.614c-0.079-0.396-0.362-0.695-0.849-0.893
			c-0.5-0.198-0.941-0.33-1.323-0.397l-0.592-0.1h-0.455h-0.474v2.54v2.56l1.165-0.02l1.145,0.16l0.83-0.1l0.81,0.1l1.026,0.216
			l1.007,0.239l0.81,0.296l1.146-0.059l0.533,0.178l1.006,0.081l0.849-0.041c0.566-0.014,0.96-0.073,1.185-0.179l0.316-0.157
			l0.237,0.357l0.217,0.02l0.335,0.257l0.316,0.279l-0.552,0.059c-0.369,0.053-0.823,0.1-1.363,0.14l-0.83,0.059l-1.263-0.098
			l-1.264-0.1l-2.291-0.1l-2.29-0.098l-1.955,0.059c-1.316,0.053-2.605,0.12-3.87,0.198l-1.896,0.14l0.04-0.496l0.04-0.478
			l0.177-0.039l0.178-0.039l0.434-0.257c0.276-0.159,0.435-0.285,0.474-0.377l0.059-0.12l0.257-0.137l-0.119-0.12V10.1l-0.059-2.144
			l0.257-0.12l0.316-0.514l-0.099-0.377L57.95,6.588l0.237-0.359l0.217-0.355l-0.355-0.12l-0.355-0.12L57.674,5.2l-0.04-0.438v-1.29
			c0-0.847-0.033-1.442-0.099-1.785c-0.079-0.344-0.243-0.536-0.494-0.576l-0.395-0.06l-0.375-0.039l-0.395-0.02l0.158-0.259
			l0.178-0.237l0.158-0.258L56.532,0L57.519,0.02z"/>
		<path fill="#6C2A1E" d="M70.569,0l2.586,0.257l3.257-0.119l3.16-0.08l1.439,0.317L82.711,0c-0.092,0.806-0.115,1.438-0.068,1.893
			c0.047,0.457,0.121,0.874,0.229,1.25c0.104,0.377,0.263,0.718,0.473,1.022l-0.888,0.674c-0.396-0.622-0.733-1.16-1.019-1.615
			c-0.281-0.458-0.604-0.784-0.967-0.983c-0.361-0.198-0.74-0.41-1.136-0.635c-0.396-0.224-0.632-0.403-0.71-0.535l-0.475-0.12
			h-0.06l-0.06,0.059v0.061l0.06,2.52v0.257l-0.06,0.139l0.06,0.458h-0.06v0.218l0.117,0.178v1.865l-0.236,1.172l-0.079,0.196
			l-0.256,0.159V8.49l0.139,0.118l0.198,0.14h0.059l0.06,0.198l0.06,0.377L77.716,9.68l0.06,0.139v0.059
			c-0.079,0.265-0.119,0.406-0.119,0.426s0.04,0.137,0.119,0.347l0.059,0.081l0.455,0.534l-0.257,0.34
			c0.078,0.779,0.238,1.272,0.482,1.476c0.243,0.206,0.428,0.32,0.553,0.348c0.125,0.027,0.518,0.078,1.176,0.159v0.715
			c-2.343,0-3.699,0-4.066,0c-0.369,0-0.616,0-0.741,0s-0.905,0-2.339,0v-0.715c0.435,0,0.782-0.047,1.046-0.139
			c0.263-0.093,0.447-0.248,0.553-0.465c0.105-0.22,0.138-0.593,0.099-1.123l0.118-2.578V7.815l0.08-1.388l-0.08-0.198V6.031
			l0.139-0.181l-0.397-0.673l0.198-0.733L74.735,3.53l0.059-2.201h-0.849c-0.513,0-0.921,0.059-1.224,0.177
			c-0.303,0.118-0.586,0.342-0.849,0.666c-0.264,0.323-0.514,0.684-0.75,1.081c-0.237,0.397-0.488,0.905-0.751,1.528l-0.572-0.457
			C70.181,2.948,70.437,1.506,70.569,0z"/>
	</g>
	<path fill="#6C2A1E" d="M99.016,30.78c0.346,1.491,0.397,2.593,0.159,3.306c-0.237,0.712-0.557,1.686-0.952,2.925l-1.771,2.595
		l-2.007,0.979l-2.305,0.438l-1.689,0.381c-3.152-0.387-5.137-0.579-5.952-0.579c-0.813,0-1.767-0.394-2.851-1.181l-1.491-1.037
		l0.278-0.801l0.14-0.736l-0.14-0.159l-0.834-0.397l0.099-0.461l-0.118-0.5l-0.756-0.298l0.298-1.856l0.597-2.157l0.994-1.236
		l1.49-1.119c0.636-0.452,1.186-0.93,1.648-1.437l0.935-0.919l-1.511-0.5l-0.676-0.298l-1.113-1.039
		c-0.582-0.944-0.986-1.629-1.211-2.055c-0.225-0.426-0.375-0.95-0.446-1.568c-0.074-0.619-0.047-1.201,0.078-1.747
		c0.126-0.546,0.58-1.338,1.36-2.376l1.49-1.338l1.471-0.739l2.604-0.539l1.252-0.28l2.522,0.28l1.113,0.239l0.598,0.22l0.734,0.3
		l0.139,0.36l0.298,0.458l1.054,0.6l0.221,0.579l0.654,0.678l0.377,2.017l-0.377,1.777c-0.292,0.838-0.684,1.412-1.173,1.718
		c-0.583,0.253-0.994,0.738-1.231,1.457l-0.358,0.6l-1.33,1.217l1.371,0.938l2.661,4.433l0.814,1.079l3.061,3.672l0.775,1.198
		l1.192,1.678l0.694,0.299l0.397,0.818c0.251,0.561,0,0.913-0.755,1.059l-1.133,0.221h-1.889l-0.377-0.758l-4.055-5.394l-4.054-5.39
		l-1.212-1.158l-0.756-0.738l-0.615-0.359l-1.271,0.679l-1.492,1.637l-0.595,1.376l-0.118,1.021l0.021,1.517
		c0.104,0.958,0.247,1.646,0.426,2.058s0.345,0.725,0.497,0.938c0.152,0.212,0.434,0.493,0.846,0.838l0.854,0.619l0.814-0.079
		c2.066,0.188,3.201,0.25,3.406,0.188c0.206-0.059,0.411-0.123,0.617-0.188c0.206-0.066,0.593-0.314,1.162-0.74
		c0.57-0.426,0.848-1.162,0.835-2.216l0.118-1.077l0.656-0.938l4.291-3.495L99.016,30.78z M89.796,23.912
		c0.212-0.518,0.425-1.037,0.636-1.557l0.317-0.799l-0.039-0.818l-0.101-0.459l-0.158-1.158l-0.079-0.439l-0.218-0.778v-0.599
		l-0.815-0.699c-0.94-0.332-1.644-0.5-2.106-0.5c-0.569,0.227-0.935,0.406-1.094,0.54c-0.449,0.399-0.711,0.701-0.783,0.908
		c-0.073,0.206-0.211,0.476-0.408,0.81l-0.158,0.658l0.04,0.84l-0.08,0.657l0.237,0.56l0.102,0.381l-0.357,0.557l0.396,0.34
		l0.457,0.501l0.457,0.457l0.062,0.599l0.914,0.64l1.092,0.738L89.796,23.912z"/>
	<g>
		<g>
			<path fill="#6C2A1E" d="M104.907,17.828l0.978,3.011c0.1-0.033,1.165-2.673,3.195-7.919l0.878-1.381l0.679-1.58l0.215-1.481
				c0.387-0.987,0.582-1.563,0.582-1.73V6.48V6.23V5.98c0-0.698-0.785-1.048-2.354-1.048h-0.298
				c-0.122-0.043-0.183-0.177-0.183-0.399V3.77c0-0.255,0.121-0.384,0.364-0.384c1.558,0.179,3.015,0.239,4.371,0.183l0.067,0.066
				l-0.051,0.217l0.992,0.433l0.266-0.366l0.515-0.35h1.158c0.133,0.045,0.2,0.172,0.2,0.383v0.4c0,0.433-0.211,0.648-0.631,0.648
				c-0.508,0.155-1.037,0.682-1.59,1.581l-2.615,5.541c-1.744,3.705-3.004,6.477-3.775,8.318c-0.773,1.854-1.049,3.041-0.828,3.562
				c0.221,0.532,0.756,0.809,1.605,0.833c0.287,0,0.431,0.194,0.431,0.581c0,0.567-0.099,0.85-0.298,0.85l-2.467-0.118l-1.855-0.298
				l-0.396,0.1h-0.447l-0.198,0.249l-0.696-0.683c-0.242,0.088-0.347,0.282-0.313,0.583l-1.143,0.1l-0.066,0.067h-0.065v-0.067
				l-0.067,0.067h-0.795c-0.287,0-0.431-0.261-0.431-0.783v-0.198c0-0.3,0.242-0.449,0.729-0.449c0.938,0,1.5-0.334,1.688-1
				c0-0.542-0.706-2.717-2.118-6.521l0.33-1.132l-0.514-0.549l-0.1-0.949l-0.631,0.1c-1.444-3.86-2.533-6.594-3.262-8.203
				c-0.464-1.42-0.986-2.368-1.572-2.845c-0.586-0.478-1.1-0.882-1.541-1.215c-0.44-0.333-1.158-0.549-2.151-0.649
				c0.794-1.076,1.567-1.686,2.317-1.83c0.752-0.144,1.697,0.083,2.84,0.682c1.144,0.599,2.267,1.677,3.369,3.235
				C100.331,5.519,102.227,10.141,104.907,17.828z"/>
			<path fill="#6C2A1E" d="M113.336,11.588l2.782,0.067l0.612,0.366l0.365-0.25l1.307-0.05l-0.133,0.482
				c-0.453,0.1-0.738,0.253-0.86,0.458c-0.121,0.205-0.226,0.684-0.313,1.439v1.696l-0.183,0.367h-0.248l-0.497,0.582l0.248,0.318
				v0.299l0.432,0.2h0.198v0.382l0.183,3.711c0.043,0.533,0.248,0.91,0.611,1.131l0.68,0.116v0.5c-1.646-0.079-3.289-0.079-4.935,0
				l-0.065-0.616c0.408-0.056,0.676-0.155,0.803-0.3c0.127-0.143,0.212-0.466,0.257-0.964l-0.065-7.986
				c-0.166-0.456-0.31-0.766-0.432-0.932c-0.121-0.166-0.408-0.25-0.861-0.25L113.336,11.588z"/>
			<path fill="#6C2A1E" d="M119.711,11.888c0-0.166,0.021-0.274,0.066-0.324c0.043-0.05,0.166-0.075,0.363-0.075
				c0.033,0,0.104,0,0.215,0c0.973,0.222,1.914,0.283,2.824,0.183c0.91-0.1,1.477-0.16,1.696-0.183h0.216
				c0.198,0,0.299,0.094,0.299,0.283c0,0.244-0.027,0.393-0.084,0.45c-0.055,0.055-0.188,0.088-0.396,0.099
				c-0.342,0.033-0.59,0.098-0.744,0.191c-0.154,0.095-0.26,0.286-0.314,0.574c-0.022,0.145-0.045,0.491-0.066,1.039
				c-0.021,0.549-0.033,1.351-0.033,2.406c0,1.253,0.006,2.298,0.018,3.135c0.01,0.838,0.021,1.395,0.032,1.672
				c0.011,0.244,0.027,0.433,0.05,0.565c0.022,0.133,0.069,0.231,0.142,0.292c0.071,0.062,0.172,0.1,0.299,0.116
				c0.126,0.016,0.317,0.025,0.569,0.025c0.642,0,1.201-0.025,1.683-0.075c0.479-0.05,0.819-0.124,1.019-0.225
				c0.176-0.088,0.763-0.682,1.756-1.78c0.043-0.233,0.147-0.35,0.314-0.35c0.432,0,0.646,0.122,0.646,0.367
				c0,0.1-0.172,0.377-0.514,0.832c-0.343,0.454-0.539,0.81-0.589,1.065s-0.103,0.493-0.157,0.715
				c-0.033,0.146-0.061,0.261-0.082,0.35c-0.022,0.089-0.047,0.155-0.074,0.199c-0.028,0.045-0.075,0.07-0.141,0.076
				c-0.066,0.006-0.134,0.008-0.199,0.008c-0.033,0-0.071,0-0.116,0c-0.033,0-0.089,0-0.165,0c-0.078,0-0.719-0.035-1.922-0.108
				c-1.203-0.073-2.284-0.108-3.244-0.108c-0.486,0-0.876,0.029-1.168,0.092c-0.293,0.06-0.629,0.093-1.012,0.099
				c-0.381,0.006-0.703,0.014-0.967,0.024h-0.102c-0.154,0-0.245-0.021-0.271-0.067c-0.027-0.043-0.041-0.166-0.041-0.366
				c0-0.144,0.021-0.239,0.064-0.283s0.184-0.077,0.415-0.1c0.229-0.022,0.411-0.066,0.537-0.134
				c0.128-0.066,0.231-0.177,0.315-0.332c0.082-0.155,0.156-0.51,0.223-1.065l0.018-3.66l0.049-0.567l0.547,0.051l0.066-0.551
				l-0.415-0.315l0.2-0.516l-0.398-0.948c-0.033-1.009-0.076-1.631-0.132-1.864c-0.056-0.233-0.138-0.365-0.249-0.398
				c-0.109-0.035-0.287-0.061-0.529-0.084c-0.221-0.011-0.361-0.027-0.422-0.05c-0.062-0.021-0.092-0.083-0.092-0.183v-0.197
				H119.711z"/>
			<path fill="#6C2A1E" d="M131.303,11.888c0-0.166,0.022-0.274,0.066-0.324c0.044-0.05,0.166-0.075,0.363-0.075
				c0.033,0,0.105,0,0.216,0c0.973,0.222,1.913,0.283,2.823,0.183c0.91-0.1,1.477-0.16,1.696-0.183h0.216
				c0.199,0,0.299,0.094,0.299,0.283c0,0.244-0.027,0.393-0.084,0.45c-0.055,0.055-0.188,0.088-0.396,0.099
				c-0.342,0.033-0.59,0.098-0.744,0.191c-0.154,0.095-0.26,0.286-0.314,0.574c-0.022,0.145-0.045,0.491-0.066,1.039
				c-0.021,0.549-0.031,1.351-0.031,2.406c0,1.253,0.006,2.298,0.016,3.135c0.011,0.838,0.021,1.395,0.033,1.672
				c0.01,0.244,0.026,0.433,0.049,0.565c0.022,0.133,0.07,0.231,0.142,0.292c0.072,0.062,0.172,0.1,0.299,0.116
				c0.128,0.016,0.317,0.025,0.571,0.025c0.641,0,1.199-0.025,1.682-0.075c0.479-0.05,0.818-0.124,1.018-0.225
				c0.177-0.088,0.763-0.682,1.756-1.78c0.044-0.233,0.148-0.35,0.314-0.35c0.432,0,0.646,0.122,0.646,0.367
				c0,0.1-0.171,0.377-0.514,0.832c-0.342,0.454-0.539,0.81-0.588,1.065c-0.051,0.255-0.104,0.493-0.156,0.715
				c-0.034,0.146-0.063,0.261-0.084,0.35c-0.022,0.089-0.047,0.155-0.074,0.199c-0.028,0.045-0.074,0.07-0.141,0.076
				c-0.067,0.006-0.133,0.008-0.198,0.008c-0.034,0-0.072,0-0.117,0c-0.032,0-0.088,0-0.165,0c-0.078,0-0.718-0.035-1.921-0.108
				c-1.204-0.073-2.285-0.108-3.245-0.108c-0.486,0-0.875,0.029-1.168,0.092c-0.293,0.06-0.629,0.093-1.01,0.099
				c-0.383,0.006-0.704,0.014-0.969,0.024h-0.102c-0.154,0-0.244-0.021-0.271-0.067c-0.027-0.043-0.041-0.166-0.041-0.366
				c0-0.144,0.021-0.239,0.065-0.283c0.043-0.044,0.183-0.077,0.414-0.1c0.231-0.022,0.411-0.066,0.537-0.134
				c0.128-0.066,0.231-0.177,0.315-0.332c0.082-0.155,0.156-0.51,0.224-1.065l0.017-3.66l0.051-0.567l0.545,0.051l0.066-0.551
				l-0.414-0.315l0.199-0.516l-0.396-0.948c-0.033-1.009-0.078-1.631-0.133-1.864c-0.057-0.233-0.139-0.365-0.25-0.398
				c-0.108-0.035-0.285-0.061-0.529-0.084c-0.221-0.011-0.361-0.027-0.422-0.05c-0.062-0.021-0.092-0.083-0.092-0.183v-0.197
				H131.303z"/>
			<path fill="#6C2A1E" d="M154.818,11.588v0.316v0.333h-0.447h-0.464l-0.267,0.217c-0.176,0.155-0.285,0.415-0.33,0.781
				l-0.065,0.565l-0.149,0.067l-0.197-0.216l-0.101,0.366l-0.149,0.084l0.101,0.299l0.065,0.482l0.148,0.101
				c0.066,0.199,0.066,0.338,0,0.415l-0.1,0.101l-0.115,0.116l-0.1,0.116l0.148,0.133l0.1,0.3l0.199-0.017l0.148,0.149v0.75v0.748
				l-0.102,0.799l0.102,0.699l-0.102,0.965l0.102,0.866l0.215,0.5c0.132,0.332,0.348,0.609,0.646,0.831l0.431,0.35h0.231h0.231
				l-0.083,0.299l-0.082,0.301l-2.684,0.032l-1.357,0.017l-1.342,0.017l0.199-0.15l-0.199-0.165v-0.151v-0.149l0.166-0.017
				l0.148-0.017l0.166-0.017c0.131,0.089,0.281,0.116,0.446,0.083v-0.3l0.147-0.1c0.101-0.066,0.162-0.155,0.185-0.266l0.032-0.183
				l0.033-0.166l0.033-0.167l-0.018-0.832l-0.018-0.849l-0.017-0.831l-0.017-0.833l-1.01-0.249l-1.026-0.25l-1.011-0.249
				l-1.026-0.25l-0.033,0.35l-0.231,0.266l-0.082,0.499l0.031,0.367l0.018,0.483l-0.215,0.549l-0.033,0.532l-0.133,0.549
				l-0.396,0.499l-0.332,0.449l-0.447,0.566c-0.265,0.333-0.528,0.627-0.795,0.881l-0.379,0.367l-0.397,0.382
				c-0.267,0.256-0.53,0.444-0.796,0.566l-0.381,0.2l-0.396,0.183c-0.266,0.133-0.657,0.2-1.177,0.2h-0.775l0.397-0.467l0.363-0.031
				l0.349-0.034l0.364-0.033c0.23-0.024,0.457-0.151,0.679-0.383l0.331-0.351l0.33-0.332c0.223-0.233,0.426-0.577,0.613-1.032
				l0.266-0.682l0.281-0.665c0.177-0.455,0.287-0.988,0.33-1.597l0.084-0.916l0.215-0.799l-0.082-1.016l-0.018-0.149l-0.33-0.232
				l-0.166-0.2c-0.121-0.123-0.172-0.25-0.148-0.383l0.033-0.182l0.033-0.2c0.021-0.121,0.114-0.177,0.279-0.167l0.249,0.017
				l0.248,0.017l0.249,0.017l0.165-0.283l0.166-0.199l0.149-0.383c0.242-0.155,0.418-0.388,0.528-0.699l0.349-0.416l0.363-0.399
				c0.232-0.278,0.471-0.439,0.713-0.483l0.381-0.465l0.365-0.267c0.241-0.177,0.479-0.266,0.711-0.266h0.332h0.348l0.479,0.149
				l1.159-0.149l1.175,0.149l1.458-0.149h1.311V11.588z M148.773,12.97l-0.479,0.149l-0.185,0.416
				c-0.221,0.188-0.392,0.393-0.512,0.615l-0.182,0.334l-0.184,0.333c-0.121,0.223-0.148,0.389-0.082,0.499l0.1,0.15l0.1,0.167
				l0.1,0.166l0.349,0.083l0.198,0.333l0.348,0.033c0.332-0.077,0.641-0.072,0.928,0.017l0.432,0.133l0.413,0.151l0.431,0.133
				v-0.965l0.15-0.965l-0.15-0.949v-0.967l-0.363-0.033l-0.348-0.049l-0.365-0.034C149.227,12.698,148.994,12.781,148.773,12.97z"/>
		</g>
		<g>
			<path fill="#6C2A1E" d="M126.004,32l2.782,0.066l0.612,0.365l0.365-0.25l1.307-0.051l-0.131,0.482
				c-0.453,0.1-0.74,0.254-0.861,0.46c-0.122,0.204-0.227,0.683-0.314,1.438v1.696l-0.183,0.367h-0.248l-0.497,0.58l0.248,0.315v0.3
				l0.432,0.201h0.198v0.381l0.183,3.711c0.043,0.533,0.248,0.91,0.612,1.131l0.681,0.115v0.502c-1.646-0.078-3.291-0.078-4.937,0
				l-0.065-0.617c0.408-0.055,0.676-0.153,0.804-0.301c0.126-0.143,0.212-0.465,0.256-0.963l-0.065-7.984
				c-0.166-0.455-0.31-0.769-0.431-0.934c-0.122-0.166-0.408-0.251-0.86-0.251L126.004,32z"/>
			<path fill="#6C2A1E" d="M133.557,32.116l0.777,0.198l0.861-0.184l0.826,0.018l1.276-0.018l1.259-0.016l2.532-0.02l-0.114,0.899
				l0.182,0.899l0.183,0.947l0.165,0.947l-0.165,0.049l-0.183,0.053l-0.231-0.35l-0.248-0.352l-0.28-0.563l-0.299-0.565
				l-0.465-0.468l-0.463-0.466l-0.331-0.133l-0.646-0.016l-0.614-0.033l-0.629-0.02l-0.248,0.085l-0.265,0.101l-0.084,0.199
				l-0.1,0.199v1.963v1.98l0.828-0.033l0.828-0.016l0.447-0.053c0.287-0.033,0.508-0.094,0.662-0.183
				c0.153-0.09,0.254-0.245,0.297-0.467l0.066-0.313l0.066-0.199l0.05-0.185l0.298,0.15l0.281,0.163v1.849v1.847l-0.314,0.019
				l-0.33,0.032l-0.084-0.517c-0.064-0.333-0.304-0.582-0.711-0.749c-0.42-0.165-0.789-0.277-1.109-0.332l-0.497-0.084h-0.38h-0.398
				v2.133v2.145l0.979-0.018l0.961,0.133l0.693-0.082l0.68,0.082l0.861,0.184l0.846,0.2l0.678,0.249l0.961-0.049l0.447,0.148
				l0.844,0.066l0.713-0.033c0.475-0.012,0.807-0.061,0.993-0.148l0.265-0.134l0.199,0.3l0.182,0.017l0.282,0.216l0.265,0.232
				l-0.463,0.053c-0.31,0.043-0.69,0.083-1.144,0.115L144.8,44.24l-1.06-0.081l-1.061-0.083l-1.921-0.085l-1.921-0.084l-1.64,0.052
				c-1.104,0.044-2.187,0.1-3.246,0.166l-1.591,0.115l0.033-0.416l0.033-0.397l0.149-0.034l0.149-0.033l0.363-0.215
				c0.23-0.134,0.363-0.239,0.396-0.315l0.05-0.101l0.216-0.115l-0.1-0.102v-1.947l-0.051-1.797l0.217-0.1l0.265-0.434L134,37.918
				l-0.083-0.298l0.199-0.302l0.182-0.297L134,36.92l-0.298-0.1l-0.017-0.368l-0.033-0.364v-1.082c0-0.71-0.028-1.209-0.082-1.497
				c-0.067-0.288-0.205-0.448-0.414-0.483l-0.332-0.049l-0.315-0.033l-0.329-0.019l0.131-0.216l0.149-0.2l0.134-0.216l0.133-0.2
				L133.557,32.116z"/>
			<path fill="#6C2A1E" d="M153.328,31.201c0.121,1.107,0.451,2.33,0.992,3.66l-0.928,0.049c-0.209-0.531-0.611-0.982-1.207-1.355
				c-0.598-0.371-1.184-0.641-1.756-0.807c-0.574-0.167-1.13-0.196-1.666-0.09c-0.533,0.104-0.938,0.351-1.207,0.738
				c-0.271,0.388-0.283,0.769-0.033,1.14c0.248,0.372,0.711,0.756,1.392,1.147c0.679,0.396,1.481,0.776,2.409,1.148
				c0.928,0.371,1.678,0.879,2.251,1.521c0.575,0.644,0.955,1.326,1.144,2.047c0.188,0.722,0.186,1.354-0.009,1.896
				c-0.192,0.546-0.543,1.063-1.051,1.558c-0.509,0.491-1.154,0.901-1.938,1.229c-0.783,0.328-1.535,0.512-2.252,0.558
				c-0.719,0.045-1.355,0.015-1.912-0.093c-0.559-0.104-1.166-0.385-1.822-0.84c-0.656-0.453-1.088-0.909-1.291-1.364
				c-0.204-0.453-0.217-0.919-0.033-1.396c0.182-0.478,0.488-0.889,0.919-1.239c0.431-0.349,0.853-0.576,1.267-0.683
				c0.414-0.104,0.832-0.137,1.252-0.09c-0.045,0.575-0.078,1.108-0.101,1.597c-0.485-0.123-0.901-0.14-1.25-0.05
				s-0.586,0.336-0.712,0.746c-0.127,0.41-0.064,0.838,0.189,1.274c0.254,0.438,0.596,0.737,1.025,0.899
				c0.432,0.158,0.925,0.273,1.482,0.339c0.558,0.067,1.104,0.038,1.64-0.091c0.536-0.127,1.03-0.389,1.481-0.78
				c0.453-0.396,0.739-0.815,0.861-1.267c0.121-0.449,0.088-0.935-0.1-1.455c-0.188-0.521-0.48-0.888-0.879-1.1l-0.28-0.465
				l-0.017-0.45l-0.299-0.481c-0.354,0.213-0.475,0.455-0.365,0.731l-0.844-0.25c-1.688-0.665-2.81-1.215-3.361-1.646
				c-0.553-0.434-0.94-0.875-1.168-1.33c-0.227-0.456-0.268-0.953-0.123-1.491c0.144-0.537,0.363-1.022,0.662-1.456
				c0.297-0.432,0.668-0.795,1.108-1.089c0.441-0.293,0.858-0.479,1.251-0.56c0.393-0.076,0.905-0.114,1.54-0.114
				c0.636,0,1.179,0.02,1.632,0.058C151.678,31.547,152.378,31.443,153.328,31.201z"/>
			<g>
				<path fill="#6C2A1E" d="M100.292,29.626h0.118c0.652,0.58,2.811,1.026,6.475,1.343l4.788-1.047h3.209
					c3.194,0,5.921,1.1,8.177,3.298c0.951,1.199,1.623,2.265,2.016,3.199c0.717,0.329,1.074,0.565,1.074,0.711l-1.074,1.854
					c0,2.356-1.239,4.478-3.719,6.358c-2.399,1.173-4.349,1.757-5.849,1.757h-0.762l-3.403-0.217l-0.099,3.297v0.12l-0.313,0.396
					l0.217,0.729c-0.431,0.078-0.646,0.185-0.646,0.315l0.117,0.492h0.1l0.43-0.293h0.195c0.221,2.604,0.899,3.906,2.035,3.906
					l0.525-0.099h0.646l0.196,1.106l-1.037,0.099h-3.833c-1.305,0-3.26,0.349-5.869,1.046c-0.417-0.579-0.626-0.96-0.626-1.145
					h0.118c2.047-0.711,3.07-1.566,3.07-2.567l0.098-1.343V37.13c-0.898-0.856-1.676-1.368-2.327-1.541v-0.513
					c0.144-0.277,0.359-0.415,0.646-0.415l2.66,0.218h0.627l5.73-0.218l0.137,0.711c-1.199,0-2.086,0.823-2.66,2.469
					c-0.223,0.447-0.332,0.929-0.332,1.441v2.468c-0.209,0.25-0.313,0.493-0.313,0.73c0.273,0.093,0.41,0.33,0.41,0.711v0.1
					c-0.273,0.303-0.41,0.579-0.41,0.828c0.273,0,0.41,0.311,0.41,0.929l0.099,0.099h0.136l3.269,0.1
					c1.979,0,3.585-1.132,4.813-3.396c0.272-1.383,0.408-2.509,0.408-3.375c-0.338-2.055-0.835-3.231-1.486-3.535l-0.116-0.197
					l0.764-0.04l0.47-0.374l-0.117,0.079l-0.273-0.673l-0.607-0.276l-0.194,0.455l-0.55-0.04l-0.115,0.257h-0.098
					c-1.5-1.435-3.24-2.151-5.225-2.151c0-0.093-0.527-0.158-1.583-0.197c-2.282,0-1.295,0.652-5.964,1.955h-0.645
					c-1.683-0.197-2.523-0.508-2.523-0.928L100.292,29.626z"/>
			</g>
		</g>
	</g>
</g>
</svg>
